WIPSHDC-Old-Traditional-Serif-Heavy.ufo
<glyph name="uni4E49" format="2">
	<advance width="1000" height="1000"/>
	<unicode hex="4E49"/>
	<note>
		cid09602
	</note>
	<outline>
		<contour>
			<point x="238" y="739" type="curve"/>
			<point x="223" y="732" type="line"/>
			<point x="296" y="294"/>
			<point x="493" y="47"/>
			<point x="811" y="-92" type="curve"/>
			<point x="842" y="-23"/>
			<point x="899" y="20"/>
			<point x="974" y="25" type="curve"/>
			<point x="978" y="38" type="line"/>
			<point x="631" y="138"/>
			<point x="337" y="346"/>
		</contour>
		<contour>
			<point x="887" y="750" type="curve"/>
			<point x="686" y="796" type="line"/>
			<point x="629" y="444"/>
			<point x="479" y="94"/>
			<point x="20" y="-86" type="curve"/>
			<point x="27" y="-97" type="line"/>
			<point x="583" y="30"/>
			<point x="756" y="364"/>
			<point x="845" y="727" type="curve"/>
			<point x="874" y="729"/>
			<point x="883" y="737"/>
		</contour>
		<contour>
			<point x="350" y="854" type="curve"/>
			<point x="342" y="849" type="line"/>
			<point x="382" y="788"/>
			<point x="416" y="708"/>
			<point x="423" y="633" type="curve"/>
			<point x="552" y="533"/>
			<point x="677" y="765"/>
		</contour>
		<contour>
			<point x="238" y="739" type="curve"/>
			<point x="280" y="796" type="line"/>
			<point x="224" y="811" type="line"/>
			<point x="215" y="744" type="line"/>
			<point x="179" y="711"/>
			<point x="114" y="662"/>
			<point x="76" y="638" type="curve"/>
			<point x="155" y="541" type="line"/>
			<point x="164" y="548"/>
			<point x="168" y="562"/>
			<point x="160" y="575" type="curve"/>
			<point x="181" y="614"/>
			<point x="217" y="693"/>
		</contour>
	</outline>
</glyph>
<glyph name="uni4FC1" format="2">
	<advance width="1000" height="1000"/>
	<unicode hex="4FC1"/>
	<note>
		cid10153
	</note>
	<outline>
		<contour>
			<point x="309" y="549" type="curve"/>
			<point x="186" y="594" type="line"/>
			<point x="133" y="524" type="line"/>
			<point x="133" y="-95" type="line"/>
			<point x="160" y="-95" type="line" smooth="yes"/>
			<point x="217" y="-95"/>
			<point x="276" y="-65"/>
			<point x="278" y="-54" type="curve"/>
			<point x="278" y="529" type="line"/>
			<point x="298" y="533"/>
			<point x="306" y="540"/>
		</contour>
		<contour>
			<point x="390" y="799" type="curve"/>
			<point x="198" y="856" type="line"/>
			<point x="163" y="661"/>
			<point x="84" y="460"/>
			<point x="5" y="332" type="curve"/>
			<point x="16" y="325" type="line"/>
			<point x="159" y="426"/>
			<point x="270" y="572"/>
			<point x="349" y="778" type="curve"/>
			<point x="372" y="777"/>
			<point x="385" y="786"/>
		</contour>
		<contour>
			<point x="813" y="579" type="line"/>
			<point x="624" y="579" type="line"/>
			<point x="624" y="551" type="line"/>
			<point x="813" y="551" type="line"/>
		</contour>
		<contour>
			<point x="510" y="736" type="curve"/>
			<point x="356" y="750" type="line"/>
			<point x="356" y="311" type="line"/>
			<point x="381" y="311" type="line" smooth="yes"/>
			<point x="427" y="311"/>
			<point x="486" y="334"/>
			<point x="486" y="343" type="curve" smooth="yes"/>
			<point x="486" y="717" type="line"/>
			<point x="503" y="720"/>
			<point x="508" y="727"/>
		</contour>
		<contour>
			<point x="780" y="440" type="line"/>
			<point x="458" y="440" type="line"/>
			<point x="458" y="412" type="line"/>
			<point x="780" y="412" type="line"/>
		</contour>
		<contour>
			<point x="912" y="320" type="curve"/>
			<point x="868" y="240" type="line"/>
			<point x="295" y="240" type="line"/>
			<point x="303" y="212" type="line"/>
			<point x="963" y="212" type="line" smooth="yes"/>
			<point x="977" y="212"/>
			<point x="986" y="217"/>
			<point x="989" y="228" type="curve"/>
			<point x="963" y="264"/>
			<point x="912" y="320"/>
		</contour>
		<contour>
			<point x="770" y="787" type="line"/>
			<point x="780" y="787" type="line"/>
			<point x="780" y="496" type="line"/>
			<point x="804" y="496" type="line" smooth="yes"/>
			<point x="847" y="496"/>
			<point x="915" y="519"/>
			<point x="916" y="526" type="curve"/>
			<point x="916" y="740" type="line"/>
			<point x="934" y="744"/>
			<point x="946" y="752"/>
			<point x="951" y="759" type="curve"/>
			<point x="829" y="850" type="line"/>
		</contour>
		<contour>
			<point x="530" y="842" type="line"/>
			<point x="530" y="787" type="line"/>
			<point x="530" y="478" type="line"/>
			<point x="554" y="478" type="line" smooth="yes"/>
			<point x="622" y="478"/>
			<point x="662" y="506"/>
			<point x="662" y="514" type="curve" smooth="yes"/>
			<point x="662" y="787" type="line"/>
			<point x="678" y="787" type="line"/>
		</contour>
		<contour>
			<point x="813" y="787" type="line"/>
			<point x="624" y="787" type="line"/>
			<point x="624" y="759" type="line"/>
			<point x="813" y="759" type="line"/>
		</contour>
		<contour>
			<point x="669" y="239" type="curve"/>
			<point x="660" y="235" type="line"/>
			<point x="693" y="69"/>
			<point x="753" y="-29"/>
			<point x="878" y="-92" type="curve"/>
			<point x="892" y="-18"/>
			<point x="929" y="30"/>
			<point x="981" y="45" type="curve"/>
			<point x="982" y="56" type="line"/>
			<point x="849" y="74"/>
			<point x="721" y="138"/>
		</contour>
		<contour>
			<point x="733" y="440" type="line"/>
			<point x="743" y="440" type="line"/>
			<point x="743" y="221" type="line"/>
			<point x="876" y="221" type="line"/>
			<point x="876" y="395" type="line"/>
			<point x="896" y="398"/>
			<point x="903" y="402"/>
			<point x="911" y="411" type="curve"/>
			<point x="783" y="499" type="line"/>
		</contour>
		<contour>
			<point x="674" y="426" type="curve"/>
			<point x="534" y="426" type="line"/>
			<point x="534" y="179"/>
			<point x="538" y="34"/>
			<point x="286" y="-82" type="curve"/>
			<point x="294" y="-95" type="line"/>
			<point x="652" y="-4"/>
			<point x="671" y="141"/>
		</contour>
	</outline>
</glyph>
<glyph name="uni506F" format="2">
	<advance width="1000" height="1000"/>
	<unicode hex="506F"/>
	<note>
		cid10439
	</note>
	<outline>
		<contour>
			<point x="345" y="796" type="curve"/>
			<point x="170" y="855" type="line"/>
			<point x="143" y="662"/>
			<point x="78" y="460"/>
			<point x="10" y="329" type="curve"/>
			<point x="21" y="321" type="line"/>
			<point x="162" y="439"/>
			<point x="248" y="600"/>
			<point x="304" y="777" type="curve"/>
			<point x="327" y="775"/>
			<point x="340" y="784"/>
		</contour>
		<contour>
			<point x="269" y="542" type="curve"/>
			<point x="153" y="584" type="line"/>
			<point x="107" y="516" type="line"/>
			<point x="107" y="-95" type="line"/>
			<point x="131" y="-95" type="line" smooth="yes"/>
			<point x="181" y="-95"/>
			<point x="236" y="-69"/>
			<point x="237" y="-60" type="curve"/>
			<point x="237" y="523" type="line"/>
			<point x="256" y="526"/>
			<point x="265" y="533"/>
		</contour>
		<contour>
			<point x="715" y="831" type="curve"/>
			<point x="543" y="844" type="line"/>
			<point x="543" y="678" type="line"/>
			<point x="683" y="678" type="line"/>
			<point x="683" y="805" type="line"/>
			<point x="707" y="809"/>
			<point x="714" y="818"/>
		</contour>
		<contour>
			<point x="854" y="787" type="curve"/>
			<point x="789" y="698" type="line"/>
			<point x="305" y="698" type="line"/>
			<point x="313" y="670" type="line"/>
			<point x="942" y="670" type="line" smooth="yes"/>
			<point x="956" y="670"/>
			<point x="967" y="675"/>
			<point x="970" y="686" type="curve"/>
			<point x="927" y="727"/>
			<point x="854" y="787"/>
		</contour>
		<contour>
			<point x="357" y="644" type="line"/>
			<point x="357" y="591" type="line"/>
			<point x="357" y="303" type="line"/>
			<point x="381" y="303" type="line" smooth="yes"/>
			<point x="429" y="303"/>
			<point x="488" y="319"/>
			<point x="488" y="334" type="curve" smooth="yes"/>
			<point x="488" y="563" type="line"/>
			<point x="803" y="563" type="line"/>
			<point x="803" y="591" type="line"/>
			<point x="498" y="591" type="line"/>
		</contour>
		<contour>
			<point x="740" y="591" type="line"/>
			<point x="743" y="591" type="line"/>
			<point x="743" y="318" type="line"/>
			<point x="768" y="318" type="line" smooth="yes"/>
			<point x="840" y="318"/>
			<point x="881" y="339"/>
			<point x="881" y="343" type="curve" smooth="yes"/>
			<point x="881" y="554" type="line"/>
			<point x="904" y="559"/>
			<point x="913" y="565"/>
			<point x="919" y="574" type="curve"/>
			<point x="802" y="661" type="line"/>
		</contour>
		<contour>
			<point x="803" y="374" type="line"/>
			<point x="428" y="374" type="line"/>
			<point x="428" y="346" type="line"/>
			<point x="803" y="346" type="line"/>
		</contour>
		<contour>
			<point x="650" y="350" type="curve"/>
			<point x="650" y="366" type="line"/>
			<point x="497" y="366" type="line"/>
			<point x="453" y="272"/>
			<point x="361" y="179"/>
			<point x="260" y="123" type="curve"/>
			<point x="268" y="110" type="line"/>
			<point x="448" y="163"/>
			<point x="585" y="249"/>
		</contour>
		<contour>
			<point x="591" y="49" type="curve"/>
			<point x="591" y="319" type="line"/>
			<point x="460" y="232" type="line"/>
			<point x="460" y="30" type="line"/>
			<point x="484" y="30" type="line" smooth="yes"/>
			<point x="551" y="30"/>
			<point x="590" y="46"/>
		</contour>
		<contour>
			<point x="321" y="46" type="curve"/>
			<point x="385" y="-100" type="line"/>
			<point x="397" y="-97"/>
			<point x="408" y="-89"/>
			<point x="414" y="-75" type="curve"/>
			<point x="559" y="-10"/>
			<point x="656" y="41"/>
			<point x="718" y="77" type="curve"/>
			<point x="717" y="88" type="line"/>
			<point x="544" y="67"/>
			<point x="392" y="51"/>
		</contour>
		<contour>
			<point x="980" y="238" type="curve"/>
			<point x="839" y="325" type="line"/>
			<point x="816" y="275"/>
			<point x="782" y="213"/>
			<point x="750" y="164" type="curve"/>
			<point x="756" y="155" type="line"/>
			<point x="804" y="171"/>
			<point x="878" y="201"/>
			<point x="949" y="233" type="curve"/>
			<point x="965" y="229"/>
			<point x="975" y="230"/>
		</contour>
		<contour>
			<point x="653" y="363" type="curve"/>
			<point x="642" y="357" type="line"/>
			<point x="679" y="132"/>
			<point x="749" y="-4"/>
			<point x="873" y="-92" type="curve"/>
			<point x="890" y="-24"/>
			<point x="930" y="20"/>
			<point x="980" y="33" type="curve"/>
			<point x="982" y="44" type="line"/>
			<point x="827" y="101"/>
			<point x="709" y="215"/>
		</contour>
	</outline>
</glyph>
<glyph name="uni515D" format="2">
	<advance width="1000" height="1000"/>
	<unicode hex="515D"/>
	<note>
		cid10877
	</note>
	<outline>
		<contour>
			<point x="857" y="786" type="curve"/>
			<point x="760" y="848" type="line"/>
			<point x="727" y="789" type="line"/>
			<point x="748" y="789" type="line"/>
			<point x="748" y="773" type="line"/>
			<point x="759" y="648"/>
			<point x="808" y="530"/>
			<point x="875" y="468" type="curve"/>
			<point x="889" y="520"/>
			<point x="928" y="566"/>
			<point x="977" y="587" type="curve"/>
			<point x="977" y="600" type="line"/>
			<point x="886" y="627"/>
			<point x="807" y="687"/>
			<point x="771" y="760" type="curve"/>
			<point x="810" y="763"/>
			<point x="845" y="772"/>
		</contour>
		<contour>
			<point x="768" y="761" type="line"/>
			<point x="768" y="789" type="line"/>
			<point x="602" y="789" type="line"/>
			<point x="611" y="761" type="line"/>
		</contour>
		<contour>
			<point x="702" y="485" type="curve"/>
			<point x="572" y="485" type="line"/>
			<point x="569" y="356"/>
			<point x="566" y="219"/>
			<point x="452" y="100" type="curve"/>
			<point x="463" y="87" type="line"/>
			<point x="657" y="187"/>
			<point x="694" y="335"/>
		</contour>
		<contour>
			<point x="912" y="467" type="curve"/>
			<point x="801" y="559" type="line"/>
			<point x="737" y="498" type="line"/>
			<point x="747" y="498" type="line"/>
			<point x="746" y="301"/>
			<point x="744" y="244"/>
			<point x="731" y="231" type="curve" smooth="yes"/>
			<point x="726" y="226"/>
			<point x="720" y="224"/>
			<point x="708" y="224" type="curve" smooth="yes"/>
			<point x="692" y="224"/>
			<point x="658" y="225"/>
			<point x="639" y="226" type="curve"/>
			<point x="639" y="215" type="line"/>
			<point x="669" y="206"/>
			<point x="685" y="195"/>
			<point x="696" y="178" type="curve" smooth="yes"/>
			<point x="708" y="161"/>
			<point x="710" y="131"/>
			<point x="710" y="93" type="curve"/>
			<point x="761" y="93"/>
			<point x="796" y="104"/>
			<point x="824" y="126" type="curve" smooth="yes"/>
			<point x="866" y="160"/>
			<point x="872" y="223"/>
			<point x="874" y="449" type="curve"/>
			<point x="894" y="453"/>
			<point x="905" y="459"/>
		</contour>
		<contour>
			<point x="807" y="470" type="line"/>
			<point x="807" y="498" type="line"/>
			<point x="524" y="498" type="line"/>
			<point x="533" y="470" type="line"/>
		</contour>
		<contour>
			<point x="720" y="700" type="curve"/>
			<point x="561" y="765" type="line"/>
			<point x="553" y="682"/>
			<point x="537" y="604"/>
			<point x="502" y="528" type="curve"/>
			<point x="480" y="473" type="line"/>
			<point x="576" y="520"/>
			<point x="642" y="604"/>
			<point x="684" y="684" type="curve"/>
			<point x="708" y="683"/>
			<point x="716" y="690"/>
		</contour>
		<contour>
			<point x="268" y="341" type="curve"/>
			<point x="143" y="341" type="line"/>
			<point x="143" y="184"/>
			<point x="127" y="39"/>
			<point x="24" y="-75" type="curve"/>
			<point x="31" y="-86" type="line"/>
			<point x="198" y="5"/>
			<point x="256" y="156"/>
		</contour>
		<contour>
			<point x="422" y="84" type="curve" smooth="yes"/>
			<point x="422" y="340" type="line"/>
			<point x="292" y="340" type="line"/>
			<point x="292" y="54" type="line" smooth="yes"/>
			<point x="292" y="-42"/>
			<point x="337" y="-58"/>
			<point x="478" y="-58" type="curve" smooth="yes"/>
			<point x="652" y="-58" type="line" smooth="yes"/>
			<point x="923" y="-58"/>
			<point x="975" y="-37"/>
			<point x="975" y="22" type="curve" smooth="yes"/>
			<point x="975" y="49"/>
			<point x="963" y="63"/>
			<point x="918" y="76" type="curve"/>
			<point x="915" y="202" type="line"/>
			<point x="905" y="202" type="line"/>
			<point x="878" y="136"/>
			<point x="861" y="99"/>
			<point x="845" y="79" type="curve" smooth="yes"/>
			<point x="835" y="68"/>
			<point x="826" y="64"/>
			<point x="803" y="62" type="curve" smooth="yes"/>
			<point x="777" y="61"/>
			<point x="722" y="60"/>
			<point x="665" y="60" type="curve" smooth="yes"/>
			<point x="483" y="60" type="line" smooth="yes"/>
			<point x="431" y="60"/>
			<point x="422" y="65"/>
		</contour>
		<contour>
			<point x="386" y="841" type="curve"/>
			<point x="212" y="855" type="line"/>
			<point x="212" y="536" type="line"/>
			<point x="349" y="536" type="line"/>
			<point x="349" y="813" type="line"/>
			<point x="377" y="817"/>
			<point x="384" y="827"/>
		</contour>
		<contour>
			<point x="438" y="785" type="curve"/>
			<point x="371" y="701" type="line"/>
			<point x="23" y="701" type="line"/>
			<point x="31" y="673" type="line"/>
			<point x="530" y="673" type="line" smooth="yes"/>
			<point x="544" y="673"/>
			<point x="555" y="677"/>
			<point x="558" y="689" type="curve"/>
			<point x="512" y="729"/>
			<point x="438" y="785"/>
		</contour>
		<contour>
			<point x="202" y="322" type="curve" smooth="yes"/>
			<point x="202" y="525" type="line"/>
			<point x="423" y="525" type="line"/>
			<point x="423" y="553" type="line"/>
			<point x="207" y="553" type="line"/>
			<point x="69" y="605" type="line"/>
			<point x="69" y="285" type="line"/>
			<point x="87" y="285" type="line" smooth="yes"/>
			<point x="142" y="285"/>
			<point x="202" y="312"/>
		</contour>
		<contour>
			<point x="425" y="324" type="line"/>
			<point x="425" y="352" type="line"/>
			<point x="142" y="352" type="line"/>
			<point x="142" y="324" type="line"/>
		</contour>
		<contour>
			<point x="528" y="527" type="curve"/>
			<point x="409" y="616" type="line"/>
			<point x="350" y="553" type="line"/>
			<point x="360" y="553" type="line"/>
			<point x="360" y="296" type="line"/>
			<point x="381" y="296" type="line" smooth="yes"/>
			<point x="428" y="296"/>
			<point x="493" y="318"/>
			<point x="495" y="325" type="curve"/>
			<point x="495" y="508" type="line"/>
			<point x="509" y="511"/>
			<point x="522" y="518"/>
		</contour>
	</outline>
</glyph>
<glyph name="uni5241" format="2">
	<advance width="1000" height="1000"/>
	<unicode hex="5241"/>
	<note>
		cid11221
	</note>
	<outline>
		<contour>
			<point x="373" y="241" type="curve"/>
			<point x="365" y="236" type="line"/>
			<point x="411" y="179"/>
			<point x="452" y="104"/>
			<point x="469" y="43" type="curve"/>
			<point x="596" y="-39"/>
			<point x="705" y="185"/>
		</contour>
		<contour>
			<point x="970" y="825" type="curve"/>
			<point x="801" y="841" type="line"/>
			<point x="801" y="68" type="line" smooth="yes"/>
			<point x="801" y="56"/>
			<point x="796" y="51"/>
			<point x="781" y="51" type="curve" smooth="yes"/>
			<point x="759" y="51"/>
			<point x="659" y="57"/>
			<point x="659" y="57" type="curve"/>
			<point x="659" y="44" type="line"/>
			<point x="710" y="35"/>
			<point x="730" y="20"/>
			<point x="746" y="0" type="curve" smooth="yes"/>
			<point x="761" y="-21"/>
			<point x="766" y="-52"/>
			<point x="769" y="-95" type="curve"/>
			<point x="914" y="-82"/>
			<point x="934" y="-33"/>
			<point x="934" y="58" type="curve" smooth="yes"/>
			<point x="934" y="797" type="line"/>
			<point x="959" y="800"/>
			<point x="969" y="810"/>
		</contour>
		<contour>
			<point x="785" y="769" type="curve"/>
			<point x="626" y="784" type="line"/>
			<point x="626" y="135" type="line"/>
			<point x="648" y="135" type="line" smooth="yes"/>
			<point x="696" y="135"/>
			<point x="749" y="159"/>
			<point x="749" y="169" type="curve" smooth="yes"/>
			<point x="749" y="741" type="line"/>
			<point x="776" y="745"/>
			<point x="783" y="755"/>
		</contour>
		<contour>
			<point x="424" y="424" type="curve"/>
			<point x="257" y="439" type="line"/>
			<point x="257" y="-94" type="line"/>
			<point x="282" y="-94" type="line" smooth="yes"/>
			<point x="332" y="-94"/>
			<point x="391" y="-68"/>
			<point x="391" y="-58" type="curve" smooth="yes"/>
			<point x="391" y="399" type="line"/>
			<point x="416" y="402"/>
			<point x="422" y="412"/>
		</contour>
		<contour>
			<point x="343" y="268" type="curve"/>
			<point x="343" y="284" type="line"/>
			<point x="195" y="284" type="line"/>
			<point x="175" y="172"/>
			<point x="110" y="56"/>
			<point x="25" y="-17" type="curve"/>
			<point x="34" y="-28" type="line"/>
			<point x="190" y="37"/>
			<point x="309" y="151"/>
		</contour>
		<contour>
			<point x="495" y="381" type="curve"/>
			<point x="431" y="294" type="line"/>
			<point x="43" y="294" type="line"/>
			<point x="51" y="266" type="line"/>
			<point x="585" y="266" type="line" smooth="yes"/>
			<point x="599" y="266"/>
			<point x="610" y="271"/>
			<point x="613" y="282" type="curve"/>
			<point x="568" y="322"/>
			<point x="495" y="381"/>
		</contour>
		<contour>
			<point x="438" y="775" type="line"/>
			<point x="205" y="775" type="line"/>
			<point x="205" y="747" type="line"/>
			<point x="438" y="747" type="line"/>
		</contour>
		<contour>
			<point x="140" y="826" type="line"/>
			<point x="140" y="775" type="line"/>
			<point x="140" y="698" type="line" smooth="yes"/>
			<point x="140" y="593"/>
			<point x="124" y="478"/>
			<point x="21" y="375" type="curve"/>
			<point x="30" y="363" type="line"/>
			<point x="232" y="456"/>
			<point x="272" y="582"/>
			<point x="272" y="697" type="curve" smooth="yes"/>
			<point x="272" y="775" type="line"/>
			<point x="292" y="775" type="line"/>
		</contour>
		<contour>
			<point x="365" y="775" type="line"/>
			<point x="376" y="775" type="line"/>
			<point x="376" y="537" type="line" smooth="yes"/>
			<point x="376" y="459"/>
			<point x="383" y="432"/>
			<point x="467" y="432" type="curve" smooth="yes"/>
			<point x="507" y="432" type="line" smooth="yes"/>
			<point x="582" y="432"/>
			<point x="622" y="459"/>
			<point x="622" y="507" type="curve" smooth="yes"/>
			<point x="622" y="531"/>
			<point x="618" y="546"/>
			<point x="594" y="560" type="curve"/>
			<point x="591" y="665" type="line"/>
			<point x="581" y="665" type="line"/>
			<point x="566" y="617"/>
			<point x="553" y="578"/>
			<point x="545" y="565" type="curve" smooth="yes"/>
			<point x="540" y="557"/>
			<point x="536" y="555"/>
			<point x="530" y="555" type="curve" smooth="yes"/>
			<point x="527" y="555"/>
			<point x="525" y="555"/>
			<point x="522" y="555" type="curve" smooth="yes"/>
			<point x="517" y="555" type="line" smooth="yes"/>
			<point x="509" y="555"/>
			<point x="507" y="558"/>
			<point x="507" y="569" type="curve" smooth="yes"/>
			<point x="507" y="738" type="line"/>
			<point x="523" y="741"/>
			<point x="532" y="746"/>
			<point x="538" y="753" type="curve"/>
			<point x="428" y="844" type="line"/>
		</contour>
	</outline>
</glyph>
<glyph name="uni53FC" format="2">
	<advance width="1000" height="1000"/>
	<unicode hex="53FC"/>
	<note>
		cid11921
	</note>
	<outline>
		<contour>
			<point x="396" y="331" type="curve"/>
			<point x="491" y="201" type="line"/>
			<point x="503" y="206"/>
			<point x="512" y="217"/>
			<point x="514" y="230" type="curve"/>
			<point x="611" y="305"/>
			<point x="714" y="396"/>
			<point x="781" y="464" type="curve"/>
			<point x="777" y="473" type="line"/>
			<point x="613" y="409"/>
			<point x="466" y="354"/>
		</contour>
		<contour>
			<point x="847" y="707" type="line"/>
			<point x="847" y="735" type="line"/>
			<point x="410" y="735" type="line"/>
			<point x="419" y="707" type="line"/>
		</contour>
		<contour>
			<point x="309" y="195" type="line"/>
			<point x="309" y="223" type="line"/>
			<point x="135" y="223" type="line"/>
			<point x="135" y="195" type="line"/>
		</contour>
		<contour>
			<point x="417" y="676" type="curve"/>
			<point x="299" y="768" type="line"/>
			<point x="239" y="703" type="line"/>
			<point x="249" y="703" type="line"/>
			<point x="249" y="102" type="line"/>
			<point x="271" y="102" type="line" smooth="yes"/>
			<point x="318" y="102"/>
			<point x="379" y="134"/>
			<point x="380" y="145" type="curve"/>
			<point x="380" y="656" type="line"/>
			<point x="399" y="660"/>
			<point x="411" y="668"/>
		</contour>
		<contour>
			<point x="185" y="96" type="curve" smooth="yes"/>
			<point x="185" y="675" type="line"/>
			<point x="316" y="675" type="line"/>
			<point x="316" y="703" type="line"/>
			<point x="189" y="703" type="line"/>
			<point x="56" y="757" type="line"/>
			<point x="56" y="51" type="line"/>
			<point x="76" y="51" type="line" smooth="yes"/>
			<point x="134" y="51"/>
			<point x="185" y="81"/>
		</contour>
		<contour>
			<point x="983" y="703" type="curve"/>
			<point x="864" y="811" type="line"/>
			<point x="790" y="735" type="line"/>
			<point x="802" y="735" type="line"/>
			<point x="797" y="308"/>
			<point x="789" y="110"/>
			<point x="751" y="74" type="curve" smooth="yes"/>
			<point x="741" y="65"/>
			<point x="730" y="60"/>
			<point x="714" y="60" type="curve" smooth="yes"/>
			<point x="689" y="60"/>
			<point x="632" y="63"/>
			<point x="591" y="67" type="curve"/>
			<point x="591" y="55" type="line"/>
			<point x="638" y="43"/>
			<point x="669" y="27"/>
			<point x="686" y="5" type="curve" smooth="yes"/>
			<point x="702" y="-13"/>
			<point x="707" y="-46"/>
			<point x="707" y="-93" type="curve"/>
			<point x="774" y="-93"/>
			<point x="823" y="-76"/>
			<point x="861" y="-35" type="curve" smooth="yes"/>
			<point x="921" y="29"/>
			<point x="931" y="188"/>
			<point x="937" y="682" type="curve"/>
			<point x="961" y="686"/>
			<point x="975" y="694"/>
		</contour>
	</outline>
</glyph>
<glyph name="uni5406" format="2">
	<advance width="1000" height="1000"/>
	<unicode hex="5406"/>
	<note>
		cid11932
	</note>
	<outline>
		<contour>
			<point x="59" y="737" type="line"/>
			<point x="59" y="69" type="line"/>
			<point x="80" y="69" type="line" smooth="yes"/>
			<point x="139" y="69"/>
			<point x="194" y="101"/>
			<point x="194" y="115" type="curve" smooth="yes"/>
			<point x="194" y="653" type="line"/>
			<point x="312" y="653" type="line"/>
			<point x="312" y="681" type="line"/>
			<point x="197" y="681" type="line"/>
		</contour>
		<contour>
			<point x="242" y="681" type="line"/>
			<point x="252" y="681" type="line"/>
			<point x="252" y="126" type="line"/>
			<point x="274" y="126" type="line" smooth="yes"/>
			<point x="319" y="126"/>
			<point x="383" y="152"/>
			<point x="384" y="160" type="curve"/>
			<point x="384" y="632" type="line"/>
			<point x="404" y="636"/>
			<point x="418" y="645"/>
			<point x="424" y="653" type="curve"/>
			<point x="302" y="747" type="line"/>
		</contour>
		<contour>
			<point x="312" y="242" type="line"/>
			<point x="134" y="242" type="line"/>
			<point x="134" y="214" type="line"/>
			<point x="312" y="214" type="line"/>
		</contour>
		<contour>
			<point x="790" y="772" type="curve"/>
			<point x="601" y="845" type="line"/>
			<point x="573" y="736"/>
			<point x="536" y="605"/>
			<point x="505" y="507" type="curve"/>
			<point x="514" y="500" type="line"/>
			<point x="586" y="562"/>
			<point x="676" y="659"/>
			<point x="747" y="753" type="curve"/>
			<point x="771" y="751"/>
			<point x="785" y="759"/>
		</contour>
		<contour>
			<point x="406" y="584" type="curve"/>
			<point x="398" y="578" type="line"/>
			<point x="447" y="527"/>
			<point x="490" y="446"/>
			<point x="499" y="372" type="curve"/>
			<point x="630" y="277"/>
			<point x="741" y="540"/>
		</contour>
		<contour>
			<point x="948" y="566" type="curve"/>
			<point x="768" y="650" type="line"/>
			<point x="704" y="471"/>
			<point x="590" y="238"/>
			<point x="472" y="44" type="curve"/>
			<point x="484" y="44" type="line"/>
			<point x="640" y="190"/>
			<point x="802" y="385"/>
			<point x="904" y="550" type="curve"/>
			<point x="929" y="546"/>
			<point x="942" y="555"/>
		</contour>
		<contour>
			<point x="349" y="114" type="curve"/>
			<point x="405" y="-58" type="line"/>
			<point x="418" y="-56"/>
			<point x="431" y="-48"/>
			<point x="438" y="-35" type="curve"/>
			<point x="593" y="15"/>
			<point x="757" y="75"/>
			<point x="863" y="121" type="curve"/>
			<point x="863" y="134" type="line"/>
			<point x="666" y="123"/>
			<point x="468" y="115"/>
		</contour>
		<contour>
			<point x="753" y="271" type="curve"/>
			<point x="744" y="266" type="line"/>
			<point x="803" y="178"/>
			<point x="845" y="64"/>
			<point x="852" y="-30" type="curve"/>
			<point x="990" y="-150"/>
			<point x="1117" y="144"/>
		</contour>
	</outline>
</glyph>
<glyph name="uni5433" format="2">
	<advance width="1000" height="1000"/>
	<unicode hex="5433"/>
	<note>
		cid12008
	</note>
	<outline>
		<contour>
			<point x="869" y="322" type="curve"/>
			<point x="801" y="225" type="line"/>
			<point x="23" y="225" type="line"/>
			<point x="31" y="197" type="line"/>
			<point x="961" y="197" type="line" smooth="yes"/>
			<point x="976" y="197"/>
			<point x="987" y="202"/>
			<point x="989" y="213" type="curve"/>
			<point x="946" y="256"/>
			<point x="869" y="322"/>
		</contour>
		<contour>
			<point x="326" y="827" type="line"/>
			<point x="326" y="772" type="line"/>
			<point x="326" y="468" type="line"/>
			<point x="346" y="468" type="line" smooth="yes"/>
			<point x="403" y="468"/>
			<point x="465" y="498"/>
			<point x="465" y="510" type="curve" smooth="yes"/>
			<point x="465" y="744" type="line"/>
			<point x="750" y="744" type="line"/>
			<point x="750" y="772" type="line"/>
			<point x="471" y="772" type="line"/>
			<point x="326" y="827" type="line"/>
		</contour>
		<contour>
			<point x="684" y="772" type="line"/>
			<point x="694" y="772" type="line"/>
			<point x="694" y="486" type="line"/>
			<point x="719" y="486" type="line" smooth="yes"/>
			<point x="764" y="486"/>
			<point x="835" y="508"/>
			<point x="836" y="515" type="curve"/>
			<point x="836" y="721" type="line"/>
			<point x="857" y="726"/>
			<point x="870" y="735"/>
			<point x="876" y="743" type="curve"/>
			<point x="746" y="840" type="line"/>
		</contour>
		<contour>
			<point x="764" y="571" type="line"/>
			<point x="394" y="571" type="line"/>
			<point x="394" y="543" type="line"/>
			<point x="764" y="543" type="line"/>
		</contour>
		<contour>
			<point x="719" y="416" type="line"/>
			<point x="191" y="416" type="line"/>
			<point x="191" y="388" type="line"/>
			<point x="719" y="388" type="line"/>
		</contour>
		<contour>
			<point x="285" y="735" type="curve"/>
			<point x="117" y="750" type="line"/>
			<point x="117" y="302" type="line"/>
			<point x="143" y="302" type="line" smooth="yes"/>
			<point x="194" y="302"/>
			<point x="257" y="326"/>
			<point x="257" y="335" type="curve" smooth="yes"/>
			<point x="257" y="713" type="line"/>
			<point x="278" y="716"/>
			<point x="283" y="725"/>
		</contour>
		<contour>
			<point x="645" y="416" type="line"/>
			<point x="655" y="416" type="line"/>
			<point x="655" y="209" type="line"/>
			<point x="797" y="209" type="line"/>
			<point x="797" y="369" type="line"/>
			<point x="818" y="373"/>
			<point x="831" y="381"/>
			<point x="837" y="389" type="curve"/>
			<point x="710" y="484" type="line"/>
		</contour>
		<contour>
			<point x="556" y="402" type="curve"/>
			<point x="386" y="402" type="line"/>
			<point x="382" y="146"/>
			<point x="353" y="0"/>
			<point x="21" y="-85" type="curve"/>
			<point x="25" y="-97" type="line"/>
			<point x="480" y="-38"/>
			<point x="548" y="110"/>
		</contour>
		<contour>
			<point x="543" y="223" type="curve"/>
			<point x="533" y="217" type="line"/>
			<point x="588" y="26"/>
			<point x="702" y="-47"/>
			<point x="878" y="-95" type="curve"/>
			<point x="891" y="-26"/>
			<point x="925" y="21"/>
			<point x="980" y="40" type="curve"/>
			<point x="979" y="51" type="line"/>
			<point x="795" y="59"/>
			<point x="616" y="90"/>
		</contour>
	</outline>
</glyph>
<glyph name="uni5478" format="2">
	<advance width="1000" height="1000"/>
	<unicode hex="5478"/>
	<note>
		cid12104
	</note>
	<outline>
		<contour>
			<point x="185" y="101" type="curve" smooth="yes"/>
			<point x="185" y="664" type="line"/>
			<point x="301" y="664" type="line"/>
			<point x="301" y="692" type="line"/>
			<point x="189" y="692" type="line"/>
			<point x="55" y="747" type="line"/>
			<point x="55" y="56" type="line"/>
			<point x="75" y="56" type="line" smooth="yes"/>
			<point x="133" y="56"/>
			<point x="185" y="86"/>
		</contour>
		<contour>
			<point x="301" y="227" type="line"/>
			<point x="301" y="255" type="line"/>
			<point x="120" y="255" type="line"/>
			<point x="120" y="227" type="line"/>
		</contour>
		<contour>
			<point x="410" y="664" type="curve"/>
			<point x="287" y="759" type="line"/>
			<point x="226" y="692" type="line"/>
			<point x="236" y="692" type="line"/>
			<point x="236" y="128" type="line"/>
			<point x="258" y="128" type="line" smooth="yes"/>
			<point x="304" y="128"/>
			<point x="369" y="155"/>
			<point x="370" y="163" type="curve"/>
			<point x="370" y="642" type="line"/>
			<point x="391" y="647"/>
			<point x="404" y="655"/>
		</contour>
		<contour>
			<point x="807" y="737" type="curve"/>
			<point x="636" y="737" type="line"/>
			<point x="572" y="551"/>
			<point x="452" y="363"/>
			<point x="325" y="249" type="curve"/>
			<point x="331" y="241" type="line"/>
			<point x="552" y="349"/>
			<point x="736" y="540"/>
		</contour>
		<contour>
			<point x="735" y="521" type="curve"/>
			<point x="569" y="535" type="line"/>
			<point x="569" y="5" type="line"/>
			<point x="596" y="5" type="line" smooth="yes"/>
			<point x="646" y="5"/>
			<point x="711" y="32"/>
			<point x="711" y="42" type="curve" smooth="yes"/>
			<point x="711" y="502" type="line"/>
			<point x="729" y="505"/>
			<point x="734" y="512"/>
		</contour>
		<contour>
			<point x="753" y="497" type="curve"/>
			<point x="744" y="491" type="line"/>
			<point x="794" y="429"/>
			<point x="842" y="339"/>
			<point x="855" y="257" type="curve"/>
			<point x="983" y="160"/>
			<point x="1093" y="420"/>
		</contour>
		<contour>
			<point x="860" y="62" type="curve"/>
			<point x="788" y="-32" type="line"/>
			<point x="314" y="-32" type="line"/>
			<point x="322" y="-60" type="line"/>
			<point x="962" y="-60" type="line" smooth="yes"/>
			<point x="976" y="-60"/>
			<point x="987" y="-55"/>
			<point x="990" y="-44" type="curve"/>
			<point x="942" y="-1"/>
			<point x="860" y="62"/>
		</contour>
		<contour>
			<point x="837" y="849" type="curve"/>
			<point x="762" y="751" type="line"/>
			<point x="358" y="751" type="line"/>
			<point x="366" y="723" type="line"/>
			<point x="943" y="723" type="line" smooth="yes"/>
			<point x="958" y="723"/>
			<point x="969" y="728"/>
			<point x="972" y="739" type="curve"/>
			<point x="922" y="783"/>
			<point x="837" y="849"/>
		</contour>
	</outline>
</glyph>
<glyph name="uni549A" format="2">
	<advance width="1000" height="1000"/>
	<unicode hex="549A"/>
	<note>
		cid12147
	</note>
	<outline>
		<contour>
			<point x="733" y="806" type="curve"/>
			<point x="550" y="855" type="line"/>
			<point x="531" y="726"/>
			<point x="466" y="578"/>
			<point x="381" y="471" type="curve"/>
			<point x="389" y="463" type="line"/>
			<point x="521" y="528"/>
			<point x="638" y="652"/>
			<point x="693" y="783" type="curve"/>
			<point x="716" y="784"/>
			<point x="729" y="793"/>
		</contour>
		<contour>
			<point x="554" y="314" type="curve"/>
			<point x="547" y="302" type="line"/>
			<point x="603" y="254"/>
			<point x="638" y="192"/>
			<point x="648" y="160" type="curve"/>
			<point x="766" y="83"/>
			<point x="890" y="326"/>
		</contour>
		<contour>
			<point x="575" y="644" type="curve"/>
			<point x="566" y="630" type="line"/>
			<point x="620" y="446"/>
			<point x="727" y="319"/>
			<point x="891" y="246" type="curve"/>
			<point x="900" y="318"/>
			<point x="926" y="364"/>
			<point x="988" y="388" type="curve"/>
			<point x="990" y="399" type="line"/>
			<point x="778" y="432"/>
			<point x="641" y="513"/>
		</contour>
		<contour>
			<point x="721" y="700" type="line"/>
			<point x="734" y="700" type="line"/>
			<point x="685" y="531"/>
			<point x="543" y="364"/>
			<point x="368" y="267" type="curve"/>
			<point x="375" y="256" type="line"/>
			<point x="600" y="314"/>
			<point x="795" y="465"/>
			<point x="880" y="648" type="curve"/>
			<point x="904" y="651"/>
			<point x="914" y="654"/>
			<point x="920" y="665" type="curve"/>
			<point x="797" y="773" type="line"/>
		</contour>
		<contour>
			<point x="787" y="700" type="line"/>
			<point x="591" y="700" type="line"/>
			<point x="578" y="672" type="line"/>
			<point x="787" y="672" type="line"/>
		</contour>
		<contour>
			<point x="57" y="768" type="line"/>
			<point x="57" y="712" type="line"/>
			<point x="57" y="72" type="line"/>
			<point x="77" y="72" type="line" smooth="yes"/>
			<point x="135" y="72"/>
			<point x="188" y="103"/>
			<point x="188" y="119" type="curve" smooth="yes"/>
			<point x="188" y="684" type="line"/>
			<point x="298" y="684" type="line"/>
			<point x="298" y="712" type="line"/>
			<point x="191" y="712" type="line"/>
		</contour>
		<contour>
			<point x="298" y="246" type="line"/>
			<point x="133" y="246" type="line"/>
			<point x="133" y="218" type="line"/>
			<point x="298" y="218" type="line"/>
		</contour>
		<contour>
			<point x="233" y="712" type="line"/>
			<point x="243" y="712" type="line"/>
			<point x="243" y="127" type="line"/>
			<point x="265" y="127" type="line" smooth="yes"/>
			<point x="311" y="127"/>
			<point x="374" y="154"/>
			<point x="376" y="163" type="curve"/>
			<point x="376" y="662" type="line"/>
			<point x="395" y="666"/>
			<point x="408" y="675"/>
			<point x="414" y="683" type="curve"/>
			<point x="293" y="781" type="line"/>
		</contour>
		<contour>
			<point x="470" y="54" type="curve"/>
			<point x="572" y="-95" type="line"/>
			<point x="581" y="-92"/>
			<point x="589" y="-81"/>
			<point x="593" y="-68" type="curve"/>
			<point x="723" y="5"/>
			<point x="849" y="91"/>
			<point x="921" y="155" type="curve"/>
			<point x="918" y="166" type="line"/>
			<point x="749" y="115"/>
			<point x="576" y="72"/>
		</contour>
	</outline>
</glyph>
<glyph name="uni552C" format="2">
	<advance width="1000" height="1000"/>
	<unicode hex="552C"/>
	<note>
		cid12356
	</note>
	<outline>
		<contour>
			<point x="59" y="771" type="line"/>
			<point x="59" y="105" type="line"/>
			<point x="77" y="105" type="line" smooth="yes"/>
			<point x="129" y="105"/>
			<point x="175" y="132"/>
			<point x="175" y="145" type="curve" smooth="yes"/>
			<point x="175" y="693" type="line"/>
			<point x="289" y="693" type="line"/>
			<point x="289" y="721" type="line"/>
			<point x="179" y="721" type="line"/>
		</contour>
		<contour>
			<point x="219" y="721" type="line"/>
			<point x="229" y="721" type="line"/>
			<point x="229" y="166" type="line"/>
			<point x="250" y="166" type="line" smooth="yes"/>
			<point x="292" y="166"/>
			<point x="351" y="191"/>
			<point x="352" y="199" type="curve"/>
			<point x="352" y="676" type="line"/>
			<point x="371" y="679"/>
			<point x="383" y="687"/>
			<point x="388" y="695" type="curve"/>
			<point x="276" y="782" type="line"/>
		</contour>
		<contour>
			<point x="294" y="273" type="line"/>
			<point x="110" y="273" type="line"/>
			<point x="110" y="245" type="line"/>
			<point x="294" y="245" type="line"/>
		</contour>
		<contour>
			<point x="744" y="843" type="curve"/>
			<point x="573" y="856" type="line"/>
			<point x="573" y="636" type="line"/>
			<point x="708" y="636" type="line"/>
			<point x="708" y="815" type="line"/>
			<point x="736" y="819"/>
			<point x="743" y="829"/>
		</contour>
		<contour>
			<point x="833" y="819" type="curve"/>
			<point x="772" y="738" type="line"/>
			<point x="648" y="738" type="line"/>
			<point x="648" y="710" type="line"/>
			<point x="916" y="710" type="line" smooth="yes"/>
			<point x="930" y="710"/>
			<point x="941" y="715"/>
			<point x="943" y="726" type="curve"/>
			<point x="902" y="764"/>
			<point x="833" y="819"/>
		</contour>
		<contour>
			<point x="865" y="643" type="line"/>
			<point x="447" y="643" type="line"/>
			<point x="447" y="615" type="line"/>
			<point x="865" y="615" type="line"/>
		</contour>
		<contour>
			<point x="803" y="643" type="line"/>
			<point x="814" y="643" type="line"/>
			<point x="814" y="615"/>
			<point x="814" y="567"/>
			<point x="813" y="538" type="curve"/>
			<point x="821" y="532" type="line"/>
			<point x="859" y="545"/>
			<point x="915" y="570"/>
			<point x="948" y="588" type="curve"/>
			<point x="968" y="589"/>
			<point x="978" y="592"/>
			<point x="986" y="600" type="curve"/>
			<point x="870" y="710" type="line"/>
		</contour>
		<contour>
			<point x="393" y="694" type="line"/>
			<point x="393" y="454" type="line" smooth="yes"/>
			<point x="393" y="284"/>
			<point x="382" y="83"/>
			<point x="271" y="-76" type="curve"/>
			<point x="280" y="-84" type="line"/>
			<point x="503" y="58"/>
			<point x="519" y="292"/>
			<point x="519" y="454" type="curve" smooth="yes"/>
			<point x="519" y="643" type="line"/>
			<point x="539" y="643" type="line"/>
		</contour>
		<contour>
			<point x="782" y="580" type="curve"/>
			<point x="732" y="507" type="line"/>
			<point x="480" y="486" type="line"/>
			<point x="491" y="455" type="line"/>
			<point x="863" y="486" type="line" smooth="yes"/>
			<point x="877" y="487"/>
			<point x="888" y="494"/>
			<point x="890" y="506" type="curve"/>
			<point x="845" y="540"/>
			<point x="782" y="580"/>
		</contour>
		<contour>
			<point x="735" y="599" type="curve"/>
			<point x="583" y="611" type="line"/>
			<point x="583" y="420" type="line" smooth="yes"/>
			<point x="583" y="345"/>
			<point x="598" y="323"/>
			<point x="693" y="323" type="curve" smooth="yes"/>
			<point x="769" y="323" type="line" smooth="yes"/>
			<point x="901" y="323"/>
			<point x="945" y="342"/>
			<point x="945" y="390" type="curve" smooth="yes"/>
			<point x="945" y="411"/>
			<point x="937" y="424"/>
			<point x="907" y="437" type="curve"/>
			<point x="902" y="489" type="line"/>
			<point x="893" y="489" type="line"/>
			<point x="879" y="463"/>
			<point x="865" y="444"/>
			<point x="857" y="437" type="curve" smooth="yes"/>
			<point x="850" y="432"/>
			<point x="841" y="430"/>
			<point x="832" y="430" type="curve" smooth="yes"/>
			<point x="822" y="429"/>
			<point x="803" y="429"/>
			<point x="784" y="429" type="curve" smooth="yes"/>
			<point x="728" y="429" type="line" smooth="yes"/>
			<point x="707" y="429"/>
			<point x="705" y="433"/>
			<point x="705" y="444" type="curve" smooth="yes"/>
			<point x="705" y="574" type="line"/>
			<point x="724" y="577"/>
			<point x="733" y="586"/>
		</contour>
		<contour>
			<point x="718" y="280" type="curve"/>
			<point x="548" y="292" type="line"/>
			<point x="545" y="171"/>
			<point x="547" y="36"/>
			<point x="419" y="-83" type="curve"/>
			<point x="429" y="-95" type="line"/>
			<point x="650" y="-1"/>
			<point x="672" y="137"/>
			<point x="685" y="254" type="curve"/>
			<point x="708" y="258"/>
			<point x="716" y="267"/>
		</contour>
		<contour>
			<point x="877" y="280" type="curve"/>
			<point x="720" y="293" type="line"/>
			<point x="720" y="27" type="line" smooth="yes"/>
			<point x="720" y="-51"/>
			<point x="728" y="-77"/>
			<point x="811" y="-77" type="curve" smooth="yes"/>
			<point x="853" y="-77" type="line" smooth="yes"/>
			<point x="942" y="-77"/>
			<point x="985" y="-47"/>
			<point x="985" y="0" type="curve" smooth="yes"/>
			<point x="985" y="24"/>
			<point x="980" y="38"/>
			<point x="953" y="53" type="curve"/>
			<point x="949" y="149" type="line"/>
			<point x="939" y="149" type="line"/>
			<point x="924" y="106"/>
			<point x="909" y="68"/>
			<point x="901" y="56" type="curve" smooth="yes"/>
			<point x="895" y="49"/>
			<point x="890" y="48"/>
			<point x="883" y="48" type="curve" smooth="yes"/>
			<point x="879" y="48"/>
			<point x="874" y="48"/>
			<point x="870" y="48" type="curve"/>
			<point x="858" y="48" type="line" smooth="yes"/>
			<point x="849" y="48"/>
			<point x="847" y="51"/>
			<point x="847" y="62" type="curve" smooth="yes"/>
			<point x="847" y="255" type="line"/>
			<point x="867" y="258"/>
			<point x="876" y="267"/>
		</contour>
	</outline>
</glyph>
<glyph name="uni5537" format="2">
	<advance width="1000" height="1000"/>
	<unicode hex="5537"/>
	<note>
		cid12374
	</note>
	<outline>
		<contour>
			<point x="180" y="103" type="curve" smooth="yes"/>
			<point x="180" y="652" type="line"/>
			<point x="278" y="652" type="line"/>
			<point x="278" y="680" type="line"/>
			<point x="184" y="680" type="line"/>
			<point x="55" y="733" type="line"/>
			<point x="55" y="60" type="line"/>
			<point x="75" y="60" type="line" smooth="yes"/>
			<point x="130" y="60"/>
			<point x="180" y="89"/>
		</contour>
		<contour>
			<point x="397" y="652" type="curve"/>
			<point x="277" y="745" type="line"/>
			<point x="218" y="680" type="line"/>
			<point x="228" y="680" type="line"/>
			<point x="228" y="121" type="line"/>
			<point x="249" y="121" type="line" smooth="yes"/>
			<point x="293" y="121"/>
			<point x="356" y="146"/>
			<point x="357" y="154" type="curve"/>
			<point x="357" y="631" type="line"/>
			<point x="377" y="635"/>
			<point x="391" y="644"/>
		</contour>
		<contour>
			<point x="278" y="209" type="line"/>
			<point x="278" y="237" type="line"/>
			<point x="130" y="237" type="line"/>
			<point x="130" y="209" type="line"/>
		</contour>
		<contour>
			<point x="755" y="842" type="curve"/>
			<point x="574" y="855" type="line"/>
			<point x="574" y="703" type="line"/>
			<point x="719" y="703" type="line"/>
			<point x="719" y="814" type="line"/>
			<point x="747" y="818"/>
			<point x="753" y="828"/>
		</contour>
		<contour>
			<point x="870" y="811" type="curve"/>
			<point x="802" y="719" type="line"/>
			<point x="356" y="719" type="line"/>
			<point x="364" y="691" type="line"/>
			<point x="963" y="691" type="line" smooth="yes"/>
			<point x="978" y="691"/>
			<point x="989" y="696"/>
			<point x="992" y="707" type="curve"/>
			<point x="947" y="749"/>
			<point x="870" y="811"/>
		</contour>
		<contour>
			<point x="714" y="706" type="curve"/>
			<point x="528" y="706" type="line"/>
			<point x="515" y="650"/>
			<point x="491" y="575"/>
			<point x="466" y="512" type="curve"/>
			<point x="484" y="512" type="line"/>
			<point x="561" y="563"/>
			<point x="650" y="638"/>
		</contour>
		<contour>
			<point x="357" y="570" type="curve"/>
			<point x="407" y="425" type="line"/>
			<point x="419" y="427"/>
			<point x="432" y="434"/>
			<point x="439" y="448" type="curve"/>
			<point x="595" y="482"/>
			<point x="763" y="525"/>
			<point x="874" y="559" type="curve"/>
			<point x="874" y="573" type="line"/>
			<point x="634" y="569"/>
			<point x="434" y="568"/>
		</contour>
		<contour>
			<point x="720" y="672" type="curve"/>
			<point x="712" y="666" type="line"/>
			<point x="769" y="612"/>
			<point x="832" y="521"/>
			<point x="854" y="446" type="curve"/>
			<point x="986" y="366"/>
			<point x="1073" y="627"/>
		</contour>
		<contour>
			<point x="570" y="-47" type="curve" smooth="yes"/>
			<point x="570" y="378" type="line"/>
			<point x="806" y="378" type="line"/>
			<point x="806" y="406" type="line"/>
			<point x="575" y="406" type="line"/>
			<point x="430" y="464" type="line"/>
			<point x="430" y="-93" type="line"/>
			<point x="451" y="-93" type="line" smooth="yes"/>
			<point x="510" y="-93"/>
			<point x="570" y="-61"/>
		</contour>
		<contour>
			<point x="938" y="377" type="curve"/>
			<point x="808" y="476" type="line"/>
			<point x="746" y="406" type="line"/>
			<point x="756" y="406" type="line"/>
			<point x="756" y="62" type="line" smooth="yes"/>
			<point x="756" y="50"/>
			<point x="752" y="44"/>
			<point x="738" y="44" type="curve" smooth="yes"/>
			<point x="715" y="44"/>
			<point x="635" y="49"/>
			<point x="635" y="49" type="curve"/>
			<point x="635" y="36" type="line"/>
			<point x="681" y="28"/>
			<point x="698" y="13"/>
			<point x="711" y="-6" type="curve" smooth="yes"/>
			<point x="725" y="-25"/>
			<point x="729" y="-55"/>
			<point x="731" y="-96" type="curve"/>
			<point x="878" y="-85"/>
			<point x="898" y="-37"/>
			<point x="898" y="49" type="curve" smooth="yes"/>
			<point x="898" y="355" type="line"/>
			<point x="919" y="359"/>
			<point x="932" y="369"/>
		</contour>
		<contour>
			<point x="806" y="261" type="line"/>
			<point x="806" y="289" type="line"/>
			<point x="520" y="289" type="line"/>
			<point x="520" y="261" type="line"/>
		</contour>
		<contour>
			<point x="806" y="140" type="line"/>
			<point x="806" y="168" type="line"/>
			<point x="520" y="168" type="line"/>
			<point x="520" y="140" type="line"/>
		</contour>
	</outline>
</glyph>
<glyph name="uni5555" format="2">
	<advance width="1000" height="1000"/>
	<unicode hex="5555"/>
	<note>
		cid12428
	</note>
	<outline>
		<contour>
			<point x="171" y="125" type="curve" smooth="yes"/>
			<point x="171" y="681" type="line"/>
			<point x="258" y="681" type="line"/>
			<point x="258" y="709" type="line"/>
			<point x="175" y="709" type="line"/>
			<point x="57" y="758" type="line"/>
			<point x="57" y="85" type="line"/>
			<point x="75" y="85" type="line" smooth="yes"/>
			<point x="126" y="85"/>
			<point x="171" y="112"/>
		</contour>
		<contour>
			<point x="367" y="683" type="curve"/>
			<point x="255" y="770" type="line"/>
			<point x="198" y="709" type="line"/>
			<point x="208" y="709" type="line"/>
			<point x="208" y="145" type="line"/>
			<point x="229" y="145" type="line" smooth="yes"/>
			<point x="271" y="145"/>
			<point x="330" y="170"/>
			<point x="331" y="179" type="curve"/>
			<point x="331" y="664" type="line"/>
			<point x="350" y="667"/>
			<point x="361" y="675"/>
		</contour>
		<contour>
			<point x="258" y="237" type="line"/>
			<point x="258" y="265" type="line"/>
			<point x="121" y="265" type="line"/>
			<point x="121" y="237" type="line"/>
		</contour>
		<contour>
			<point x="646" y="800" type="curve"/>
			<point x="463" y="862" type="line"/>
			<point x="437" y="738"/>
			<point x="375" y="594"/>
			<point x="303" y="489" type="curve"/>
			<point x="311" y="481" type="line"/>
			<point x="427" y="538"/>
			<point x="540" y="653"/>
			<point x="605" y="780" type="curve"/>
			<point x="628" y="779"/>
			<point x="642" y="787"/>
		</contour>
		<contour>
			<point x="883" y="650" type="line"/>
			<point x="883" y="678" type="line"/>
			<point x="474" y="678" type="line"/>
			<point x="460" y="650" type="line"/>
		</contour>
		<contour>
			<point x="990" y="647" type="curve"/>
			<point x="874" y="751" type="line"/>
			<point x="803" y="678" type="line"/>
			<point x="815" y="678" type="line"/>
			<point x="812" y="248"/>
			<point x="808" y="91"/>
			<point x="776" y="58" type="curve" smooth="yes"/>
			<point x="767" y="50"/>
			<point x="757" y="46"/>
			<point x="742" y="46" type="curve" smooth="yes"/>
			<point x="722" y="46"/>
			<point x="678" y="48"/>
			<point x="647" y="50" type="curve"/>
			<point x="647" y="38" type="line"/>
			<point x="686" y="28"/>
			<point x="710" y="15"/>
			<point x="725" y="-6" type="curve" smooth="yes"/>
			<point x="738" y="-24"/>
			<point x="741" y="-52"/>
			<point x="741" y="-94" type="curve"/>
			<point x="800" y="-94"/>
			<point x="848" y="-81"/>
			<point x="883" y="-43" type="curve" smooth="yes"/>
			<point x="937" y="16"/>
			<point x="942" y="142"/>
			<point x="945" y="626" type="curve"/>
			<point x="969" y="630"/>
			<point x="982" y="638"/>
		</contour>
		<contour>
			<point x="585" y="600" type="curve"/>
			<point x="433" y="645" type="line"/>
			<point x="424" y="560"/>
			<point x="399" y="474"/>
			<point x="371" y="417" type="curve"/>
			<point x="384" y="409" type="line"/>
			<point x="446" y="443"/>
			<point x="508" y="509"/>
			<point x="546" y="579" type="curve"/>
			<point x="569" y="579"/>
			<point x="581" y="588"/>
		</contour>
		<contour>
			<point x="687" y="595" type="curve"/>
			<point x="633" y="524" type="line"/>
			<point x="463" y="524" type="line"/>
			<point x="449" y="496" type="line"/>
			<point x="759" y="496" type="line" smooth="yes"/>
			<point x="773" y="496"/>
			<point x="783" y="501"/>
			<point x="786" y="512" type="curve"/>
			<point x="749" y="546"/>
			<point x="687" y="595"/>
		</contour>
		<contour>
			<point x="711" y="460" type="curve"/>
			<point x="658" y="388" type="line"/>
			<point x="342" y="388" type="line"/>
			<point x="350" y="360" type="line"/>
			<point x="782" y="360" type="line" smooth="yes"/>
			<point x="796" y="360"/>
			<point x="806" y="365"/>
			<point x="808" y="376" type="curve"/>
			<point x="772" y="410"/>
			<point x="711" y="460"/>
		</contour>
		<contour>
			<point x="627" y="122" type="line"/>
			<point x="627" y="510" type="line"/>
			<point x="516" y="510" type="line"/>
			<point x="516" y="122" type="line"/>
		</contour>
		<contour>
			<point x="497" y="320" type="curve"/>
			<point x="372" y="331" type="line"/>
			<point x="372" y="39" type="line"/>
			<point x="392" y="39" type="line" smooth="yes"/>
			<point x="428" y="39"/>
			<point x="476" y="58"/>
			<point x="476" y="66" type="curve" smooth="yes"/>
			<point x="476" y="302" type="line"/>
			<point x="491" y="305"/>
			<point x="495" y="311"/>
		</contour>
		<contour>
			<point x="715" y="108" type="line"/>
			<point x="715" y="136" type="line"/>
			<point x="426" y="136" type="line"/>
			<point x="426" y="108" type="line"/>
		</contour>
		<contour>
			<point x="786" y="320" type="curve"/>
			<point x="665" y="331" type="line"/>
			<point x="665" y="76" type="line"/>
			<point x="681" y="76" type="line" smooth="yes"/>
			<point x="717" y="76"/>
			<point x="765" y="101"/>
			<point x="765" y="112" type="curve" smooth="yes"/>
			<point x="765" y="303" type="line"/>
			<point x="780" y="306"/>
			<point x="784" y="312"/>
		</contour>
	</outline>
</glyph>
<glyph name="uni55E1" format="2">
	<advance width="1000" height="1000"/>
	<unicode hex="55E1"/>
	<note>
		cid12671
	</note>
	<outline>
		<contour>
			<point x="171" y="87" type="curve" smooth="yes"/>
			<point x="171" y="663" type="line"/>
			<point x="316" y="663" type="line"/>
			<point x="316" y="691" type="line"/>
			<point x="174" y="691" type="line"/>
			<point x="57" y="740" type="line"/>
			<point x="57" y="47" type="line"/>
			<point x="75" y="47" type="line" smooth="yes"/>
			<point x="126" y="47"/>
			<point x="171" y="74"/>
		</contour>
		<contour>
			<point x="275" y="212" type="line"/>
			<point x="275" y="240" type="line"/>
			<point x="115" y="240" type="line"/>
			<point x="115" y="212" type="line"/>
		</contour>
		<contour>
			<point x="363" y="665" type="curve"/>
			<point x="255" y="750" type="line"/>
			<point x="200" y="691" type="line"/>
			<point x="210" y="691" type="line"/>
			<point x="210" y="111" type="line"/>
			<point x="229" y="111" type="line" smooth="yes"/>
			<point x="270" y="111"/>
			<point x="326" y="135"/>
			<point x="327" y="143" type="curve"/>
			<point x="327" y="646" type="line"/>
			<point x="345" y="650"/>
			<point x="358" y="658"/>
		</contour>
		<contour>
			<point x="594" y="759" type="curve"/>
			<point x="443" y="838" type="line"/>
			<point x="427" y="769"/>
			<point x="385" y="667"/>
			<point x="333" y="602" type="curve"/>
			<point x="341" y="591" type="line"/>
			<point x="429" y="627"/>
			<point x="507" y="687"/>
			<point x="557" y="745" type="curve"/>
			<point x="580" y="742"/>
			<point x="589" y="749"/>
		</contour>
		<contour>
			<point x="375" y="568" type="curve"/>
			<point x="435" y="431" type="line"/>
			<point x="446" y="433"/>
			<point x="457" y="440"/>
			<point x="464" y="453" type="curve"/>
			<point x="617" y="501"/>
			<point x="717" y="536"/>
			<point x="785" y="564" type="curve"/>
			<point x="784" y="577" type="line"/>
			<point x="613" y="571"/>
			<point x="448" y="567"/>
		</contour>
		<contour>
			<point x="674" y="636" type="curve"/>
			<point x="666" y="630" type="line"/>
			<point x="702" y="591"/>
			<point x="746" y="530"/>
			<point x="764" y="475" type="curve"/>
			<point x="881" y="410"/>
			<point x="962" y="627"/>
		</contour>
		<contour>
			<point x="559" y="413" type="line"/>
			<point x="357" y="413" type="line"/>
			<point x="366" y="385" type="line"/>
			<point x="559" y="385" type="line"/>
		</contour>
		<contour>
			<point x="503" y="413" type="line"/>
			<point x="513" y="413" type="line"/>
			<point x="513" y="44" type="line" smooth="yes"/>
			<point x="513" y="32"/>
			<point x="509" y="25"/>
			<point x="494" y="25" type="curve" smooth="yes"/>
			<point x="470" y="25"/>
			<point x="384" y="31"/>
			<point x="384" y="31" type="curve"/>
			<point x="384" y="18" type="line"/>
			<point x="429" y="10"/>
			<point x="448" y="-3"/>
			<point x="463" y="-19" type="curve" smooth="yes"/>
			<point x="477" y="-34"/>
			<point x="481" y="-61"/>
			<point x="484" y="-96" type="curve"/>
			<point x="612" y="-85"/>
			<point x="629" y="-42"/>
			<point x="629" y="33" type="curve" smooth="yes"/>
			<point x="629" y="365" type="line"/>
			<point x="650" y="369"/>
			<point x="664" y="378"/>
			<point x="670" y="386" type="curve"/>
			<point x="555" y="473" type="line"/>
		</contour>
		<contour>
			<point x="887" y="413" type="line"/>
			<point x="666" y="413" type="line"/>
			<point x="675" y="385" type="line"/>
			<point x="887" y="385" type="line"/>
		</contour>
		<contour>
			<point x="808" y="413" type="line"/>
			<point x="818" y="413" type="line"/>
			<point x="818" y="48" type="line" smooth="yes"/>
			<point x="818" y="36"/>
			<point x="814" y="30"/>
			<point x="799" y="30" type="curve" smooth="yes"/>
			<point x="775" y="30"/>
			<point x="688" y="35"/>
			<point x="688" y="35" type="curve"/>
			<point x="688" y="22" type="line"/>
			<point x="734" y="14"/>
			<point x="753" y="1"/>
			<point x="767" y="-16" type="curve" smooth="yes"/>
			<point x="782" y="-34"/>
			<point x="786" y="-59"/>
			<point x="789" y="-95" type="curve"/>
			<point x="920" y="-84"/>
			<point x="938" y="-40"/>
			<point x="938" y="37" type="curve" smooth="yes"/>
			<point x="938" y="365" type="line"/>
			<point x="959" y="368"/>
			<point x="973" y="378"/>
			<point x="979" y="386" type="curve"/>
			<point x="862" y="474" type="line"/>
		</contour>
		<contour>
			<point x="737" y="685" type="curve"/>
			<point x="553" y="727" type="line"/>
			<point x="538" y="673"/>
			<point x="507" y="599"/>
			<point x="483" y="555" type="curve"/>
			<point x="491" y="549" type="line"/>
			<point x="561" y="578"/>
			<point x="640" y="629"/>
			<point x="699" y="671" type="curve"/>
			<point x="726" y="669"/>
			<point x="734" y="674"/>
		</contour>
		<contour>
			<point x="705" y="797" type="line"/>
			<point x="725" y="797" type="line"/>
			<point x="725" y="781" type="line"/>
			<point x="746" y="703"/>
			<point x="805" y="624"/>
			<point x="879" y="577" type="curve"/>
			<point x="890" y="631"/>
			<point x="934" y="679"/>
			<point x="982" y="698" type="curve"/>
			<point x="980" y="712" type="line"/>
			<point x="889" y="716"/>
			<point x="796" y="739"/>
			<point x="749" y="771" type="curve"/>
			<point x="784" y="775"/>
			<point x="821" y="784"/>
			<point x="831" y="797" type="curve"/>
			<point x="737" y="855" type="line"/>
		</contour>
		<contour>
			<point x="739" y="797" type="line"/>
			<point x="579" y="797" type="line"/>
			<point x="586" y="774" type="line"/>
			<point x="739" y="774" type="line"/>
		</contour>
		<contour>
			<point x="546" y="322" type="curve"/>
			<point x="417" y="396" type="line"/>
			<point x="393" y="325"/>
			<point x="354" y="250"/>
			<point x="315" y="201" type="curve"/>
			<point x="325" y="190" type="line"/>
			<point x="387" y="216"/>
			<point x="458" y="262"/>
			<point x="509" y="309" type="curve"/>
			<point x="529" y="305"/>
			<point x="539" y="308"/>
		</contour>
		<contour>
			<point x="597" y="166" type="curve"/>
			<point x="458" y="252" type="line"/>
			<point x="431" y="192"/>
			<point x="370" y="100"/>
			<point x="309" y="42" type="curve"/>
			<point x="318" y="32" type="line"/>
			<point x="412" y="61"/>
			<point x="505" y="108"/>
			<point x="559" y="155" type="curve"/>
			<point x="582" y="151"/>
			<point x="591" y="156"/>
		</contour>
		<contour>
			<point x="855" y="318" type="curve"/>
			<point x="725" y="396" type="line"/>
			<point x="706" y="337"/>
			<point x="675" y="275"/>
			<point x="646" y="237" type="curve"/>
			<point x="655" y="226" type="line"/>
			<point x="715" y="245"/>
			<point x="776" y="276"/>
			<point x="817" y="307" type="curve"/>
			<point x="840" y="303"/>
			<point x="850" y="308"/>
		</contour>
		<contour>
			<point x="911" y="172" type="curve"/>
			<point x="770" y="261" type="line"/>
			<point x="748" y="208"/>
			<point x="696" y="126"/>
			<point x="645" y="74" type="curve"/>
			<point x="653" y="64" type="line"/>
			<point x="733" y="85"/>
			<point x="818" y="123"/>
			<point x="873" y="161" type="curve"/>
			<point x="896" y="157"/>
			<point x="905" y="163"/>
		</contour>
	</outline>
</glyph>
<glyph name="uni5A1B" format="2">
	<advance width="1000" height="1000"/>
	<unicode hex="5A1B"/>
	<note>
		cid14598
	</note>
	<outline>
		<contour>
			<point x="844" y="554" type="line"/>
			<point x="651" y="554" type="line"/>
			<point x="651" y="526" type="line"/>
			<point x="844" y="526" type="line"/>
		</contour>
		<contour>
			<point x="793" y="410" type="line"/>
			<point x="490" y="410" type="line"/>
			<point x="490" y="382" type="line"/>
			<point x="793" y="382" type="line"/>
		</contour>
		<contour>
			<point x="778" y="771" type="line"/>
			<point x="788" y="771" type="line"/>
			<point x="788" y="476" type="line"/>
			<point x="812" y="476" type="line" smooth="yes"/>
			<point x="858" y="476"/>
			<point x="925" y="503"/>
			<point x="925" y="511" type="curve" smooth="yes"/>
			<point x="925" y="721" type="line"/>
			<point x="946" y="725"/>
			<point x="959" y="734"/>
			<point x="965" y="742" type="curve"/>
			<point x="839" y="837" type="line"/>
		</contour>
		<contour>
			<point x="586" y="822" type="line"/>
			<point x="586" y="771" type="line"/>
			<point x="586" y="446" type="line"/>
			<point x="604" y="446" type="line" smooth="yes"/>
			<point x="658" y="446"/>
			<point x="714" y="474"/>
			<point x="714" y="486" type="curve" smooth="yes"/>
			<point x="714" y="743" type="line"/>
			<point x="872" y="743" type="line"/>
			<point x="872" y="771" type="line"/>
			<point x="718" y="771" type="line"/>
			<point x="586" y="822" type="line"/>
		</contour>
		<contour>
			<point x="568" y="753" type="curve"/>
			<point x="420" y="766" type="line"/>
			<point x="420" y="286" type="line"/>
			<point x="441" y="286" type="line" smooth="yes"/>
			<point x="485" y="286"/>
			<point x="540" y="312"/>
			<point x="540" y="323" type="curve" smooth="yes"/>
			<point x="540" y="731" type="line"/>
			<point x="560" y="734"/>
			<point x="566" y="742"/>
		</contour>
		<contour>
			<point x="731" y="410" type="line"/>
			<point x="741" y="410" type="line"/>
			<point x="741" y="212" type="line"/>
			<point x="870" y="212" type="line"/>
			<point x="870" y="366" type="line"/>
			<point x="888" y="370"/>
			<point x="900" y="377"/>
			<point x="906" y="385" type="curve"/>
			<point x="790" y="470" type="line"/>
		</contour>
		<contour>
			<point x="911" y="316" type="curve"/>
			<point x="860" y="221" type="line"/>
			<point x="371" y="221" type="line"/>
			<point x="379" y="193" type="line"/>
			<point x="973" y="193" type="line" smooth="yes"/>
			<point x="986" y="193"/>
			<point x="996" y="198"/>
			<point x="999" y="209" type="curve"/>
			<point x="970" y="250"/>
			<point x="911" y="316"/>
		</contour>
		<contour>
			<point x="710" y="396" type="curve"/>
			<point x="569" y="396" type="line"/>
			<point x="569" y="171"/>
			<point x="531" y="5"/>
			<point x="312" y="-83" type="curve"/>
			<point x="319" y="-95" type="line"/>
			<point x="638" y="-27"/>
			<point x="705" y="131"/>
		</contour>
		<contour>
			<point x="705" y="220" type="curve"/>
			<point x="690" y="210" type="line"/>
			<point x="726" y="72"/>
			<point x="789" y="-35"/>
			<point x="889" y="-92" type="curve"/>
			<point x="893" y="-33"/>
			<point x="929" y="13"/>
			<point x="987" y="54" type="curve"/>
			<point x="988" y="69" type="line"/>
			<point x="876" y="77"/>
			<point x="755" y="111"/>
		</contour>
		<contour>
			<point x="325" y="613" type="line"/>
			<point x="22" y="613" type="line"/>
			<point x="31" y="585" type="line"/>
			<point x="325" y="585" type="line"/>
		</contour>
		<contour>
			<point x="281" y="820" type="curve"/>
			<point x="123" y="854" type="line"/>
			<point x="116" y="711"/>
			<point x="61" y="348"/>
			<point x="20" y="180" type="curve"/>
			<point x="74" y="167"/>
			<point x="124" y="172"/>
			<point x="146" y="189" type="curve"/>
			<point x="181" y="355"/>
			<point x="227" y="673"/>
			<point x="241" y="797" type="curve"/>
			<point x="267" y="797"/>
			<point x="277" y="807"/>
		</contour>
		<contour>
			<point x="143" y="271" type="curve"/>
			<point x="135" y="264" type="line"/>
			<point x="207" y="209"/>
			<point x="286" y="116"/>
			<point x="316" y="34" type="curve"/>
			<point x="444" y="-36"/>
			<point x="512" y="224"/>
		</contour>
		<contour>
			<point x="252" y="613" type="line"/>
			<point x="264" y="613" type="line"/>
			<point x="257" y="344"/>
			<point x="225" y="85"/>
			<point x="20" y="-72" type="curve"/>
			<point x="29" y="-83" type="line"/>
			<point x="329" y="53"/>
			<point x="373" y="304"/>
			<point x="392" y="563" type="curve"/>
			<point x="414" y="567"/>
			<point x="423" y="571"/>
			<point x="430" y="582" type="curve"/>
			<point x="315" y="681" type="line"/>
		</contour>
	</outline>
</glyph>
<glyph name="uni5BF3" format="2">
	<advance width="1000" height="1000"/>
	<unicode hex="5BF3"/>
	<note>
		cid15651
	</note>
	<outline>
		<contour>
			<point x="75" y="497" type="curve"/>
			<point x="129" y="380" type="line"/>
			<point x="140" y="382"/>
			<point x="151" y="389"/>
			<point x="157" y="402" type="curve"/>
			<point x="307" y="447"/>
			<point x="410" y="480"/>
			<point x="480" y="506" type="curve"/>
			<point x="479" y="520" type="line"/>
			<point x="310" y="508"/>
			<point x="147" y="499"/>
		</contour>
		<contour>
			<point x="393" y="729" type="curve"/>
			<point x="344" y="669" type="line"/>
			<point x="131" y="669" type="line"/>
			<point x="139" y="641" type="line"/>
			<point x="459" y="641" type="line" smooth="yes"/>
			<point x="473" y="641"/>
			<point x="482" y="646"/>
			<point x="485" y="657" type="curve"/>
			<point x="450" y="688"/>
			<point x="393" y="729"/>
		</contour>
		<contour>
			<point x="393" y="636" type="curve"/>
			<point x="351" y="586" type="line"/>
			<point x="143" y="586" type="line"/>
			<point x="151" y="558" type="line"/>
			<point x="445" y="558" type="line" smooth="yes"/>
			<point x="458" y="558"/>
			<point x="468" y="563"/>
			<point x="470" y="574" type="curve"/>
			<point x="440" y="601"/>
			<point x="393" y="636"/>
		</contour>
		<contour>
			<point x="772" y="578" type="curve"/>
			<point x="765" y="570" type="line"/>
			<point x="806" y="537"/>
			<point x="836" y="487"/>
			<point x="843" y="439" type="curve"/>
			<point x="948" y="373"/>
			<point x="1035" y="569"/>
		</contour>
		<contour>
			<point x="349" y="669" type="line"/>
			<point x="229" y="669" type="line"/>
			<point x="229" y="473" type="line"/>
			<point x="349" y="493" type="line"/>
		</contour>
		<contour>
			<point x="691" y="690" type="curve"/>
			<point x="546" y="731" type="line"/>
			<point x="533" y="663"/>
			<point x="498" y="588"/>
			<point x="452" y="545" type="curve"/>
			<point x="461" y="537" type="line"/>
			<point x="545" y="566"/>
			<point x="612" y="620"/>
			<point x="655" y="679" type="curve"/>
			<point x="680" y="676"/>
			<point x="687" y="680"/>
		</contour>
		<contour>
			<point x="757" y="503" type="curve" smooth="yes"/>
			<point x="757" y="642" type="line"/>
			<point x="642" y="642" type="line"/>
			<point x="642" y="505" type="line" smooth="yes"/>
			<point x="642" y="497"/>
			<point x="640" y="490"/>
			<point x="628" y="490" type="curve" smooth="yes"/>
			<point x="614" y="490"/>
			<point x="575" y="492"/>
			<point x="575" y="492" type="curve"/>
			<point x="575" y="479" type="line"/>
			<point x="604" y="475"/>
			<point x="614" y="465"/>
			<point x="621" y="457" type="curve" smooth="yes"/>
			<point x="629" y="447"/>
			<point x="631" y="430"/>
			<point x="632" y="408" type="curve"/>
			<point x="742" y="415"/>
			<point x="757" y="437"/>
		</contour>
		<contour>
			<point x="658" y="544" type="curve"/>
			<point x="535" y="597" type="line"/>
			<point x="512" y="534"/>
			<point x="470" y="467"/>
			<point x="426" y="425" type="curve"/>
			<point x="436" y="413" type="line"/>
			<point x="502" y="433"/>
			<point x="572" y="477"/>
			<point x="619" y="527" type="curve"/>
			<point x="640" y="525"/>
			<point x="653" y="533"/>
		</contour>
		<contour>
			<point x="734" y="296" type="line"/>
			<point x="240" y="296" type="line"/>
			<point x="240" y="268" type="line"/>
			<point x="734" y="268" type="line"/>
		</contour>
		<contour>
			<point x="734" y="203" type="line"/>
			<point x="240" y="203" type="line"/>
			<point x="240" y="175" type="line"/>
			<point x="734" y="175" type="line"/>
		</contour>
		<contour>
			<point x="734" y="108" type="line"/>
			<point x="240" y="108" type="line"/>
			<point x="240" y="80" type="line"/>
			<point x="734" y="80" type="line"/>
		</contour>
		<contour>
			<point x="645" y="387" type="line"/>
			<point x="654" y="387" type="line"/>
			<point x="654" y="46" type="line"/>
			<point x="679" y="46" type="line" smooth="yes"/>
			<point x="725" y="46"/>
			<point x="795" y="71"/>
			<point x="796" y="79" type="curve"/>
			<point x="796" y="343" type="line"/>
			<point x="813" y="346"/>
			<point x="822" y="353"/>
			<point x="827" y="359" type="curve"/>
			<point x="705" y="451" type="line"/>
		</contour>
		<contour>
			<point x="215" y="443" type="line"/>
			<point x="215" y="387" type="line"/>
			<point x="215" y="34" type="line"/>
			<point x="235" y="34" type="line" smooth="yes"/>
			<point x="293" y="34"/>
			<point x="355" y="65"/>
			<point x="355" y="77" type="curve" smooth="yes"/>
			<point x="355" y="359" type="line"/>
			<point x="776" y="359" type="line"/>
			<point x="776" y="387" type="line"/>
			<point x="363" y="387" type="line"/>
		</contour>
		<contour>
			<point x="510" y="-15" type="curve"/>
			<point x="374" y="83" type="line"/>
			<point x="306" y="22"/>
			<point x="165" y="-48"/>
			<point x="30" y="-81" type="curve"/>
			<point x="33" y="-94" type="line"/>
			<point x="185" y="-93"/>
			<point x="349" y="-67"/>
			<point x="448" y="-22" type="curve"/>
			<point x="480" y="-30"/>
			<point x="500" y="-25"/>
		</contour>
		<contour>
			<point x="547" y="51" type="curve"/>
			<point x="544" y="39" type="line"/>
			<point x="666" y="10"/>
			<point x="750" y="-40"/>
			<point x="795" y="-75" type="curve" smooth="yes"/>
			<point x="916" y="-161"/>
			<point x="1155" y="69"/>
		</contour>
		<contour>
			<point x="857" y="755" type="line"/>
			<point x="157" y="755" type="line"/>
			<point x="157" y="727" type="line"/>
			<point x="857" y="727" type="line"/>
		</contour>
		<contour>
			<point x="609" y="846" type="curve"/>
			<point x="423" y="859" type="line"/>
			<point x="423" y="738" type="line"/>
			<point x="573" y="738" type="line"/>
			<point x="573" y="817" type="line"/>
			<point x="601" y="822"/>
			<point x="608" y="832"/>
		</contour>
		<contour>
			<point x="178" y="809" type="curve"/>
			<point x="165" y="809" type="line"/>
			<point x="166" y="775"/>
			<point x="131" y="743"/>
			<point x="101" y="732" type="curve" smooth="yes"/>
			<point x="66" y="718"/>
			<point x="39" y="689"/>
			<point x="49" y="648" type="curve" smooth="yes"/>
			<point x="60" y="604"/>
			<point x="109" y="589"/>
			<point x="144" y="605" type="curve" smooth="yes"/>
			<point x="194" y="627"/>
			<point x="223" y="704"/>
		</contour>
		<contour>
			<point x="786" y="755" type="line"/>
			<point x="797" y="755" type="line"/>
			<point x="795" y="721"/>
			<point x="789" y="679"/>
			<point x="781" y="647" type="curve"/>
			<point x="789" y="641" type="line"/>
			<point x="837" y="656"/>
			<point x="890" y="680"/>
			<point x="928" y="701" type="curve"/>
			<point x="949" y="702"/>
			<point x="959" y="704"/>
			<point x="967" y="713" type="curve"/>
			<point x="852" y="821" type="line"/>
		</contour>
		<contour>
			<point x="858" y="651" type="line"/>
			<point x="570" y="651" type="line"/>
			<point x="570" y="623" type="line"/>
			<point x="858" y="623" type="line"/>
		</contour>
		<contour>
			<point x="783" y="651" type="line"/>
			<point x="794" y="651" type="line"/>
			<point x="793" y="632"/>
			<point x="788" y="599"/>
			<point x="783" y="580" type="curve"/>
			<point x="795" y="573" type="line"/>
			<point x="824" y="579"/>
			<point x="862" y="592"/>
			<point x="885" y="606" type="curve"/>
			<point x="904" y="607"/>
			<point x="914" y="609"/>
			<point x="922" y="617" type="curve"/>
			<point x="832" y="702" type="line"/>
		</contour>
	</outline>
</glyph>
<glyph name="uni609E" format="2">
	<advance width="1000" height="1000"/>
	<unicode hex="609E"/>
	<note>
		cid17856
	</note>
	<outline>
		<contour>
			<point x="562" y="832" type="line"/>
			<point x="562" y="780" type="line"/>
			<point x="562" y="492" type="line"/>
			<point x="580" y="492" type="line" smooth="yes"/>
			<point x="634" y="492"/>
			<point x="692" y="520"/>
			<point x="692" y="531" type="curve" smooth="yes"/>
			<point x="692" y="752" type="line"/>
			<point x="833" y="752" type="line"/>
			<point x="833" y="780" type="line"/>
			<point x="696" y="780" type="line"/>
			<point x="562" y="832" type="line"/>
		</contour>
		<contour>
			<point x="770" y="780" type="line"/>
			<point x="780" y="780" type="line"/>
			<point x="780" y="506" type="line"/>
			<point x="803" y="506" type="line" smooth="yes"/>
			<point x="848" y="506"/>
			<point x="914" y="532"/>
			<point x="915" y="540" type="curve"/>
			<point x="915" y="730" type="line"/>
			<point x="936" y="734"/>
			<point x="949" y="744"/>
			<point x="955" y="751" type="curve"/>
			<point x="830" y="845" type="line"/>
		</contour>
		<contour>
			<point x="840" y="580" type="line"/>
			<point x="637" y="580" type="line"/>
			<point x="637" y="552" type="line"/>
			<point x="840" y="552" type="line"/>
		</contour>
		<contour>
			<point x="795" y="439" type="line"/>
			<point x="468" y="439" type="line"/>
			<point x="468" y="411" type="line"/>
			<point x="795" y="411" type="line"/>
		</contour>
		<contour>
			<point x="543" y="763" type="curve"/>
			<point x="391" y="776" type="line"/>
			<point x="391" y="310" type="line"/>
			<point x="412" y="310" type="line" smooth="yes"/>
			<point x="458" y="310"/>
			<point x="515" y="336"/>
			<point x="515" y="347" type="curve" smooth="yes"/>
			<point x="515" y="740" type="line"/>
			<point x="536" y="744"/>
			<point x="541" y="752"/>
		</contour>
		<contour>
			<point x="733" y="439" type="line"/>
			<point x="743" y="439" type="line"/>
			<point x="743" y="219" type="line"/>
			<point x="872" y="219" type="line"/>
			<point x="872" y="395" type="line"/>
			<point x="890" y="399"/>
			<point x="902" y="407"/>
			<point x="907" y="414" type="curve"/>
			<point x="792" y="499" type="line"/>
		</contour>
		<contour>
			<point x="910" y="318" type="curve"/>
			<point x="859" y="225" type="line"/>
			<point x="319" y="225" type="line"/>
			<point x="327" y="197" type="line"/>
			<point x="971" y="197" type="line" smooth="yes"/>
			<point x="985" y="197"/>
			<point x="995" y="202"/>
			<point x="997" y="213" type="curve"/>
			<point x="969" y="253"/>
			<point x="910" y="318"/>
		</contour>
		<contour>
			<point x="685" y="224" type="curve"/>
			<point x="672" y="220" type="line"/>
			<point x="690" y="120"/>
			<point x="749" y="-26"/>
			<point x="891" y="-89" type="curve"/>
			<point x="895" y="-13"/>
			<point x="928" y="17"/>
			<point x="990" y="32" type="curve"/>
			<point x="990" y="45" type="line"/>
			<point x="809" y="80"/>
			<point x="710" y="150"/>
		</contour>
		<contour>
			<point x="332" y="837" type="curve"/>
			<point x="155" y="854" type="line"/>
			<point x="155" y="-95" type="line"/>
			<point x="183" y="-95" type="line" smooth="yes"/>
			<point x="236" y="-95"/>
			<point x="295" y="-68"/>
			<point x="295" y="-57" type="curve" smooth="yes"/>
			<point x="295" y="808" type="line"/>
			<point x="323" y="812"/>
			<point x="330" y="823"/>
		</contour>
		<contour>
			<point x="107" y="675" type="curve"/>
			<point x="92" y="675" type="line"/>
			<point x="99" y="608"/>
			<point x="70" y="533"/>
			<point x="45" y="503" type="curve"/>
			<point x="19" y="482"/>
			<point x="6" y="451"/>
			<point x="23" y="422" type="curve" smooth="yes"/>
			<point x="43" y="390"/>
			<point x="93" y="392"/>
			<point x="116" y="423" type="curve" smooth="yes"/>
			<point x="148" y="468"/>
			<point x="156" y="558"/>
		</contour>
		<contour>
			<point x="296" y="688" type="curve"/>
			<point x="285" y="683" type="line"/>
			<point x="303" y="643"/>
			<point x="321" y="583"/>
			<point x="318" y="533" type="curve"/>
			<point x="390" y="460"/>
			<point x="490" y="606"/>
		</contour>
		<contour>
			<point x="694" y="425" type="curve"/>
			<point x="554" y="425" type="line"/>
			<point x="554" y="178"/>
			<point x="558" y="34"/>
			<point x="298" y="-82" type="curve"/>
			<point x="305" y="-95" type="line"/>
			<point x="673" y="-4"/>
			<point x="689" y="140"/>
		</contour>
	</outline>
</glyph>
<glyph name="uni60E6" format="2">
	<advance width="1000" height="1000"/>
	<unicode hex="60E6"/>
	<note>
		cid17969
	</note>
	<outline>
		<contour>
			<point x="280" y="688" type="curve"/>
			<point x="269" y="683" type="line"/>
			<point x="288" y="643"/>
			<point x="305" y="582"/>
			<point x="303" y="530" type="curve"/>
			<point x="377" y="455"/>
			<point x="480" y="606"/>
		</contour>
		<contour>
			<point x="100" y="675" type="curve"/>
			<point x="85" y="675" type="line"/>
			<point x="92" y="605"/>
			<point x="66" y="525"/>
			<point x="41" y="494" type="curve"/>
			<point x="17" y="473"/>
			<point x="6" y="443"/>
			<point x="22" y="417" type="curve" smooth="yes"/>
			<point x="42" y="388"/>
			<point x="89" y="394"/>
			<point x="110" y="425" type="curve" smooth="yes"/>
			<point x="139" y="469"/>
			<point x="147" y="559"/>
		</contour>
		<contour>
			<point x="317" y="838" type="curve"/>
			<point x="149" y="854" type="line"/>
			<point x="149" y="-95" type="line"/>
			<point x="176" y="-95" type="line" smooth="yes"/>
			<point x="225" y="-95"/>
			<point x="280" y="-70"/>
			<point x="280" y="-59" type="curve" smooth="yes"/>
			<point x="280" y="809" type="line"/>
			<point x="308" y="813"/>
			<point x="315" y="823"/>
		</contour>
		<contour>
			<point x="488" y="334" type="line"/>
			<point x="488" y="279" type="line"/>
			<point x="488" y="-93" type="line"/>
			<point x="512" y="-93" type="line" smooth="yes"/>
			<point x="580" y="-93"/>
			<point x="621" y="-72"/>
			<point x="621" y="-63" type="curve" smooth="yes"/>
			<point x="621" y="251" type="line"/>
			<point x="794" y="251" type="line"/>
			<point x="794" y="-77" type="line"/>
			<point x="818" y="-77" type="line" smooth="yes"/>
			<point x="891" y="-77"/>
			<point x="934" y="-54"/>
			<point x="934" y="-49" type="curve" smooth="yes"/>
			<point x="934" y="242" type="line"/>
			<point x="957" y="246"/>
			<point x="967" y="252"/>
			<point x="973" y="261" type="curve"/>
			<point x="854" y="351" type="line"/>
			<point x="790" y="279" type="line"/>
			<point x="632" y="279" type="line"/>
		</contour>
		<contour>
			<point x="879" y="31" type="line"/>
			<point x="546" y="31" type="line"/>
			<point x="546" y="3" type="line"/>
			<point x="879" y="3" type="line"/>
		</contour>
		<contour>
			<point x="797" y="635" type="curve"/>
			<point x="628" y="649" type="line"/>
			<point x="628" y="270" type="line"/>
			<point x="761" y="270" type="line"/>
			<point x="761" y="607" type="line"/>
			<point x="788" y="611"/>
			<point x="795" y="621"/>
		</contour>
		<contour>
			<point x="854" y="558" type="curve"/>
			<point x="788" y="468" type="line"/>
			<point x="692" y="468" type="line"/>
			<point x="692" y="440" type="line"/>
			<point x="944" y="440" type="line" smooth="yes"/>
			<point x="958" y="440"/>
			<point x="969" y="445"/>
			<point x="972" y="456" type="curve"/>
			<point x="928" y="497"/>
			<point x="854" y="558"/>
		</contour>
		<contour>
			<point x="765" y="832" type="curve"/>
			<point x="592" y="845" type="line"/>
			<point x="592" y="682" type="line"/>
			<point x="729" y="682" type="line"/>
			<point x="729" y="804" type="line"/>
			<point x="757" y="808"/>
			<point x="764" y="818"/>
		</contour>
		<contour>
			<point x="858" y="794" type="curve"/>
			<point x="791" y="701" type="line"/>
			<point x="438" y="701" type="line"/>
			<point x="438" y="673" type="line"/>
			<point x="951" y="673" type="line" smooth="yes"/>
			<point x="966" y="673"/>
			<point x="977" y="678"/>
			<point x="980" y="689" type="curve"/>
			<point x="935" y="731"/>
			<point x="858" y="794"/>
		</contour>
		<contour>
			<point x="373" y="711" type="line"/>
			<point x="373" y="701" type="line"/>
			<point x="373" y="488" type="line" smooth="yes"/>
			<point x="373" y="308"/>
			<point x="368" y="93"/>
			<point x="283" y="-77" type="curve"/>
			<point x="293" y="-84" type="line"/>
			<point x="490" y="71"/>
			<point x="501" y="318"/>
			<point x="501" y="488" type="curve" smooth="yes"/>
			<point x="501" y="701" type="line"/>
			<point x="520" y="701" type="line"/>
			<point x="373" y="752" type="line"/>
		</contour>
	</outline>
</glyph>
<glyph name="uni6286" format="2">
	<advance width="1000" height="1000"/>
	<unicode hex="6286"/>
	<note>
		cid18717
	</note>
	<outline>
		<contour>
			<point x="891" y="619" type="curve"/>
			<point x="735" y="619" type="line"/>
			<point x="710" y="347"/>
			<point x="586" y="82"/>
			<point x="309" y="-87" type="curve"/>
			<point x="315" y="-96" type="line"/>
			<point x="684" y="36"/>
			<point x="840" y="308"/>
		</contour>
		<contour>
			<point x="526" y="527" type="curve"/>
			<point x="511" y="521" type="line"/>
			<point x="524" y="231"/>
			<point x="635" y="26"/>
			<point x="847" y="-96" type="curve"/>
			<point x="873" y="-31"/>
			<point x="923" y="9"/>
			<point x="986" y="16" type="curve"/>
			<point x="989" y="27" type="line"/>
			<point x="727" y="115"/>
			<point x="574" y="281"/>
		</contour>
		<contour>
			<point x="855" y="713" type="curve"/>
			<point x="784" y="619" type="line"/>
			<point x="398" y="619" type="line"/>
			<point x="406" y="591" type="line"/>
			<point x="956" y="591" type="line" smooth="yes"/>
			<point x="970" y="591"/>
			<point x="981" y="596"/>
			<point x="984" y="607" type="curve"/>
			<point x="936" y="650"/>
			<point x="855" y="713"/>
		</contour>
		<contour>
			<point x="752" y="841" type="curve"/>
			<point x="571" y="855" type="line"/>
			<point x="571" y="607" type="line"/>
			<point x="716" y="607" type="line"/>
			<point x="716" y="813" type="line"/>
			<point x="744" y="818"/>
			<point x="750" y="827"/>
		</contour>
		<contour>
			<point x="25" y="350" type="curve"/>
			<point x="88" y="192" type="line"/>
			<point x="101" y="197"/>
			<point x="111" y="209"/>
			<point x="115" y="223" type="curve"/>
			<point x="253" y="319"/>
			<point x="348" y="398"/>
			<point x="404" y="450" type="curve"/>
			<point x="402" y="459" type="line"/>
			<point x="249" y="410"/>
			<point x="87" y="364"/>
		</contour>
		<contour>
			<point x="330" y="839" type="curve"/>
			<point x="156" y="855" type="line"/>
			<point x="156" y="71" type="line" smooth="yes"/>
			<point x="156" y="60"/>
			<point x="151" y="56"/>
			<point x="137" y="56" type="curve" smooth="yes"/>
			<point x="119" y="56"/>
			<point x="38" y="61"/>
			<point x="38" y="61" type="curve"/>
			<point x="38" y="48" type="line"/>
			<point x="82" y="39"/>
			<point x="99" y="24"/>
			<point x="112" y="4" type="curve" smooth="yes"/>
			<point x="125" y="-17"/>
			<point x="129" y="-49"/>
			<point x="132" y="-94" type="curve"/>
			<point x="274" y="-81"/>
			<point x="293" y="-31"/>
			<point x="293" y="62" type="curve" smooth="yes"/>
			<point x="293" y="810" type="line"/>
			<point x="318" y="814"/>
			<point x="328" y="824"/>
		</contour>
		<contour>
			<point x="334" y="717" type="curve"/>
			<point x="275" y="619" type="line"/>
			<point x="25" y="619" type="line"/>
			<point x="33" y="591" type="line"/>
			<point x="409" y="591" type="line" smooth="yes"/>
			<point x="423" y="591"/>
			<point x="434" y="596"/>
			<point x="436" y="607" type="curve"/>
			<point x="401" y="650"/>
			<point x="334" y="717"/>
		</contour>
		<contour>
			<point x="526" y="527" type="curve"/>
			<point x="550" y="572" type="line"/>
			<point x="507" y="581" type="line"/>
			<point x="506" y="531" type="line"/>
			<point x="477" y="494"/>
			<point x="424" y="435"/>
			<point x="393" y="405" type="curve"/>
			<point x="472" y="325" type="line"/>
			<point x="479" y="334"/>
			<point x="481" y="347"/>
			<point x="473" y="359" type="curve"/>
			<point x="488" y="399"/>
			<point x="514" y="483"/>
		</contour>
	</outline>
</glyph>
<glyph name="uni6757" format="2">
	<advance width="1000" height="1000"/>
	<unicode hex="6757"/>
	<note>
		cid20769
	</note>
	<outline>
		<contour>
			<point x="431" y="190" type="curve"/>
			<point x="431" y="277" type="line"/>
			<point x="304" y="277" type="line"/>
			<point x="250" y="165"/>
			<point x="147" y="47"/>
			<point x="17" y="-27" type="curve"/>
			<point x="24" y="-37" type="line"/>
			<point x="194" y="13"/>
			<point x="337" y="88"/>
		</contour>
		<contour>
			<point x="571" y="292" type="curve"/>
			<point x="563" y="289" type="line"/>
			<point x="620" y="130"/>
			<point x="722" y="23"/>
			<point x="871" y="-35" type="curve"/>
			<point x="886" y="38"/>
			<point x="928" y="86"/>
			<point x="982" y="102" type="curve"/>
			<point x="984" y="113" type="line"/>
			<point x="795" y="139"/>
			<point x="646" y="204"/>
		</contour>
		<contour>
			<point x="837" y="386" type="curve"/>
			<point x="763" y="292" type="line"/>
			<point x="31" y="292" type="line"/>
			<point x="39" y="264" type="line"/>
			<point x="942" y="264" type="line" smooth="yes"/>
			<point x="957" y="264"/>
			<point x="968" y="269"/>
			<point x="971" y="280" type="curve"/>
			<point x="921" y="323"/>
			<point x="837" y="386"/>
		</contour>
		<contour>
			<point x="612" y="401" type="curve"/>
			<point x="421" y="417" type="line"/>
			<point x="421" y="-95" type="line"/>
			<point x="448" y="-95" type="line" smooth="yes"/>
			<point x="508" y="-95"/>
			<point x="575" y="-69"/>
			<point x="575" y="-59" type="curve" smooth="yes"/>
			<point x="575" y="372" type="line"/>
			<point x="603" y="377"/>
			<point x="610" y="387"/>
		</contour>
		<contour>
			<point x="848" y="804" type="curve"/>
			<point x="779" y="719" type="line"/>
			<point x="29" y="719" type="line"/>
			<point x="37" y="691" type="line"/>
			<point x="944" y="691" type="line" smooth="yes"/>
			<point x="958" y="691"/>
			<point x="969" y="696"/>
			<point x="972" y="707" type="curve"/>
			<point x="925" y="747"/>
			<point x="848" y="804"/>
		</contour>
		<contour>
			<point x="607" y="843" type="curve"/>
			<point x="426" y="856" type="line"/>
			<point x="426" y="711" type="line"/>
			<point x="571" y="711" type="line"/>
			<point x="571" y="815" type="line"/>
			<point x="599" y="819"/>
			<point x="605" y="829"/>
		</contour>
		<contour>
			<point x="307" y="714" type="curve"/>
			<point x="165" y="714" type="line"/>
			<point x="165" y="536" type="line" smooth="yes"/>
			<point x="165" y="441"/>
			<point x="214" y="428"/>
			<point x="366" y="428" type="curve" smooth="yes"/>
			<point x="561" y="428" type="line" smooth="yes"/>
			<point x="865" y="428"/>
			<point x="914" y="442"/>
			<point x="914" y="506" type="curve" smooth="yes"/>
			<point x="914" y="531"/>
			<point x="900" y="553"/>
			<point x="845" y="562" type="curve" smooth="yes"/>
			<point x="839" y="563" type="line"/>
			<point x="830" y="563" type="line"/>
			<point x="814" y="558"/>
			<point x="793" y="554"/>
			<point x="782" y="552" type="curve" smooth="yes"/>
			<point x="771" y="550"/>
			<point x="749" y="548"/>
			<point x="727" y="546" type="curve" smooth="yes"/>
			<point x="697" y="545"/>
			<point x="629" y="544"/>
			<point x="571" y="544" type="curve" smooth="yes"/>
			<point x="365" y="544" type="line" smooth="yes"/>
			<point x="312" y="544"/>
			<point x="307" y="548"/>
			<point x="307" y="562" type="curve" smooth="yes"/>
			<point x="307" y="684" type="line" smooth="yes"/>
			<point x="307" y="693"/>
			<point x="307" y="706"/>
		</contour>
	</outline>
</glyph>
<glyph name="uni6AE5" format="2">
	<advance width="1000" height="1000"/>
	<unicode hex="6AE5"/>
	<note>
		cid22321
	</note>
	<outline>
		<contour>
			<point x="242" y="452" type="curve"/>
			<point x="231" y="446" type="line"/>
			<point x="251" y="404"/>
			<point x="268" y="340"/>
			<point x="264" y="286" type="curve"/>
			<point x="335" y="208"/>
			<point x="430" y="369"/>
		</contour>
		<contour>
			<point x="282" y="841" type="curve"/>
			<point x="128" y="857" type="line"/>
			<point x="128" y="-96" type="line"/>
			<point x="151" y="-96" type="line" smooth="yes"/>
			<point x="195" y="-96"/>
			<point x="245" y="-67"/>
			<point x="245" y="-54" type="curve" smooth="yes"/>
			<point x="245" y="813" type="line"/>
			<point x="272" y="817"/>
			<point x="279" y="827"/>
		</contour>
		<contour>
			<point x="240" y="584" type="curve"/>
			<point x="240" y="600" type="line"/>
			<point x="123" y="600" type="line"/>
			<point x="108" y="446"/>
			<point x="78" y="277"/>
			<point x="21" y="154" type="curve"/>
			<point x="33" y="143" type="line"/>
			<point x="143" y="262"/>
			<point x="211" y="410"/>
		</contour>
		<contour>
			<point x="282" y="670" type="curve"/>
			<point x="239" y="600" type="line"/>
			<point x="30" y="600" type="line"/>
			<point x="38" y="572" type="line"/>
			<point x="334" y="572" type="line" smooth="yes"/>
			<point x="347" y="572"/>
			<point x="357" y="577"/>
			<point x="359" y="588" type="curve"/>
			<point x="332" y="621"/>
			<point x="282" y="670"/>
		</contour>
		<contour>
			<point x="863" y="804" type="curve"/>
			<point x="799" y="720" type="line"/>
			<point x="418" y="720" type="line"/>
			<point x="418" y="692" type="line"/>
			<point x="951" y="692" type="line" smooth="yes"/>
			<point x="965" y="692"/>
			<point x="976" y="697"/>
			<point x="979" y="708" type="curve"/>
			<point x="935" y="747"/>
			<point x="863" y="804"/>
		</contour>
		<contour>
			<point x="342" y="767" type="line"/>
			<point x="342" y="730" type="line"/>
			<point x="342" y="506" type="line" smooth="yes"/>
			<point x="342" y="319"/>
			<point x="336" y="101"/>
			<point x="245" y="-74" type="curve"/>
			<point x="256" y="-81" type="line"/>
			<point x="446" y="81"/>
			<point x="457" y="330"/>
			<point x="457" y="506" type="curve" smooth="yes"/>
			<point x="457" y="720" type="line"/>
			<point x="475" y="720" type="line"/>
		</contour>
		<contour>
			<point x="604" y="385" type="line"/>
			<point x="612" y="385" type="line"/>
			<point x="612" y="198" type="line"/>
			<point x="626" y="198" type="line" smooth="yes"/>
			<point x="652" y="198"/>
			<point x="694" y="214"/>
			<point x="695" y="221" type="curve"/>
			<point x="695" y="347" type="line"/>
			<point x="711" y="350"/>
			<point x="723" y="357"/>
			<point x="728" y="363" type="curve"/>
			<point x="643" y="427" type="line"/>
		</contour>
		<contour>
			<point x="469" y="421" type="line"/>
			<point x="469" y="189" type="line"/>
			<point x="481" y="189" type="line" smooth="yes"/>
			<point x="515" y="189"/>
			<point x="552" y="207"/>
			<point x="552" y="214" type="curve" smooth="yes"/>
			<point x="552" y="357" type="line"/>
			<point x="648" y="357" type="line"/>
			<point x="648" y="385" type="line"/>
			<point x="556" y="385" type="line"/>
		</contour>
		<contour>
			<point x="719" y="161" type="curve"/>
			<point x="598" y="198" type="line"/>
			<point x="597" y="151"/>
			<point x="592" y="84"/>
			<point x="587" y="40" type="curve"/>
			<point x="603" y="40" type="line"/>
			<point x="633" y="72"/>
			<point x="663" y="112"/>
			<point x="683" y="141" type="curve"/>
			<point x="705" y="140"/>
			<point x="716" y="149"/>
		</contour>
		<contour>
			<point x="714" y="413" type="curve"/>
			<point x="702" y="409" type="line"/>
			<point x="715" y="353"/>
			<point x="724" y="278"/>
			<point x="718" y="213" type="curve"/>
			<point x="785" y="125"/>
			<point x="886" y="286"/>
		</contour>
		<contour>
			<point x="471" y="186" type="curve"/>
			<point x="459" y="182" type="line"/>
			<point x="470" y="154"/>
			<point x="480" y="110"/>
			<point x="478" y="73" type="curve"/>
			<point x="536" y="12"/>
			<point x="629" y="121"/>
		</contour>
		<contour>
			<point x="406" y="35" type="curve"/>
			<point x="465" y="-85" type="line"/>
			<point x="477" y="-82"/>
			<point x="487" y="-73"/>
			<point x="491" y="-60" type="curve"/>
			<point x="610" y="1"/>
			<point x="692" y="47"/>
			<point x="746" y="80" type="curve"/>
			<point x="745" y="92" type="line"/>
			<point x="605" y="65"/>
			<point x="466" y="42"/>
		</contour>
		<contour>
			<point x="933" y="662" type="curve"/>
			<point x="789" y="676" type="line"/>
			<point x="789" y="44" type="line" smooth="yes"/>
			<point x="789" y="33"/>
			<point x="785" y="29"/>
			<point x="772" y="29" type="curve" smooth="yes"/>
			<point x="756" y="29"/>
			<point x="684" y="34"/>
			<point x="684" y="34" type="curve"/>
			<point x="684" y="20" type="line"/>
			<point x="722" y="13"/>
			<point x="738" y="1"/>
			<point x="750" y="-15" type="curve" smooth="yes"/>
			<point x="761" y="-32"/>
			<point x="765" y="-58"/>
			<point x="767" y="-92" type="curve"/>
			<point x="882" y="-81"/>
			<point x="897" y="-40"/>
			<point x="897" y="37" type="curve" smooth="yes"/>
			<point x="897" y="635" type="line"/>
			<point x="921" y="638"/>
			<point x="930" y="647"/>
		</contour>
		<contour>
			<point x="645" y="221" type="line"/>
			<point x="645" y="249" type="line"/>
			<point x="514" y="249" type="line"/>
			<point x="514" y="221" type="line"/>
		</contour>
		<contour>
			<point x="922" y="568" type="curve"/>
			<point x="886" y="503" type="line"/>
			<point x="712" y="503" type="line"/>
			<point x="719" y="475" type="line"/>
			<point x="960" y="475" type="line" smooth="yes"/>
			<point x="974" y="475"/>
			<point x="983" y="480"/>
			<point x="985" y="491" type="curve"/>
			<point x="964" y="521"/>
			<point x="922" y="568"/>
		</contour>
		<contour>
			<point x="670" y="523" type="curve"/>
			<point x="634" y="462" type="line"/>
			<point x="464" y="462" type="line"/>
			<point x="471" y="434" type="line"/>
			<point x="710" y="434" type="line" smooth="yes"/>
			<point x="723" y="434"/>
			<point x="732" y="439"/>
			<point x="734" y="450" type="curve"/>
			<point x="712" y="479"/>
			<point x="670" y="523"/>
		</contour>
		<contour>
			<point x="683" y="648" type="curve"/>
			<point x="643" y="584" type="line"/>
			<point x="454" y="584" type="line"/>
			<point x="462" y="556" type="line"/>
			<point x="729" y="556" type="line" smooth="yes"/>
			<point x="743" y="556"/>
			<point x="752" y="561"/>
			<point x="754" y="572" type="curve"/>
			<point x="730" y="603"/>
			<point x="683" y="648"/>
		</contour>
		<contour>
			<point x="662" y="667" type="curve"/>
			<point x="537" y="679" type="line"/>
			<point x="537" y="444" type="line"/>
			<point x="633" y="444" type="line"/>
			<point x="633" y="644" type="line"/>
			<point x="653" y="648"/>
			<point x="660" y="656"/>
		</contour>
		<contour>
			<point x="739" y="842" type="curve"/>
			<point x="587" y="855" type="line"/>
			<point x="587" y="700" type="line"/>
			<point x="702" y="700" type="line"/>
			<point x="702" y="814" type="line"/>
			<point x="729" y="818"/>
			<point x="737" y="828"/>
		</contour>
	</outline>
</glyph>
<glyph name="uni6C26" format="2">
	<advance width="1000" height="1000"/>
	<unicode hex="6C26"/>
	<note>
		cid22896
	</note>
	<outline>
		<contour>
			<point x="652" y="530" type="line"/>
			<point x="664" y="530" type="line"/>
			<point x="666" y="303"/>
			<point x="692" y="73"/>
			<point x="803" y="-40" type="curve"/>
			<point x="840" y="-85"/>
			<point x="911" y="-120"/>
			<point x="960" y="-76" type="curve" smooth="yes"/>
			<point x="984" y="-54"/>
			<point x="980" y="-10"/>
			<point x="951" y="50" type="curve"/>
			<point x="960" y="202" type="line"/>
			<point x="951" y="204" type="line"/>
			<point x="940" y="168"/>
			<point x="927" y="131"/>
			<point x="915" y="106" type="curve" smooth="yes"/>
			<point x="909" y="95"/>
			<point x="902" y="94"/>
			<point x="893" y="103" type="curve" smooth="yes"/>
			<point x="830" y="164"/>
			<point x="809" y="355"/>
			<point x="815" y="486" type="curve"/>
			<point x="834" y="490"/>
			<point x="849" y="496"/>
			<point x="855" y="504" type="curve"/>
			<point x="721" y="607" type="line"/>
		</contour>
		<contour>
			<point x="753" y="530" type="line"/>
			<point x="139" y="530" type="line"/>
			<point x="148" y="502" type="line"/>
			<point x="753" y="502" type="line"/>
		</contour>
		<contour>
			<point x="746" y="717" type="curve"/>
			<point x="678" y="633" type="line"/>
			<point x="264" y="633" type="line"/>
			<point x="272" y="605" type="line"/>
			<point x="842" y="605" type="line" smooth="yes"/>
			<point x="856" y="605"/>
			<point x="867" y="610"/>
			<point x="870" y="621" type="curve"/>
			<point x="823" y="661"/>
			<point x="746" y="717"/>
		</contour>
		<contour>
			<point x="805" y="824" type="curve"/>
			<point x="733" y="734" type="line"/>
			<point x="244" y="734" type="line"/>
			<point x="230" y="706" type="line"/>
			<point x="908" y="706" type="line" smooth="yes"/>
			<point x="923" y="706"/>
			<point x="934" y="711"/>
			<point x="937" y="722" type="curve"/>
			<point x="885" y="766"/>
			<point x="805" y="824"/>
		</contour>
		<contour>
			<point x="422" y="798" type="curve"/>
			<point x="230" y="855" type="line"/>
			<point x="202" y="726"/>
			<point x="129" y="585"/>
			<point x="40" y="508" type="curve"/>
			<point x="47" y="501" type="line"/>
			<point x="194" y="557"/>
			<point x="313" y="666"/>
			<point x="383" y="785" type="curve"/>
			<point x="410" y="782"/>
			<point x="418" y="787"/>
		</contour>
		<contour>
			<point x="579" y="465" type="curve"/>
			<point x="520" y="389" type="line"/>
			<point x="50" y="389" type="line"/>
			<point x="58" y="361" type="line"/>
			<point x="658" y="361" type="line" smooth="yes"/>
			<point x="673" y="361"/>
			<point x="683" y="366"/>
			<point x="686" y="377" type="curve"/>
			<point x="645" y="413"/>
			<point x="579" y="465"/>
		</contour>
		<contour>
			<point x="136" y="309" type="curve"/>
			<point x="128" y="303" type="line"/>
			<point x="162" y="273"/>
			<point x="198" y="221"/>
			<point x="209" y="174" type="curve"/>
			<point x="315" y="113"/>
			<point x="392" y="313"/>
		</contour>
		<contour>
			<point x="580" y="274" type="curve"/>
			<point x="451" y="347" type="line"/>
			<point x="387" y="234"/>
			<point x="247" y="112"/>
			<point x="84" y="45" type="curve"/>
			<point x="91" y="32" type="line"/>
			<point x="286" y="68"/>
			<point x="451" y="162"/>
			<point x="541" y="263" type="curve"/>
			<point x="564" y="259"/>
			<point x="574" y="264"/>
		</contour>
		<contour>
			<point x="665" y="155" type="curve"/>
			<point x="543" y="233" type="line"/>
			<point x="454" y="104"/>
			<point x="264" y="-18"/>
			<point x="49" y="-81" type="curve"/>
			<point x="54" y="-94" type="line"/>
			<point x="300" y="-66"/>
			<point x="511" y="32"/>
			<point x="625" y="147" type="curve"/>
			<point x="648" y="141"/>
			<point x="658" y="145"/>
		</contour>
		<contour>
			<point x="474" y="59" type="curve"/>
			<point x="466" y="53" type="line"/>
			<point x="525" y="19"/>
			<point x="576" y="-35"/>
			<point x="598" y="-86" type="curve"/>
			<point x="719" y="-155"/>
			<point x="818" y="69"/>
		</contour>
		<contour>
			<point x="460" y="481" type="curve"/>
			<point x="296" y="494" type="line"/>
			<point x="296" y="373" type="line"/>
			<point x="427" y="373" type="line"/>
			<point x="427" y="456" type="line"/>
			<point x="452" y="460"/>
			<point x="458" y="469"/>
		</contour>
		<contour>
			<point x="406" y="339" type="curve"/>
			<point x="259" y="380" type="line"/>
			<point x="256" y="343"/>
			<point x="247" y="294"/>
			<point x="237" y="252" type="curve"/>
			<point x="251" y="248" type="line"/>
			<point x="284" y="266"/>
			<point x="329" y="294"/>
			<point x="366" y="321" type="curve"/>
			<point x="388" y="320"/>
			<point x="400" y="328"/>
		</contour>
	</outline>
</glyph>
<glyph name="uni6C61" format="2">
	<advance width="1000" height="1000"/>
	<unicode hex="6C61"/>
	<note>
		cid22980
	</note>
	<outline>
		<contour>
			<point x="99" y="833" type="curve"/>
			<point x="92" y="827" type="line"/>
			<point x="130" y="787"/>
			<point x="175" y="723"/>
			<point x="193" y="665" type="curve"/>
			<point x="322" y="593"/>
			<point x="411" y="832"/>
		</contour>
		<contour>
			<point x="27" y="605" type="curve"/>
			<point x="20" y="599" type="line"/>
			<point x="56" y="561"/>
			<point x="95" y="500"/>
			<point x="107" y="443" type="curve"/>
			<point x="230" y="366"/>
			<point x="328" y="600"/>
		</contour>
		<contour>
			<point x="84" y="207" type="curve" smooth="yes"/>
			<point x="73" y="207"/>
			<point x="37" y="207"/>
			<point x="37" y="207" type="curve"/>
			<point x="37" y="190" type="line"/>
			<point x="58" y="188"/>
			<point x="76" y="182"/>
			<point x="91" y="172" type="curve" smooth="yes"/>
			<point x="115" y="156"/>
			<point x="119" y="59"/>
			<point x="98" y="-44" type="curve"/>
			<point x="109" y="-83"/>
			<point x="139" y="-96"/>
			<point x="165" y="-96" type="curve" smooth="yes"/>
			<point x="224" y="-96"/>
			<point x="265" y="-59"/>
			<point x="267" y="-6" type="curve" smooth="yes"/>
			<point x="269" y="83"/>
			<point x="222" y="111"/>
			<point x="220" y="169" type="curve" smooth="yes"/>
			<point x="219" y="194"/>
			<point x="227" y="233"/>
			<point x="236" y="267" type="curve" smooth="yes"/>
			<point x="250" y="322"/>
			<point x="317" y="537"/>
			<point x="356" y="654" type="curve"/>
			<point x="342" y="658" type="line"/>
			<point x="144" y="266"/>
			<point x="144" y="266"/>
			<point x="118" y="227" type="curve" smooth="yes"/>
			<point x="106" y="207"/>
			<point x="101" y="207"/>
		</contour>
		<contour>
			<point x="800" y="838" type="curve"/>
			<point x="736" y="750" type="line"/>
			<point x="382" y="750" type="line"/>
			<point x="390" y="722" type="line"/>
			<point x="886" y="722" type="line" smooth="yes"/>
			<point x="901" y="722"/>
			<point x="911" y="727"/>
			<point x="914" y="738" type="curve"/>
			<point x="872" y="778"/>
			<point x="800" y="838"/>
		</contour>
		<contour>
			<point x="862" y="618" type="curve"/>
			<point x="798" y="530" type="line"/>
			<point x="337" y="530" type="line"/>
			<point x="345" y="502" type="line"/>
			<point x="949" y="502" type="line" smooth="yes"/>
			<point x="963" y="502"/>
			<point x="974" y="507"/>
			<point x="977" y="518" type="curve"/>
			<point x="935" y="558"/>
			<point x="862" y="618"/>
		</contour>
		<contour>
			<point x="611" y="514" type="curve"/>
			<point x="458" y="514" type="line"/>
			<point x="446" y="440"/>
			<point x="401" y="292"/>
			<point x="370" y="220" type="curve"/>
			<point x="433" y="200"/>
			<point x="493" y="201"/>
			<point x="527" y="221" type="curve"/>
			<point x="553" y="298"/>
			<point x="591" y="428"/>
		</contour>
		<contour>
			<point x="813" y="301" type="line"/>
			<point x="813" y="329" type="line"/>
			<point x="501" y="329" type="line"/>
			<point x="495" y="301" type="line"/>
		</contour>
		<contour>
			<point x="936" y="295" type="curve"/>
			<point x="818" y="395" type="line"/>
			<point x="748" y="329" type="line"/>
			<point x="759" y="329" type="line"/>
			<point x="743" y="171"/>
			<point x="717" y="77"/>
			<point x="687" y="55" type="curve" smooth="yes"/>
			<point x="677" y="48"/>
			<point x="667" y="46"/>
			<point x="650" y="46" type="curve" smooth="yes"/>
			<point x="626" y="46"/>
			<point x="547" y="51"/>
			<point x="495" y="55" type="curve"/>
			<point x="495" y="44" type="line"/>
			<point x="545" y="34"/>
			<point x="585" y="17"/>
			<point x="605" y="-4" type="curve" smooth="yes"/>
			<point x="624" y="-23"/>
			<point x="629" y="-56"/>
			<point x="628" y="-93" type="curve"/>
			<point x="698" y="-93"/>
			<point x="740" y="-82"/>
			<point x="778" y="-57" type="curve" smooth="yes"/>
			<point x="839" y="-16"/>
			<point x="874" y="93"/>
			<point x="894" y="277" type="curve"/>
			<point x="916" y="280"/>
			<point x="929" y="286"/>
		</contour>
	</outline>
</glyph>
<glyph name="uni752D" format="2">
	<advance width="1000" height="1000"/>
	<unicode hex="752D"/>
	<note>
		cid26950
	</note>
	<outline>
		<contour>
			<point x="619" y="755" type="curve"/>
			<point x="619" y="771" type="line"/>
			<point x="435" y="771" type="line"/>
			<point x="345" y="665"/>
			<point x="203" y="574"/>
			<point x="37" y="515" type="curve"/>
			<point x="42" y="504" type="line"/>
			<point x="304" y="547"/>
			<point x="511" y="637"/>
		</contour>
		<contour>
			<point x="589" y="678" type="curve"/>
			<point x="476" y="720" type="line"/>
			<point x="425" y="643" type="line"/>
			<point x="425" y="466" type="line"/>
			<point x="450" y="466" type="line" smooth="yes"/>
			<point x="505" y="466"/>
			<point x="556" y="494"/>
			<point x="558" y="505" type="curve"/>
			<point x="558" y="660" type="line"/>
			<point x="575" y="663"/>
			<point x="585" y="670"/>
		</contour>
		<contour>
			<point x="836" y="861" type="curve"/>
			<point x="765" y="772" type="line"/>
			<point x="61" y="772" type="line"/>
			<point x="69" y="744" type="line"/>
			<point x="938" y="744" type="line" smooth="yes"/>
			<point x="952" y="744"/>
			<point x="964" y="749"/>
			<point x="966" y="760" type="curve"/>
			<point x="917" y="801"/>
			<point x="836" y="861"/>
		</contour>
		<contour>
			<point x="606" y="682" type="curve"/>
			<point x="604" y="672" type="line"/>
			<point x="715" y="620"/>
			<point x="810" y="546"/>
			<point x="849" y="505" type="curve"/>
			<point x="986" y="457"/>
			<point x="1055" y="733"/>
		</contour>
		<contour>
			<point x="288" y="-42" type="curve" smooth="yes"/>
			<point x="288" y="422" type="line"/>
			<point x="750" y="422" type="line"/>
			<point x="750" y="450" type="line"/>
			<point x="302" y="450" type="line"/>
			<point x="146" y="507" type="line"/>
			<point x="146" y="-83" type="line"/>
			<point x="172" y="-83" type="line" smooth="yes"/>
			<point x="245" y="-83"/>
			<point x="288" y="-52"/>
		</contour>
		<contour>
			<point x="907" y="418" type="curve"/>
			<point x="765" y="528" type="line"/>
			<point x="698" y="450" type="line"/>
			<point x="710" y="450" type="line"/>
			<point x="710" y="70" type="line" smooth="yes"/>
			<point x="710" y="59"/>
			<point x="707" y="52"/>
			<point x="692" y="52" type="curve" smooth="yes"/>
			<point x="672" y="52"/>
			<point x="590" y="57"/>
			<point x="590" y="57" type="curve"/>
			<point x="590" y="45" type="line"/>
			<point x="637" y="37"/>
			<point x="653" y="22"/>
			<point x="666" y="6" type="curve" smooth="yes"/>
			<point x="680" y="-11"/>
			<point x="683" y="-40"/>
			<point x="686" y="-78" type="curve"/>
			<point x="834" y="-67"/>
			<point x="855" y="-24"/>
			<point x="855" y="58" type="curve" smooth="yes"/>
			<point x="855" y="390" type="line"/>
			<point x="882" y="396"/>
			<point x="898" y="408"/>
		</contour>
		<contour>
			<point x="563" y="-38" type="curve"/>
			<point x="563" y="438" type="line"/>
			<point x="423" y="438" type="line"/>
			<point x="423" y="-68" type="line"/>
			<point x="449" y="-68" type="line" smooth="yes"/>
			<point x="521" y="-68"/>
			<point x="562" y="-44"/>
		</contour>
		<contour>
			<point x="750" y="284" type="line"/>
			<point x="750" y="312" type="line"/>
			<point x="248" y="312" type="line"/>
			<point x="248" y="284" type="line"/>
		</contour>
		<contour>
			<point x="750" y="137" type="line"/>
			<point x="750" y="165" type="line"/>
			<point x="248" y="165" type="line"/>
			<point x="248" y="137" type="line"/>
		</contour>
	</outline>
</glyph>
<glyph name="uni7DD4" format="2">
	<advance width="1000" height="1000"/>
	<unicode hex="7DD4"/>
	<note>
		cid31103
	</note>
	<outline>
		<contour>
			<point x="283" y="-62" type="curve" smooth="yes"/>
			<point x="283" y="398" type="line"/>
			<point x="158" y="389" type="line"/>
			<point x="158" y="-96" type="line"/>
			<point x="181" y="-96" type="line" smooth="yes"/>
			<point x="244" y="-96"/>
			<point x="283" y="-69"/>
		</contour>
		<contour>
			<point x="309" y="804" type="curve"/>
			<point x="140" y="856" type="line"/>
			<point x="129" y="778"/>
			<point x="113" y="688"/>
			<point x="99" y="633" type="curve"/>
			<point x="112" y="626" type="line"/>
			<point x="165" y="665"/>
			<point x="222" y="723"/>
			<point x="269" y="783" type="curve"/>
			<point x="292" y="783"/>
			<point x="305" y="791"/>
		</contour>
		<contour>
			<point x="401" y="662" type="curve"/>
			<point x="243" y="729" type="line"/>
			<point x="211" y="626"/>
			<point x="152" y="475"/>
			<point x="100" y="372" type="curve"/>
			<point x="113" y="372" type="line"/>
			<point x="206" y="456"/>
			<point x="304" y="570"/>
			<point x="360" y="647" type="curve"/>
			<point x="383" y="644"/>
			<point x="396" y="651"/>
		</contour>
		<contour>
			<point x="18" y="417" type="curve"/>
			<point x="62" y="290" type="line"/>
			<point x="74" y="292"/>
			<point x="85" y="300"/>
			<point x="91" y="313" type="curve"/>
			<point x="208" y="360"/>
			<point x="289" y="397"/>
			<point x="343" y="423" type="curve"/>
			<point x="342" y="436" type="line"/>
			<point x="208" y="426"/>
			<point x="75" y="418"/>
		</contour>
		<contour>
			<point x="29" y="690" type="curve"/>
			<point x="20" y="685" type="line"/>
			<point x="44" y="648"/>
			<point x="69" y="592"/>
			<point x="71" y="542" type="curve"/>
			<point x="165" y="465"/>
			<point x="272" y="645"/>
		</contour>
		<contour>
			<point x="278" y="520" type="curve"/>
			<point x="268" y="516" type="line"/>
			<point x="288" y="468"/>
			<point x="308" y="402"/>
			<point x="306" y="343" type="curve"/>
			<point x="395" y="256"/>
			<point x="513" y="432"/>
		</contour>
		<contour>
			<point x="285" y="292" type="curve"/>
			<point x="274" y="288" type="line"/>
			<point x="292" y="237"/>
			<point x="309" y="167"/>
			<point x="307" y="106" type="curve"/>
			<point x="392" y="18"/>
			<point x="510" y="190"/>
		</contour>
		<contour>
			<point x="202" y="241" type="curve"/>
			<point x="58" y="268" type="line"/>
			<point x="57" y="170"/>
			<point x="44" y="64"/>
			<point x="21" y="-13" type="curve"/>
			<point x="36" y="-21" type="line"/>
			<point x="95" y="34"/>
			<point x="138" y="118"/>
			<point x="166" y="216" type="curve"/>
			<point x="188" y="218"/>
			<point x="199" y="227"/>
		</contour>
		<contour>
			<point x="736" y="210" type="line"/>
			<point x="595" y="210" type="line"/>
			<point x="595" y="182" type="line"/>
			<point x="736" y="182" type="line"/>
		</contour>
		<contour>
			<point x="674" y="407" type="line"/>
			<point x="684" y="407" type="line"/>
			<point x="684" y="112" type="line"/>
			<point x="701" y="112" type="line" smooth="yes"/>
			<point x="734" y="112"/>
			<point x="786" y="131"/>
			<point x="787" y="137" type="curve"/>
			<point x="787" y="361" type="line"/>
			<point x="807" y="365"/>
			<point x="821" y="374"/>
			<point x="828" y="382" type="curve"/>
			<point x="723" y="461" type="line"/>
		</contour>
		<contour>
			<point x="774" y="841" type="curve"/>
			<point x="598" y="855" type="line"/>
			<point x="598" y="527" type="line"/>
			<point x="737" y="527" type="line"/>
			<point x="737" y="813" type="line"/>
			<point x="765" y="817"/>
			<point x="772" y="827"/>
		</contour>
		<contour>
			<point x="752" y="787" type="curve"/>
			<point x="745" y="780" type="line"/>
			<point x="798" y="723"/>
			<point x="844" y="646"/>
			<point x="866" y="580" type="curve"/>
			<point x="1001" y="483"/>
			<point x="1080" y="751"/>
		</contour>
		<contour>
			<point x="805" y="535" type="line"/>
			<point x="815" y="535" type="line"/>
			<point x="815" y="63" type="line" smooth="yes"/>
			<point x="815" y="51"/>
			<point x="811" y="44"/>
			<point x="796" y="44" type="curve" smooth="yes"/>
			<point x="776" y="44"/>
			<point x="683" y="50"/>
			<point x="683" y="50" type="curve"/>
			<point x="683" y="37" type="line"/>
			<point x="731" y="28"/>
			<point x="750" y="14"/>
			<point x="764" y="-5" type="curve" smooth="yes"/>
			<point x="779" y="-23"/>
			<point x="783" y="-54"/>
			<point x="786" y="-94" type="curve"/>
			<point x="926" y="-82"/>
			<point x="945" y="-35"/>
			<point x="945" y="49" type="curve" smooth="yes"/>
			<point x="945" y="486" type="line"/>
			<point x="966" y="490"/>
			<point x="979" y="499"/>
			<point x="985" y="507" type="curve"/>
			<point x="862" y="601" type="line"/>
		</contour>
		<contour>
			<point x="620" y="749" type="curve"/>
			<point x="457" y="799" type="line"/>
			<point x="439" y="693"/>
			<point x="393" y="579"/>
			<point x="338" y="504" type="curve"/>
			<point x="347" y="494" type="line"/>
			<point x="439" y="544"/>
			<point x="531" y="634"/>
			<point x="585" y="728" type="curve"/>
			<point x="609" y="730"/>
			<point x="617" y="737"/>
		</contour>
		<contour>
			<point x="395" y="589" type="line"/>
			<point x="395" y="535" type="line"/>
			<point x="395" y="-95" type="line"/>
			<point x="415" y="-95" type="line" smooth="yes"/>
			<point x="470" y="-95"/>
			<point x="521" y="-65"/>
			<point x="521" y="-51" type="curve" smooth="yes"/>
			<point x="521" y="508" type="line"/>
			<point x="898" y="508" type="line"/>
			<point x="898" y="535" type="line"/>
			<point x="529" y="535" type="line"/>
		</contour>
		<contour>
			<point x="549" y="448" type="line"/>
			<point x="549" y="407" type="line"/>
			<point x="549" y="90" type="line"/>
			<point x="563" y="90" type="line" smooth="yes"/>
			<point x="603" y="90"/>
			<point x="644" y="112"/>
			<point x="644" y="121" type="curve" smooth="yes"/>
			<point x="644" y="380" type="line"/>
			<point x="736" y="380" type="line"/>
			<point x="736" y="407" type="line"/>
			<point x="648" y="407" type="line"/>
		</contour>
	</outline>
</glyph>
<glyph name="uni7E9F" format="2">
	<advance width="1000" height="1000"/>
	<unicode hex="7E9F"/>
	<note>
		cid31546
	</note>
	<outline>
		<contour>
			<point x="404" y="775" type="curve"/>
			<point x="234" y="849" type="line"/>
			<point x="205" y="745"/>
			<point x="156" y="621"/>
			<point x="109" y="527" type="curve"/>
			<point x="119" y="519" type="line"/>
			<point x="208" y="591"/>
			<point x="301" y="683"/>
			<point x="361" y="758" type="curve"/>
			<point x="382" y="755"/>
			<point x="399" y="762"/>
		</contour>
		<contour>
			<point x="44" y="550" type="curve"/>
			<point x="94" y="398" type="line"/>
			<point x="112" y="402"/>
			<point x="125" y="413"/>
			<point x="127" y="426" type="curve"/>
			<point x="216" y="459"/>
			<point x="330" y="510"/>
			<point x="423" y="559" type="curve"/>
			<point x="421" y="572" type="line"/>
			<point x="260" y="558"/>
			<point x="115" y="549"/>
		</contour>
		<contour>
			<point x="521" y="569" type="curve"/>
			<point x="371" y="667" type="line"/>
			<point x="297" y="527"/>
			<point x="193" y="370"/>
			<point x="102" y="261" type="curve"/>
			<point x="113" y="254" type="line"/>
			<point x="231" y="332"/>
			<point x="370" y="448"/>
			<point x="474" y="556" type="curve"/>
			<point x="493" y="552"/>
			<point x="511" y="557"/>
		</contour>
		<contour>
			<point x="48" y="301" type="curve"/>
			<point x="98" y="146" type="line"/>
			<point x="116" y="150"/>
			<point x="129" y="161"/>
			<point x="132" y="175" type="curve"/>
			<point x="258" y="219"/>
			<point x="392" y="274"/>
			<point x="481" y="316" type="curve"/>
			<point x="480" y="329" type="line"/>
			<point x="286" y="312"/>
			<point x="119" y="301"/>
		</contour>
		<contour>
			<point x="58" y="101" type="curve"/>
			<point x="115" y="-71" type="line"/>
			<point x="128" y="-68"/>
			<point x="140" y="-57"/>
			<point x="145" y="-44" type="curve"/>
			<point x="305" y="38"/>
			<point x="409" y="109"/>
			<point x="479" y="162" type="curve"/>
			<point x="478" y="171" type="line"/>
			<point x="318" y="135"/>
			<point x="137" y="108"/>
		</contour>
	</outline>
</glyph>
<glyph name="uni8AA4" format="2">
	<advance width="1000" height="1000"/>
	<unicode hex="8AA4"/>
	<note>
		cid62703
	</note>
	<outline>
		<contour>
			<point x="288" y="854" type="curve"/>
			<point x="231" y="778" type="line"/>
			<point x="65" y="778" type="line"/>
			<point x="73" y="750" type="line"/>
			<point x="364" y="750" type="line" smooth="yes"/>
			<point x="378" y="750"/>
			<point x="388" y="755"/>
			<point x="391" y="766" type="curve"/>
			<point x="352" y="802"/>
			<point x="288" y="854"/>
		</contour>
		<contour>
			<point x="295" y="594" type="curve"/>
			<point x="239" y="520" type="line"/>
			<point x="64" y="520" type="line"/>
			<point x="72" y="492" type="line"/>
			<point x="368" y="492" type="line" smooth="yes"/>
			<point x="382" y="492"/>
			<point x="392" y="497"/>
			<point x="395" y="508" type="curve"/>
			<point x="357" y="543"/>
			<point x="295" y="594"/>
		</contour>
		<contour>
			<point x="295" y="463" type="curve"/>
			<point x="239" y="389" type="line"/>
			<point x="64" y="389" type="line"/>
			<point x="72" y="361" type="line"/>
			<point x="368" y="361" type="line" smooth="yes"/>
			<point x="382" y="361"/>
			<point x="392" y="366"/>
			<point x="395" y="377" type="curve"/>
			<point x="357" y="412"/>
			<point x="295" y="463"/>
		</contour>
		<contour>
			<point x="341" y="726" type="curve"/>
			<point x="285" y="651" type="line"/>
			<point x="16" y="651" type="line"/>
			<point x="24" y="623" type="line"/>
			<point x="417" y="623" type="line" smooth="yes"/>
			<point x="431" y="623"/>
			<point x="441" y="628"/>
			<point x="444" y="639" type="curve"/>
			<point x="405" y="675"/>
			<point x="341" y="726"/>
		</contour>
		<contour>
			<point x="63" y="301" type="line"/>
			<point x="63" y="250" type="line"/>
			<point x="63" y="-95" type="line"/>
			<point x="81" y="-95" type="line" smooth="yes"/>
			<point x="134" y="-95"/>
			<point x="188" y="-67"/>
			<point x="188" y="-56" type="curve" smooth="yes"/>
			<point x="188" y="222" type="line"/>
			<point x="325" y="222" type="line"/>
			<point x="325" y="250" type="line"/>
			<point x="192" y="250" type="line"/>
			<point x="63" y="301" type="line"/>
		</contour>
		<contour>
			<point x="250" y="250" type="line"/>
			<point x="259" y="250" type="line"/>
			<point x="259" y="-57" type="line"/>
			<point x="281" y="-57" type="line" smooth="yes"/>
			<point x="324" y="-57"/>
			<point x="385" y="-31"/>
			<point x="385" y="-22" type="curve" smooth="yes"/>
			<point x="385" y="205" type="line"/>
			<point x="404" y="208"/>
			<point x="415" y="216"/>
			<point x="421" y="223" type="curve"/>
			<point x="306" y="310" type="line"/>
		</contour>
		<contour>
			<point x="325" y="34" type="line"/>
			<point x="127" y="34" type="line"/>
			<point x="127" y="6" type="line"/>
			<point x="325" y="6" type="line"/>
		</contour>
		<contour>
			<point x="584" y="830" type="line"/>
			<point x="584" y="780" type="line"/>
			<point x="584" y="447" type="line"/>
			<point x="602" y="447" type="line" smooth="yes"/>
			<point x="654" y="447"/>
			<point x="709" y="475"/>
			<point x="709" y="486" type="curve" smooth="yes"/>
			<point x="709" y="752" type="line"/>
			<point x="854" y="752" type="line"/>
			<point x="854" y="780" type="line"/>
			<point x="713" y="780" type="line"/>
			<point x="584" y="830" type="line"/>
		</contour>
		<contour>
			<point x="788" y="780" type="line"/>
			<point x="798" y="780" type="line"/>
			<point x="798" y="468" type="line"/>
			<point x="821" y="468" type="line" smooth="yes"/>
			<point x="865" y="468"/>
			<point x="928" y="495"/>
			<point x="929" y="503" type="curve"/>
			<point x="929" y="730" type="line"/>
			<point x="950" y="735"/>
			<point x="963" y="744"/>
			<point x="969" y="752" type="curve"/>
			<point x="847" y="844" type="line"/>
		</contour>
		<contour>
			<point x="859" y="553" type="line"/>
			<point x="656" y="553" type="line"/>
			<point x="656" y="525" type="line"/>
			<point x="859" y="525" type="line"/>
		</contour>
		<contour>
			<point x="793" y="411" type="line"/>
			<point x="490" y="411" type="line"/>
			<point x="490" y="383" type="line"/>
			<point x="793" y="383" type="line"/>
		</contour>
		<contour>
			<point x="571" y="734" type="curve"/>
			<point x="418" y="747" type="line"/>
			<point x="418" y="285" type="line"/>
			<point x="439" y="285" type="line" smooth="yes"/>
			<point x="486" y="285"/>
			<point x="543" y="312"/>
			<point x="543" y="323" type="curve" smooth="yes"/>
			<point x="543" y="711" type="line"/>
			<point x="564" y="715"/>
			<point x="570" y="723"/>
		</contour>
		<contour>
			<point x="737" y="411" type="line"/>
			<point x="747" y="411" type="line"/>
			<point x="747" y="200" type="line"/>
			<point x="877" y="200" type="line"/>
			<point x="877" y="367" type="line"/>
			<point x="895" y="371"/>
			<point x="907" y="378"/>
			<point x="912" y="386" type="curve"/>
			<point x="796" y="472" type="line"/>
		</contour>
		<contour>
			<point x="924" y="295" type="curve"/>
			<point x="879" y="215" type="line"/>
			<point x="400" y="215" type="line"/>
			<point x="408" y="187" type="line"/>
			<point x="975" y="187" type="line" smooth="yes"/>
			<point x="988" y="187"/>
			<point x="997" y="192"/>
			<point x="1000" y="203" type="curve"/>
			<point x="975" y="239"/>
			<point x="924" y="295"/>
		</contour>
		<contour>
			<point x="706" y="215" type="curve"/>
			<point x="697" y="211" type="line"/>
			<point x="726" y="55"/>
			<point x="777" y="-38"/>
			<point x="887" y="-99" type="curve"/>
			<point x="901" y="-26"/>
			<point x="937" y="21"/>
			<point x="987" y="36" type="curve"/>
			<point x="988" y="47" type="line"/>
			<point x="868" y="64"/>
			<point x="752" y="123"/>
		</contour>
		<contour>
			<point x="709" y="397" type="curve"/>
			<point x="572" y="397" type="line"/>
			<point x="572" y="158"/>
			<point x="575" y="31"/>
			<point x="338" y="-83" type="curve"/>
			<point x="346" y="-95" type="line"/>
			<point x="687" y="-8"/>
			<point x="709" y="118"/>
		</contour>
	</outline>
</glyph>
<glyph name="uni8BA0" format="2">
	<advance width="1000" height="1000"/>
	<unicode hex="8BA0"/>
	<note>
		cid38434
	</note>
	<outline>
		<contour>
			<point x="161" y="850" type="curve"/>
			<point x="153" y="845" type="line"/>
			<point x="201" y="785"/>
			<point x="240" y="712"/>
			<point x="254" y="656" type="curve"/>
			<point x="392" y="566"/>
			<point x="506" y="826"/>
		</contour>
		<contour>
			<point x="213" y="498" type="line"/>
			<point x="224" y="498" type="line"/>
			<point x="224" y="46" type="line"/>
			<point x="249" y="46" type="line" smooth="yes"/>
			<point x="294" y="46"/>
			<point x="367" y="66"/>
			<point x="368" y="73" type="curve"/>
			<point x="368" y="448" type="line"/>
			<point x="385" y="450"/>
			<point x="400" y="458"/>
			<point x="408" y="469" type="curve"/>
			<point x="277" y="567" type="line"/>
		</contour>
		<contour>
			<point x="274" y="498" type="line"/>
			<point x="42" y="498" type="line"/>
			<point x="51" y="470" type="line"/>
			<point x="274" y="470" type="line"/>
		</contour>
		<contour>
			<point x="129" y="82" type="curve"/>
			<point x="229" y="-67" type="line"/>
			<point x="244" y="-61"/>
			<point x="254" y="-49"/>
			<point x="255" y="-36" type="curve"/>
			<point x="367" y="46"/>
			<point x="475" y="130"/>
			<point x="534" y="184" type="curve"/>
			<point x="532" y="194" type="line"/>
			<point x="368" y="144"/>
			<point x="213" y="101"/>
		</contour>
	</outline>
</glyph>
<glyph name="uni92D8" format="2">
	<advance width="1000" height="1000"/>
	<unicode hex="92D8"/>
	<note>
		cid41657
	</note>
	<outline>
		<contour>
			<point x="838" y="566" type="line"/>
			<point x="659" y="566" type="line"/>
			<point x="659" y="538" type="line"/>
			<point x="838" y="538" type="line"/>
		</contour>
		<contour>
			<point x="573" y="750" type="curve"/>
			<point x="432" y="763" type="line"/>
			<point x="432" y="315" type="line"/>
			<point x="455" y="315" type="line" smooth="yes"/>
			<point x="496" y="315"/>
			<point x="549" y="336"/>
			<point x="549" y="345" type="curve" smooth="yes"/>
			<point x="549" y="730" type="line"/>
			<point x="567" y="733"/>
			<point x="572" y="741"/>
		</contour>
		<contour>
			<point x="828" y="424" type="line"/>
			<point x="506" y="424" type="line"/>
			<point x="506" y="396" type="line"/>
			<point x="828" y="396" type="line"/>
		</contour>
		<contour>
			<point x="923" y="309" type="curve"/>
			<point x="879" y="229" type="line"/>
			<point x="376" y="229" type="line"/>
			<point x="384" y="201" type="line"/>
			<point x="974" y="201" type="line" smooth="yes"/>
			<point x="987" y="201"/>
			<point x="997" y="206"/>
			<point x="999" y="217" type="curve"/>
			<point x="974" y="253"/>
			<point x="923" y="309"/>
		</contour>
		<contour>
			<point x="780" y="770" type="line"/>
			<point x="790" y="770" type="line"/>
			<point x="790" y="484" type="line"/>
			<point x="812" y="484" type="line" smooth="yes"/>
			<point x="853" y="484"/>
			<point x="918" y="505"/>
			<point x="919" y="512" type="curve"/>
			<point x="919" y="724" type="line"/>
			<point x="937" y="728"/>
			<point x="949" y="736"/>
			<point x="955" y="743" type="curve"/>
			<point x="837" y="831" type="line"/>
		</contour>
		<contour>
			<point x="591" y="822" type="line"/>
			<point x="591" y="770" type="line"/>
			<point x="591" y="469" type="line"/>
			<point x="614" y="469" type="line" smooth="yes"/>
			<point x="677" y="469"/>
			<point x="715" y="496"/>
			<point x="715" y="504" type="curve" smooth="yes"/>
			<point x="715" y="770" type="line"/>
			<point x="731" y="770" type="line"/>
		</contour>
		<contour>
			<point x="838" y="770" type="line"/>
			<point x="659" y="770" type="line"/>
			<point x="659" y="742" type="line"/>
			<point x="838" y="742" type="line"/>
		</contour>
		<contour>
			<point x="710" y="410" type="curve"/>
			<point x="572" y="410" type="line"/>
			<point x="571" y="190"/>
			<point x="566" y="42"/>
			<point x="312" y="-85" type="curve"/>
			<point x="320" y="-98" type="line"/>
			<point x="679" y="1"/>
			<point x="705" y="150"/>
		</contour>
		<contour>
			<point x="704" y="228" type="curve"/>
			<point x="695" y="224" type="line"/>
			<point x="723" y="65"/>
			<point x="774" y="-31"/>
			<point x="886" y="-95" type="curve"/>
			<point x="900" y="-22"/>
			<point x="935" y="26"/>
			<point x="986" y="41" type="curve"/>
			<point x="987" y="52" type="line"/>
			<point x="866" y="71"/>
			<point x="750" y="132"/>
		</contour>
		<contour>
			<point x="743" y="424" type="line"/>
			<point x="750" y="424" type="line"/>
			<point x="750" y="218" type="line"/>
			<point x="880" y="218" type="line"/>
			<point x="880" y="379" type="line"/>
			<point x="899" y="382"/>
			<point x="907" y="385"/>
			<point x="915" y="395" type="curve"/>
			<point x="792" y="481" type="line"/>
		</contour>
		<contour>
			<point x="270" y="778" type="curve"/>
			<point x="297" y="780"/>
			<point x="307" y="788"/>
			<point x="311" y="801" type="curve"/>
			<point x="145" y="852" type="line"/>
			<point x="131" y="749"/>
			<point x="78" y="582"/>
			<point x="11" y="484" type="curve"/>
			<point x="20" y="477" type="line"/>
			<point x="133" y="550"/>
			<point x="226" y="673"/>
		</contour>
		<contour>
			<point x="239" y="784" type="curve"/>
			<point x="227" y="782" type="line"/>
			<point x="270" y="736"/>
			<point x="303" y="674"/>
			<point x="317" y="636" type="curve"/>
			<point x="405" y="567"/>
			<point x="532" y="747"/>
		</contour>
		<contour>
			<point x="304" y="638" type="curve"/>
			<point x="248" y="558" type="line"/>
			<point x="101" y="558" type="line"/>
			<point x="109" y="530" type="line"/>
			<point x="376" y="530" type="line" smooth="yes"/>
			<point x="389" y="530"/>
			<point x="400" y="535"/>
			<point x="402" y="546" type="curve"/>
			<point x="367" y="583"/>
			<point x="304" y="638"/>
		</contour>
		<contour>
			<point x="330" y="493" type="curve"/>
			<point x="275" y="409" type="line"/>
			<point x="39" y="409" type="line"/>
			<point x="47" y="381" type="line"/>
			<point x="400" y="381" type="line" smooth="yes"/>
			<point x="414" y="381"/>
			<point x="424" y="386"/>
			<point x="427" y="397" type="curve"/>
			<point x="392" y="435"/>
			<point x="330" y="493"/>
		</contour>
		<contour>
			<point x="275" y="558" type="line"/>
			<point x="163" y="558" type="line"/>
			<point x="163" y="37" type="line"/>
			<point x="275" y="69" type="line"/>
		</contour>
		<contour>
			<point x="21" y="55" type="curve"/>
			<point x="101" y="-91" type="line"/>
			<point x="113" y="-87"/>
			<point x="123" y="-77"/>
			<point x="128" y="-64" type="curve"/>
			<point x="276" y="17"/>
			<point x="373" y="77"/>
			<point x="435" y="122" type="curve"/>
			<point x="433" y="132" type="line"/>
			<point x="261" y="96"/>
			<point x="92" y="65"/>
		</contour>
		<contour>
			<point x="430" y="310" type="curve"/>
			<point x="305" y="347" type="line"/>
			<point x="298" y="278"/>
			<point x="289" y="195"/>
			<point x="280" y="143" type="curve"/>
			<point x="297" y="137" type="line"/>
			<point x="331" y="178"/>
			<point x="365" y="237"/>
			<point x="393" y="289" type="curve"/>
			<point x="414" y="289"/>
			<point x="426" y="298"/>
		</contour>
		<contour>
			<point x="65" y="345" type="curve"/>
			<point x="52" y="342" type="line"/>
			<point x="64" y="285"/>
			<point x="70" y="208"/>
			<point x="60" y="143" type="curve"/>
			<point x="129" y="57"/>
			<point x="238" y="210"/>
		</contour>
	</outline>
</glyph>
<glyph name="uni98CE" format="2">
	<advance width="1000" height="1000"/>
	<unicode hex="98CE"/>
	<note>
		cid44176
	</note>
	<outline>
		<contour>
			<point x="306" y="566" type="curve"/>
			<point x="295" y="558" type="line"/>
			<point x="395" y="446"/>
			<point x="512" y="283"/>
			<point x="551" y="126" type="curve"/>
			<point x="699" y="13"/>
			<point x="777" y="338"/>
		</contour>
		<contour>
			<point x="679" y="633" type="curve"/>
			<point x="509" y="687" type="line"/>
			<point x="467" y="431"/>
			<point x="357" y="198"/>
			<point x="232" y="49" type="curve"/>
			<point x="243" y="40" type="line"/>
			<point x="429" y="161"/>
			<point x="557" y="340"/>
			<point x="639" y="613" type="curve"/>
			<point x="662" y="612"/>
			<point x="674" y="620"/>
		</contour>
		<contour>
			<point x="857" y="750" type="curve"/>
			<point x="726" y="860" type="line"/>
			<point x="656" y="780" type="line"/>
			<point x="669" y="780" type="line"/>
			<point x="661" y="447"/>
			<point x="657" y="58"/>
			<point x="821" y="-51" type="curve"/>
			<point x="869" y="-87"/>
			<point x="924" y="-106"/>
			<point x="966" y="-65" type="curve" smooth="yes"/>
			<point x="985" y="-46"/>
			<point x="982" y="6"/>
			<point x="954" y="68" type="curve"/>
			<point x="962" y="251" type="line"/>
			<point x="953" y="252" type="line"/>
			<point x="942" y="207"/>
			<point x="932" y="170"/>
			<point x="918" y="135" type="curve" smooth="yes"/>
			<point x="912" y="121"/>
			<point x="906" y="117"/>
			<point x="893" y="124" type="curve"/>
			<point x="796" y="167"/>
			<point x="794" y="523"/>
			<point x="812" y="730" type="curve"/>
			<point x="836" y="735"/>
			<point x="850" y="742"/>
		</contour>
		<contour>
			<point x="728" y="752" type="line"/>
			<point x="728" y="780" type="line"/>
			<point x="229" y="780" type="line"/>
			<point x="229" y="752" type="line"/>
		</contour>
		<contour>
			<point x="144" y="836" type="line"/>
			<point x="144" y="790" type="line"/>
			<point x="144" y="413" type="line" smooth="yes"/>
			<point x="144" y="224"/>
			<point x="136" y="48"/>
			<point x="24" y="-90" type="curve"/>
			<point x="32" y="-96" type="line"/>
			<point x="277" y="32"/>
			<point x="289" y="225"/>
			<point x="289" y="414" type="curve" smooth="yes"/>
			<point x="289" y="780" type="line"/>
			<point x="311" y="780" type="line"/>
		</contour>
	</outline>
</glyph>
<glyph name="uni9963" format="2">
	<advance width="1000" height="1000"/>
	<unicode hex="9963"/>
	<note>
		cid44549
	</note>
	<outline>
		<contour>
			<point x="343" y="837" type="curve"/>
			<point x="142" y="856" type="line"/>
			<point x="123" y="721"/>
			<point x="76" y="535"/>
			<point x="24" y="430" type="curve"/>
			<point x="32" y="424" type="line"/>
			<point x="148" y="519"/>
			<point x="246" y="679"/>
			<point x="307" y="817" type="curve"/>
			<point x="334" y="819"/>
			<point x="341" y="825"/>
		</contour>
		<contour>
			<point x="557" y="640" type="curve"/>
			<point x="429" y="749" type="line"/>
			<point x="356" y="675" type="line"/>
			<point x="368" y="675" type="line"/>
			<point x="366" y="627"/>
			<point x="357" y="531"/>
			<point x="346" y="477" type="curve"/>
			<point x="356" y="473" type="line"/>
			<point x="413" y="510"/>
			<point x="476" y="578"/>
			<point x="517" y="626" type="curve"/>
			<point x="538" y="628"/>
			<point x="549" y="631"/>
		</contour>
		<contour>
			<point x="480" y="647" type="line"/>
			<point x="480" y="675" type="line"/>
			<point x="158" y="675" type="line"/>
			<point x="149" y="647" type="line"/>
		</contour>
		<contour>
			<point x="342" y="506" type="curve"/>
			<point x="166" y="523" type="line"/>
			<point x="166" y="44" type="line"/>
			<point x="194" y="44" type="line" smooth="yes"/>
			<point x="250" y="44"/>
			<point x="314" y="79"/>
			<point x="314" y="94" type="curve" smooth="yes"/>
			<point x="314" y="485" type="line"/>
			<point x="330" y="486"/>
			<point x="341" y="494"/>
		</contour>
		<contour>
			<point x="69" y="64" type="curve"/>
			<point x="169" y="-85" type="line"/>
			<point x="184" y="-79"/>
			<point x="194" y="-67"/>
			<point x="195" y="-54" type="curve"/>
			<point x="311" y="31"/>
			<point x="420" y="118"/>
			<point x="477" y="171" type="curve"/>
			<point x="475" y="181" type="line"/>
			<point x="302" y="125"/>
			<point x="145" y="80"/>
		</contour>
	</outline>
</glyph>
<glyph name="uni4FDE.inherited" format="2">
	<advance width="1000" height="1000"/>
	<note>
		cid10190
	</note>
	<outline>
		<contour>
			<point x="259" y="-50" type="curve" smooth="yes"/>
			<point x="259" y="394" type="line"/>
			<point x="445" y="394" type="line"/>
			<point x="445" y="422" type="line"/>
			<point x="264" y="422" type="line"/>
			<point x="129" y="476" type="line"/>
			<point x="129" y="-93" type="line"/>
			<point x="149" y="-93" type="line" smooth="yes"/>
			<point x="205" y="-93"/>
			<point x="259" y="-63"/>
		</contour>
		<contour>
			<point x="245" y="196" type="curve"/>
			<point x="237" y="190" type="line"/>
			<point x="256" y="170"/>
			<point x="277" y="131"/>
			<point x="280" y="97" type="curve"/>
			<point x="370" y="37"/>
			<point x="459" y="201"/>
		</contour>
		<contour>
			<point x="249" y="344" type="curve"/>
			<point x="241" y="338" type="line"/>
			<point x="259" y="318"/>
			<point x="279" y="281"/>
			<point x="281" y="247" type="curve"/>
			<point x="369" y="188"/>
			<point x="459" y="346"/>
		</contour>
		<contour>
			<point x="537" y="394" type="curve"/>
			<point x="413" y="488" type="line"/>
			<point x="355" y="422" type="line"/>
			<point x="365" y="422" type="line"/>
			<point x="365" y="38" type="line" smooth="yes"/>
			<point x="365" y="28"/>
			<point x="362" y="22"/>
			<point x="349" y="22" type="curve" smooth="yes"/>
			<point x="334" y="22"/>
			<point x="286" y="25"/>
			<point x="286" y="25" type="curve"/>
			<point x="286" y="13" type="line"/>
			<point x="321" y="6"/>
			<point x="331" y="-7"/>
			<point x="340" y="-21" type="curve" smooth="yes"/>
			<point x="349" y="-37"/>
			<point x="351" y="-62"/>
			<point x="352" y="-97" type="curve"/>
			<point x="480" y="-87"/>
			<point x="497" y="-47"/>
			<point x="497" y="29" type="curve" smooth="yes"/>
			<point x="497" y="372" type="line"/>
			<point x="518" y="376"/>
			<point x="531" y="386"/>
		</contour>
		<contour>
			<point x="550" y="771" type="curve"/>
			<point x="611" y="631"/>
			<point x="743" y="540"/>
			<point x="885" y="482" type="curve"/>
			<point x="893" y="539"/>
			<point x="931" y="609"/>
			<point x="992" y="628" type="curve"/>
			<point x="993" y="645" type="line"/>
			<point x="859" y="657"/>
			<point x="660" y="691"/>
			<point x="565" y="782" type="curve"/>
			<point x="602" y="787"/>
			<point x="615" y="793"/>
			<point x="620" y="808" type="curve"/>
			<point x="408" y="863" type="line"/>
			<point x="371" y="740"/>
			<point x="194" y="554"/>
			<point x="21" y="454" type="curve"/>
			<point x="27" y="444" type="line"/>
			<point x="227" y="504"/>
			<point x="451" y="639"/>
		</contour>
		<contour>
			<point x="582" y="628" type="curve"/>
			<point x="515" y="547" type="line"/>
			<point x="307" y="547" type="line"/>
			<point x="315" y="519" type="line"/>
			<point x="677" y="519" type="line" smooth="yes"/>
			<point x="691" y="519"/>
			<point x="702" y="524"/>
			<point x="705" y="535" type="curve"/>
			<point x="658" y="574"/>
			<point x="582" y="628"/>
		</contour>
		<contour>
			<point x="740" y="445" type="curve"/>
			<point x="565" y="483" type="line"/>
			<point x="562" y="426"/>
			<point x="545" y="293"/>
			<point x="531" y="207" type="curve"/>
			<point x="574" y="139"/>
			<point x="594" y="6"/>
			<point x="595" y="-73" type="curve"/>
			<point x="690" y="-154"/>
			<point x="863" y="25"/>
			<point x="555" y="211" type="curve"/>
			<point x="607" y="275"/>
			<point x="676" y="379"/>
			<point x="706" y="426" type="curve"/>
			<point x="725" y="427"/>
			<point x="737" y="433"/>
		</contour>
		<contour>
			<point x="937" y="421" type="curve"/>
			<point x="762" y="471" type="line"/>
			<point x="750" y="416"/>
			<point x="706" y="282"/>
			<point x="678" y="200" type="curve"/>
			<point x="743" y="138"/>
			<point x="787" y="11"/>
			<point x="799" y="-75" type="curve"/>
			<point x="909" y="-154"/>
			<point x="1072" y="49"/>
			<point x="705" y="204" type="curve"/>
			<point x="770" y="264"/>
			<point x="865" y="361"/>
			<point x="901" y="404" type="curve"/>
			<point x="920" y="403"/>
			<point x="933" y="409"/>
		</contour>
	</outline>
</glyph>
<glyph name="uni55B3.JP" format="2">
	<advance width="1000" height="1000"/>
	<note>
		cid12584
	</note>
	<outline>
		<contour>
			<point x="173" y="109" type="curve" smooth="yes"/>
			<point x="173" y="641" type="line"/>
			<point x="267" y="641" type="line"/>
			<point x="267" y="669" type="line"/>
			<point x="177" y="669" type="line"/>
			<point x="57" y="719" type="line"/>
			<point x="57" y="69" type="line"/>
			<point x="75" y="69" type="line" smooth="yes"/>
			<point x="126" y="69"/>
			<point x="173" y="96"/>
		</contour>
		<contour>
			<point x="377" y="642" type="curve"/>
			<point x="264" y="730" type="line"/>
			<point x="207" y="669" type="line"/>
			<point x="217" y="669" type="line"/>
			<point x="217" y="118" type="line"/>
			<point x="238" y="118" type="line" smooth="yes"/>
			<point x="280" y="118"/>
			<point x="340" y="143"/>
			<point x="342" y="151" type="curve"/>
			<point x="342" y="624" type="line"/>
			<point x="360" y="627"/>
			<point x="372" y="635"/>
		</contour>
		<contour>
			<point x="267" y="213" type="line"/>
			<point x="267" y="241" type="line"/>
			<point x="123" y="241" type="line"/>
			<point x="123" y="213" type="line"/>
		</contour>
		<contour>
			<point x="844" y="803" type="curve"/>
			<point x="774" y="707" type="line"/>
			<point x="356" y="707" type="line"/>
			<point x="364" y="679" type="line"/>
			<point x="941" y="679" type="line" smooth="yes"/>
			<point x="955" y="679"/>
			<point x="966" y="684"/>
			<point x="969" y="695" type="curve"/>
			<point x="923" y="738"/>
			<point x="844" y="803"/>
		</contour>
		<contour>
			<point x="751" y="834" type="curve"/>
			<point x="574" y="849" type="line"/>
			<point x="574" y="406" type="line"/>
			<point x="599" y="406" type="line" smooth="yes"/>
			<point x="654" y="406"/>
			<point x="714" y="427"/>
			<point x="714" y="436" type="curve" smooth="yes"/>
			<point x="714" y="805" type="line"/>
			<point x="742" y="810"/>
			<point x="749" y="820"/>
		</contour>
		<contour>
			<point x="685" y="691" type="curve"/>
			<point x="685" y="707" type="line"/>
			<point x="537" y="707" type="line"/>
			<point x="495" y="592"/>
			<point x="421" y="480"/>
			<point x="344" y="415" type="curve"/>
			<point x="353" y="403" type="line"/>
			<point x="505" y="472"/>
			<point x="633" y="583"/>
		</contour>
		<contour>
			<point x="715" y="703" type="curve"/>
			<point x="705" y="698" type="line"/>
			<point x="744" y="559"/>
			<point x="807" y="462"/>
			<point x="895" y="405" type="curve"/>
			<point x="910" y="469"/>
			<point x="943" y="510"/>
			<point x="990" y="522" type="curve"/>
			<point x="992" y="533" type="line"/>
			<point x="865" y="568"/>
			<point x="774" y="624"/>
		</contour>
		<contour>
			<point x="441" y="423" type="line"/>
			<point x="441" y="-53" type="line"/>
			<point x="574" y="-53" type="line"/>
			<point x="574" y="342" type="line"/>
			<point x="721" y="342" type="line"/>
			<point x="721" y="-53" type="line"/>
			<point x="860" y="-53" type="line"/>
			<point x="860" y="329" type="line"/>
			<point x="886" y="334"/>
			<point x="898" y="339"/>
			<point x="905" y="350" type="curve"/>
			<point x="768" y="443" type="line"/>
			<point x="711" y="370" type="line"/>
			<point x="582" y="370" type="line"/>
		</contour>
		<contour>
			<point x="771" y="212" type="line"/>
			<point x="771" y="240" type="line"/>
			<point x="524" y="240" type="line"/>
			<point x="524" y="212" type="line"/>
		</contour>
		<contour>
			<point x="771" y="76" type="line"/>
			<point x="771" y="104" type="line"/>
			<point x="524" y="104" type="line"/>
			<point x="524" y="76" type="line"/>
		</contour>
		<contour>
			<point x="904" y="54" type="curve"/>
			<point x="851" y="-39" type="line"/>
			<point x="302" y="-39" type="line"/>
			<point x="310" y="-67" type="line"/>
			<point x="969" y="-67" type="line" smooth="yes"/>
			<point x="983" y="-67"/>
			<point x="993" y="-62"/>
			<point x="995" y="-51" type="curve"/>
			<point x="965" y="-11"/>
			<point x="904" y="54"/>
		</contour>
	</outline>
</glyph>
<glyph name="uni567A.HK" format="2">
	<advance width="1000" height="1000"/>
	<note>
		cid12936
	</note>
	<outline>
		<contour>
			<point x="578" y="754" type="curve"/>
			<point x="529" y="688" type="line"/>
			<point x="304" y="688" type="line"/>
			<point x="312" y="660" type="line"/>
			<point x="636" y="660" type="line" smooth="yes"/>
			<point x="650" y="660"/>
			<point x="660" y="665"/>
			<point x="663" y="676" type="curve"/>
			<point x="632" y="708"/>
			<point x="578" y="754"/>
		</contour>
		<contour>
			<point x="901" y="609" type="curve"/>
			<point x="846" y="521" type="line"/>
			<point x="690" y="521" type="line"/>
			<point x="690" y="493" type="line"/>
			<point x="969" y="493" type="line" smooth="yes"/>
			<point x="983" y="493"/>
			<point x="993" y="498"/>
			<point x="996" y="509" type="curve"/>
			<point x="963" y="548"/>
			<point x="901" y="609"/>
		</contour>
		<contour>
			<point x="348" y="654" type="curve"/>
			<point x="337" y="650" type="line"/>
			<point x="352" y="605"/>
			<point x="356" y="551"/>
			<point x="347" y="510" type="curve"/>
			<point x="419" y="427"/>
			<point x="550" y="569"/>
		</contour>
		<contour>
			<point x="524" y="246" type="curve"/>
			<point x="515" y="241" type="line"/>
			<point x="538" y="207"/>
			<point x="557" y="154"/>
			<point x="554" y="107" type="curve"/>
			<point x="644" y="26"/>
			<point x="758" y="201"/>
		</contour>
		<contour>
			<point x="925" y="-62" type="curve" smooth="yes"/>
			<point x="925" y="521" type="line"/>
			<point x="804" y="521" type="line"/>
			<point x="804" y="-95" type="line"/>
			<point x="826" y="-95" type="line" smooth="yes"/>
			<point x="888" y="-95"/>
			<point x="925" y="-70"/>
		</contour>
		<contour>
			<point x="652" y="742" type="line"/>
			<point x="652" y="732" type="line"/>
			<point x="652" y="416" type="line" smooth="yes"/>
			<point x="652" y="239"/>
			<point x="647" y="58"/>
			<point x="558" y="-83" type="curve"/>
			<point x="568" y="-91" type="line"/>
			<point x="762" y="43"/>
			<point x="772" y="244"/>
			<point x="772" y="417" type="curve" smooth="yes"/>
			<point x="772" y="732" type="line"/>
			<point x="790" y="732" type="line"/>
			<point x="652" y="781" type="line"/>
		</contour>
		<contour>
			<point x="518" y="317" type="curve"/>
			<point x="518" y="333" type="line"/>
			<point x="380" y="333" type="line"/>
			<point x="349" y="204"/>
			<point x="287" y="74"/>
			<point x="191" y="-14" type="curve"/>
			<point x="200" y="-26" type="line"/>
			<point x="357" y="54"/>
			<point x="466" y="168"/>
		</contour>
		<contour>
			<point x="641" y="622" type="curve"/>
			<point x="500" y="658" type="line"/>
			<point x="497" y="598"/>
			<point x="489" y="528"/>
			<point x="479" y="476" type="curve"/>
			<point x="489" y="473" type="line"/>
			<point x="524" y="506"/>
			<point x="569" y="556"/>
			<point x="605" y="601" type="curve"/>
			<point x="628" y="600"/>
			<point x="639" y="612"/>
		</contour>
		<contour>
			<point x="56" y="780" type="line"/>
			<point x="56" y="732" type="line"/>
			<point x="56" y="71" type="line"/>
			<point x="74" y="71" type="line" smooth="yes"/>
			<point x="123" y="71"/>
			<point x="166" y="98"/>
			<point x="166" y="110" type="curve" smooth="yes"/>
			<point x="166" y="704" type="line"/>
			<point x="256" y="704" type="line"/>
			<point x="256" y="732" type="line"/>
			<point x="170" y="732" type="line"/>
		</contour>
		<contour>
			<point x="188" y="732" type="line"/>
			<point x="197" y="732" type="line"/>
			<point x="197" y="152" type="line"/>
			<point x="216" y="152" type="line" smooth="yes"/>
			<point x="256" y="152"/>
			<point x="311" y="176"/>
			<point x="312" y="184" type="curve"/>
			<point x="312" y="691" type="line"/>
			<point x="328" y="694"/>
			<point x="338" y="701"/>
			<point x="343" y="707" type="curve"/>
			<point x="240" y="787" type="line"/>
		</contour>
		<contour>
			<point x="245" y="257" type="line"/>
			<point x="104" y="257" type="line"/>
			<point x="104" y="229" type="line"/>
			<point x="245" y="229" type="line"/>
		</contour>
		<contour>
			<point x="579" y="550" type="curve"/>
			<point x="527" y="478" type="line"/>
			<point x="300" y="478" type="line"/>
			<point x="308" y="450" type="line"/>
			<point x="647" y="450" type="line" smooth="yes"/>
			<point x="661" y="450"/>
			<point x="671" y="455"/>
			<point x="674" y="466" type="curve"/>
			<point x="639" y="500"/>
			<point x="579" y="550"/>
		</contour>
		<contour>
			<point x="576" y="410" type="curve"/>
			<point x="524" y="333" type="line"/>
			<point x="293" y="333" type="line"/>
			<point x="301" y="305" type="line"/>
			<point x="642" y="305" type="line" smooth="yes"/>
			<point x="656" y="305"/>
			<point x="666" y="310"/>
			<point x="668" y="321" type="curve"/>
			<point x="635" y="357"/>
			<point x="576" y="410"/>
		</contour>
		<contour>
			<point x="978" y="727" type="curve"/>
			<point x="856" y="846" type="line"/>
			<point x="830" y="809"/>
			<point x="762" y="731"/>
			<point x="713" y="690" type="curve"/>
			<point x="717" y="682" type="line"/>
			<point x="797" y="688"/>
			<point x="896" y="711"/>
			<point x="940" y="726" type="curve"/>
			<point x="957" y="718"/>
			<point x="970" y="718"/>
		</contour>
		<contour>
			<point x="556" y="426" type="curve"/>
			<point x="407" y="440" type="line"/>
			<point x="407" y="-95" type="line"/>
			<point x="430" y="-95" type="line" smooth="yes"/>
			<point x="474" y="-95"/>
			<point x="526" y="-76"/>
			<point x="526" y="-68" type="curve" smooth="yes"/>
			<point x="526" y="402" type="line"/>
			<point x="548" y="405"/>
			<point x="555" y="414"/>
		</contour>
		<contour>
			<point x="533" y="860" type="curve"/>
			<point x="486" y="794" type="line"/>
			<point x="349" y="794" type="line"/>
			<point x="357" y="766" type="line"/>
			<point x="592" y="766" type="line" smooth="yes"/>
			<point x="606" y="766"/>
			<point x="616" y="771"/>
			<point x="618" y="782" type="curve"/>
			<point x="587" y="814"/>
			<point x="533" y="860"/>
		</contour>
	</outline>
</glyph>
<glyph name="uni5AFA.HK" format="2">
	<advance width="1000" height="1000"/>
	<note>
		cid15135
	</note>
	<outline>
		<contour>
			<point x="556" y="654" type="line"/>
			<point x="405" y="654" type="line"/>
			<point x="405" y="626" type="line"/>
			<point x="556" y="626" type="line"/>
		</contour>
		<contour>
			<point x="556" y="524" type="line"/>
			<point x="405" y="524" type="line"/>
			<point x="405" y="496" type="line"/>
			<point x="556" y="496" type="line"/>
		</contour>
		<contour>
			<point x="714" y="396" type="line"/>
			<point x="549" y="396" type="line"/>
			<point x="549" y="368" type="line"/>
			<point x="714" y="368" type="line"/>
		</contour>
		<contour>
			<point x="864" y="654" type="line"/>
			<point x="713" y="654" type="line"/>
			<point x="713" y="626" type="line"/>
			<point x="864" y="626" type="line"/>
		</contour>
		<contour>
			<point x="864" y="524" type="line"/>
			<point x="713" y="524" type="line"/>
			<point x="713" y="496" type="line"/>
			<point x="864" y="496" type="line"/>
		</contour>
		<contour>
			<point x="502" y="780" type="line"/>
			<point x="511" y="780" type="line"/>
			<point x="511" y="439" type="line"/>
			<point x="530" y="439" type="line" smooth="yes"/>
			<point x="566" y="439"/>
			<point x="620" y="460"/>
			<point x="621" y="467" type="curve"/>
			<point x="621" y="739" type="line"/>
			<point x="637" y="742"/>
			<point x="648" y="749"/>
			<point x="653" y="756" type="curve"/>
			<point x="552" y="832" type="line"/>
		</contour>
		<contour>
			<point x="658" y="826" type="line"/>
			<point x="658" y="780" type="line"/>
			<point x="658" y="447" type="line"/>
			<point x="674" y="447" type="line" smooth="yes"/>
			<point x="722" y="447"/>
			<point x="770" y="472"/>
			<point x="770" y="482" type="curve" smooth="yes"/>
			<point x="770" y="752" type="line"/>
			<point x="870" y="752" type="line"/>
			<point x="870" y="780" type="line"/>
			<point x="774" y="780" type="line"/>
		</contour>
		<contour>
			<point x="352" y="832" type="line"/>
			<point x="352" y="780" type="line"/>
			<point x="352" y="-95" type="line"/>
			<point x="372" y="-95" type="line" smooth="yes"/>
			<point x="425" y="-95"/>
			<point x="468" y="-66"/>
			<point x="468" y="-51" type="curve" smooth="yes"/>
			<point x="468" y="752" type="line"/>
			<point x="570" y="752" type="line"/>
			<point x="570" y="780" type="line"/>
			<point x="472" y="780" type="line"/>
		</contour>
		<contour>
			<point x="805" y="780" type="line"/>
			<point x="815" y="780" type="line"/>
			<point x="815" y="66" type="line" smooth="yes"/>
			<point x="815" y="55"/>
			<point x="812" y="48"/>
			<point x="798" y="48" type="curve" smooth="yes"/>
			<point x="782" y="48"/>
			<point x="728" y="52"/>
			<point x="728" y="52" type="curve"/>
			<point x="728" y="38" type="line"/>
			<point x="762" y="31"/>
			<point x="776" y="16"/>
			<point x="786" y="-3" type="curve" smooth="yes"/>
			<point x="795" y="-23"/>
			<point x="798" y="-54"/>
			<point x="800" y="-97" type="curve"/>
			<point x="927" y="-85"/>
			<point x="943" y="-37"/>
			<point x="943" y="52" type="curve" smooth="yes"/>
			<point x="943" y="731" type="line"/>
			<point x="964" y="735"/>
			<point x="977" y="744"/>
			<point x="984" y="752" type="curve"/>
			<point x="864" y="847" type="line"/>
		</contour>
		<contour>
			<point x="663" y="396" type="line"/>
			<point x="671" y="396" type="line"/>
			<point x="671" y="98" type="line" smooth="yes"/>
			<point x="671" y="87"/>
			<point x="668" y="82"/>
			<point x="657" y="82" type="curve" smooth="yes"/>
			<point x="644" y="82"/>
			<point x="598" y="85"/>
			<point x="598" y="85" type="curve"/>
			<point x="598" y="70" type="line"/>
			<point x="626" y="65"/>
			<point x="638" y="54"/>
			<point x="646" y="39" type="curve" smooth="yes"/>
			<point x="655" y="24"/>
			<point x="657" y="-2"/>
			<point x="658" y="-33" type="curve"/>
			<point x="757" y="-24"/>
			<point x="770" y="15"/>
			<point x="770" y="87" type="curve" smooth="yes"/>
			<point x="770" y="358" type="line"/>
			<point x="784" y="361"/>
			<point x="795" y="367"/>
			<point x="799" y="373" type="curve"/>
			<point x="704" y="443" type="line"/>
		</contour>
		<contour>
			<point x="516" y="439" type="line"/>
			<point x="516" y="396" type="line"/>
			<point x="516" y="234" type="line" smooth="yes"/>
			<point x="516" y="137"/>
			<point x="513" y="42"/>
			<point x="482" y="-29" type="curve"/>
			<point x="492" y="-38" type="line"/>
			<point x="592" y="28"/>
			<point x="614" y="128"/>
			<point x="614" y="234" type="curve" smooth="yes"/>
			<point x="614" y="396" type="line"/>
			<point x="631" y="396" type="line"/>
		</contour>
		<contour>
			<point x="302" y="633" type="line"/>
			<point x="23" y="633" type="line"/>
			<point x="32" y="605" type="line"/>
			<point x="302" y="605" type="line"/>
		</contour>
		<contour>
			<point x="259" y="832" type="curve"/>
			<point x="112" y="853" type="line"/>
			<point x="107" y="709"/>
			<point x="59" y="352"/>
			<point x="22" y="188" type="curve"/>
			<point x="71" y="176"/>
			<point x="117" y="181"/>
			<point x="137" y="197" type="curve"/>
			<point x="169" y="363"/>
			<point x="209" y="679"/>
			<point x="221" y="806" type="curve"/>
			<point x="248" y="808"/>
			<point x="256" y="818"/>
		</contour>
		<contour>
			<point x="130" y="284" type="curve"/>
			<point x="120" y="278" type="line"/>
			<point x="172" y="219"/>
			<point x="224" y="127"/>
			<point x="233" y="48" type="curve"/>
			<point x="341" y="-35"/>
			<point x="433" y="195"/>
		</contour>
		<contour>
			<point x="220" y="633" type="line"/>
			<point x="231" y="633" type="line"/>
			<point x="224" y="367"/>
			<point x="196" y="95"/>
			<point x="11" y="-78" type="curve"/>
			<point x="21" y="-89" type="line"/>
			<point x="288" y="67"/>
			<point x="324" y="331"/>
			<point x="341" y="586" type="curve"/>
			<point x="362" y="590"/>
			<point x="371" y="594"/>
			<point x="378" y="604" type="curve"/>
			<point x="275" y="693" type="line"/>
		</contour>
		<contour>
			<point x="652" y="335" type="curve"/>
			<point x="622" y="289" type="line"/>
			<point x="554" y="289" type="line"/>
			<point x="554" y="261" type="line"/>
			<point x="682" y="261" type="line" smooth="yes"/>
			<point x="695" y="261"/>
			<point x="704" y="266"/>
			<point x="706" y="277" type="curve"/>
			<point x="688" y="300"/>
			<point x="652" y="335"/>
		</contour>
		<contour>
			<point x="652" y="230" type="curve"/>
			<point x="622" y="184" type="line"/>
			<point x="554" y="184" type="line"/>
			<point x="554" y="156" type="line"/>
			<point x="682" y="156" type="line" smooth="yes"/>
			<point x="695" y="156"/>
			<point x="704" y="161"/>
			<point x="706" y="172" type="curve"/>
			<point x="688" y="195"/>
			<point x="652" y="230"/>
		</contour>
	</outline>
</glyph>
<glyph name="uni5C44.JP" format="2">
	<advance width="1000" height="1000"/>
	<note>
		cid15786
	</note>
	<outline>
		<contour>
			<point x="842" y="777" type="line"/>
			<point x="192" y="777" type="line"/>
			<point x="192" y="749" type="line"/>
			<point x="842" y="749" type="line"/>
		</contour>
		<contour>
			<point x="742" y="777" type="line"/>
			<point x="752" y="777" type="line"/>
			<point x="752" y="524" type="line"/>
			<point x="778" y="524" type="line" smooth="yes"/>
			<point x="824" y="524"/>
			<point x="899" y="547"/>
			<point x="900" y="553" type="curve"/>
			<point x="900" y="725" type="line"/>
			<point x="921" y="730"/>
			<point x="933" y="739"/>
			<point x="939" y="747" type="curve"/>
			<point x="805" y="847" type="line"/>
		</contour>
		<contour>
			<point x="842" y="601" type="line"/>
			<point x="192" y="601" type="line"/>
			<point x="192" y="573" type="line"/>
			<point x="842" y="573" type="line"/>
		</contour>
		<contour>
			<point x="140" y="832" type="line"/>
			<point x="140" y="506" type="line" smooth="yes"/>
			<point x="140" y="309"/>
			<point x="130" y="91"/>
			<point x="16" y="-81" type="curve"/>
			<point x="24" y="-87" type="line"/>
			<point x="271" y="68"/>
			<point x="282" y="324"/>
			<point x="282" y="506" type="curve" smooth="yes"/>
			<point x="282" y="777" type="line"/>
			<point x="303" y="777" type="line"/>
		</contour>
		<contour>
			<point x="687" y="538" type="curve"/>
			<point x="517" y="551" type="line"/>
			<point x="517" y="416" type="line"/>
			<point x="655" y="416" type="line"/>
			<point x="655" y="512" type="line"/>
			<point x="679" y="516"/>
			<point x="686" y="525"/>
		</contour>
		<contour>
			<point x="376" y="508" type="curve"/>
			<point x="363" y="508" type="line"/>
			<point x="366" y="467"/>
			<point x="331" y="420"/>
			<point x="307" y="402" type="curve" smooth="yes"/>
			<point x="285" y="386"/>
			<point x="256" y="364"/>
			<point x="267" y="321" type="curve" smooth="yes"/>
			<point x="279" y="274"/>
			<point x="342" y="264"/>
			<point x="370" y="291" type="curve" smooth="yes"/>
			<point x="421" y="342"/>
			<point x="401" y="447"/>
		</contour>
		<contour>
			<point x="850" y="431" type="line"/>
			<point x="370" y="431" type="line"/>
			<point x="370" y="403" type="line"/>
			<point x="850" y="403" type="line"/>
		</contour>
		<contour>
			<point x="772" y="431" type="line"/>
			<point x="782" y="431" type="line"/>
			<point x="779" y="394"/>
			<point x="771" y="344"/>
			<point x="763" y="301" type="curve"/>
			<point x="772" y="295" type="line"/>
			<point x="812" y="316"/>
			<point x="869" y="353"/>
			<point x="902" y="379" type="curve"/>
			<point x="923" y="380"/>
			<point x="933" y="382"/>
			<point x="941" y="391" type="curve"/>
			<point x="834" y="493" type="line"/>
		</contour>
		<contour>
			<point x="588" y="315" type="curve"/>
			<point x="413" y="338" type="line"/>
			<point x="427" y="179"/>
			<point x="400" y="17"/>
			<point x="181" y="-81" type="curve"/>
			<point x="187" y="-93" type="line"/>
			<point x="481" y="-22"/>
			<point x="536" y="119"/>
			<point x="550" y="288" type="curve"/>
			<point x="575" y="289"/>
			<point x="585" y="299"/>
		</contour>
		<contour>
			<point x="765" y="321" type="curve"/>
			<point x="603" y="334" type="line"/>
			<point x="603" y="31" type="line" smooth="yes"/>
			<point x="603" y="-50"/>
			<point x="620" y="-74"/>
			<point x="718" y="-74" type="curve" smooth="yes"/>
			<point x="742" y="-74"/>
			<point x="766" y="-74"/>
			<point x="790" y="-74" type="curve" smooth="yes"/>
			<point x="920" y="-74"/>
			<point x="967" y="-53"/>
			<point x="967" y="-2" type="curve" smooth="yes"/>
			<point x="967" y="21"/>
			<point x="960" y="35"/>
			<point x="929" y="49" type="curve"/>
			<point x="925" y="152" type="line"/>
			<point x="915" y="152" type="line"/>
			<point x="897" y="105"/>
			<point x="881" y="67"/>
			<point x="871" y="53" type="curve" smooth="yes"/>
			<point x="864" y="45"/>
			<point x="855" y="42"/>
			<point x="845" y="42" type="curve" smooth="yes"/>
			<point x="835" y="42"/>
			<point x="820" y="42"/>
			<point x="806" y="42" type="curve" smooth="yes"/>
			<point x="789" y="42"/>
			<point x="773" y="42"/>
			<point x="756" y="42" type="curve" smooth="yes"/>
			<point x="737" y="42"/>
			<point x="734" y="46"/>
			<point x="734" y="59" type="curve" smooth="yes"/>
			<point x="734" y="295" type="line"/>
			<point x="755" y="298"/>
			<point x="764" y="308"/>
		</contour>
	</outline>
</glyph>
<glyph name="uni65B0.HK" format="2">
	<advance width="1000" height="1000"/>
	<note>
		cid20073
	</note>
	<outline>
		<contour>
			<point x="363" y="860" type="curve"/>
			<point x="316" y="794" type="line"/>
			<point x="109" y="794" type="line"/>
			<point x="117" y="766" type="line"/>
			<point x="422" y="766" type="line" smooth="yes"/>
			<point x="436" y="766"/>
			<point x="446" y="771"/>
			<point x="448" y="782" type="curve"/>
			<point x="417" y="814"/>
			<point x="363" y="860"/>
		</contour>
		<contour>
			<point x="426" y="755" type="curve"/>
			<point x="377" y="687" type="line"/>
			<point x="40" y="687" type="line"/>
			<point x="48" y="659" type="line"/>
			<point x="489" y="659" type="line" smooth="yes"/>
			<point x="503" y="659"/>
			<point x="513" y="664"/>
			<point x="516" y="675" type="curve"/>
			<point x="483" y="707"/>
			<point x="426" y="755"/>
		</contour>
		<contour>
			<point x="127" y="663" type="curve"/>
			<point x="117" y="659" type="line"/>
			<point x="135" y="609"/>
			<point x="145" y="551"/>
			<point x="143" y="510" type="curve"/>
			<point x="224" y="424"/>
			<point x="344" y="578"/>
		</contour>
		<contour>
			<point x="473" y="624" type="curve"/>
			<point x="330" y="668" type="line"/>
			<point x="323" y="611"/>
			<point x="307" y="529"/>
			<point x="291" y="474" type="curve"/>
			<point x="303" y="474" type="line"/>
			<point x="353" y="515"/>
			<point x="403" y="567"/>
			<point x="436" y="606" type="curve"/>
			<point x="458" y="604"/>
			<point x="469" y="612"/>
		</contour>
		<contour>
			<point x="445" y="564" type="curve"/>
			<point x="386" y="481" type="line"/>
			<point x="24" y="481" type="line"/>
			<point x="32" y="453" type="line"/>
			<point x="524" y="453" type="line" smooth="yes"/>
			<point x="538" y="453"/>
			<point x="548" y="458"/>
			<point x="551" y="469" type="curve"/>
			<point x="512" y="507"/>
			<point x="445" y="564"/>
		</contour>
		<contour>
			<point x="424" y="412" type="curve"/>
			<point x="368" y="333" type="line"/>
			<point x="34" y="333" type="line"/>
			<point x="42" y="305" type="line"/>
			<point x="497" y="305" type="line" smooth="yes"/>
			<point x="511" y="305"/>
			<point x="521" y="310"/>
			<point x="524" y="321" type="curve"/>
			<point x="487" y="358"/>
			<point x="424" y="412"/>
		</contour>
		<contour>
			<point x="369" y="427" type="curve"/>
			<point x="201" y="442" type="line"/>
			<point x="201" y="-95" type="line"/>
			<point x="226" y="-95" type="line" smooth="yes"/>
			<point x="277" y="-95"/>
			<point x="338" y="-70"/>
			<point x="338" y="-59" type="curve" smooth="yes"/>
			<point x="338" y="403" type="line"/>
			<point x="361" y="406"/>
			<point x="368" y="416"/>
		</contour>
		<contour>
			<point x="332" y="317" type="curve"/>
			<point x="332" y="333" type="line"/>
			<point x="184" y="333" type="line"/>
			<point x="154" y="220"/>
			<point x="98" y="90"/>
			<point x="21" y="3" type="curve"/>
			<point x="31" y="-8" type="line"/>
			<point x="168" y="71"/>
			<point x="279" y="181"/>
		</contour>
		<contour>
			<point x="344" y="282" type="curve"/>
			<point x="335" y="277" type="line"/>
			<point x="362" y="238"/>
			<point x="387" y="178"/>
			<point x="388" y="124" type="curve"/>
			<point x="489" y="41"/>
			<point x="605" y="236"/>
		</contour>
		<contour>
			<point x="969" y="741" type="curve"/>
			<point x="824" y="856" type="line"/>
			<point x="781" y="809"/>
			<point x="693" y="738"/>
			<point x="619" y="698" type="curve"/>
			<point x="622" y="687" type="line"/>
			<point x="723" y="695"/>
			<point x="834" y="715"/>
			<point x="902" y="737" type="curve"/>
			<point x="936" y="727"/>
			<point x="957" y="730"/>
		</contour>
		<contour>
			<point x="706" y="721" type="curve"/>
			<point x="538" y="773" type="line"/>
			<point x="538" y="433" type="line" smooth="yes"/>
			<point x="538" y="250"/>
			<point x="526" y="63"/>
			<point x="400" y="-84" type="curve"/>
			<point x="409" y="-94" type="line"/>
			<point x="659" y="36"/>
			<point x="677" y="248"/>
			<point x="677" y="429" type="curve" smooth="yes"/>
			<point x="677" y="706" type="line"/>
			<point x="692" y="708"/>
			<point x="703" y="713"/>
		</contour>
		<contour>
			<point x="855" y="597" type="curve"/>
			<point x="783" y="496" type="line"/>
			<point x="598" y="496" type="line"/>
			<point x="598" y="468" type="line"/>
			<point x="956" y="468" type="line" smooth="yes"/>
			<point x="970" y="468"/>
			<point x="982" y="473"/>
			<point x="984" y="484" type="curve"/>
			<point x="937" y="529"/>
			<point x="855" y="597"/>
		</contour>
		<contour>
			<point x="886" y="-56" type="curve"/>
			<point x="886" y="496" type="line"/>
			<point x="744" y="496" type="line"/>
			<point x="744" y="-94" type="line"/>
			<point x="770" y="-94" type="line" smooth="yes"/>
			<point x="843" y="-94"/>
			<point x="885" y="-64"/>
		</contour>
	</outline>
</glyph>
<glyph name="uni6757.JP" format="2">
	<advance width="1000" height="1000"/>
	<note>
		cid20769
	</note>
	<outline>
		<contour>
			<point x="607" y="843" type="curve"/>
			<point x="426" y="856" type="line"/>
			<point x="426" y="705" type="line"/>
			<point x="571" y="705" type="line"/>
			<point x="571" y="815" type="line"/>
			<point x="599" y="819"/>
			<point x="605" y="829"/>
		</contour>
		<contour>
			<point x="431" y="190" type="curve"/>
			<point x="431" y="277" type="line"/>
			<point x="304" y="277" type="line"/>
			<point x="250" y="165"/>
			<point x="147" y="47"/>
			<point x="17" y="-27" type="curve"/>
			<point x="24" y="-37" type="line"/>
			<point x="194" y="13"/>
			<point x="337" y="88"/>
		</contour>
		<contour>
			<point x="126" y="775" type="line"/>
			<point x="126" y="534" type="line" smooth="yes"/>
			<point x="126" y="441"/>
			<point x="174" y="428"/>
			<point x="326" y="428" type="curve" smooth="yes"/>
			<point x="526" y="428" type="line" smooth="yes"/>
			<point x="831" y="428"/>
			<point x="883" y="447"/>
			<point x="883" y="505" type="curve" smooth="yes"/>
			<point x="883" y="528"/>
			<point x="866" y="544"/>
			<point x="815" y="557" type="curve"/>
			<point x="810" y="559" type="line"/>
			<point x="801" y="559" type="line"/>
			<point x="785" y="554"/>
			<point x="763" y="549"/>
			<point x="752" y="548" type="curve" smooth="yes"/>
			<point x="741" y="546"/>
			<point x="719" y="544"/>
			<point x="697" y="542" type="curve" smooth="yes"/>
			<point x="668" y="541"/>
			<point x="597" y="539"/>
			<point x="535" y="539" type="curve" smooth="yes"/>
			<point x="324" y="539" type="line" smooth="yes"/>
			<point x="269" y="539"/>
			<point x="263" y="543"/>
			<point x="263" y="558" type="curve" smooth="yes"/>
			<point x="263" y="719" type="line"/>
			<point x="277" y="719" type="line"/>
		</contour>
		<contour>
			<point x="784" y="804" type="curve"/>
			<point x="715" y="719" type="line"/>
			<point x="182" y="719" type="line"/>
			<point x="190" y="691" type="line"/>
			<point x="882" y="691" type="line" smooth="yes"/>
			<point x="896" y="691"/>
			<point x="907" y="696"/>
			<point x="910" y="707" type="curve"/>
			<point x="862" y="747"/>
			<point x="784" y="804"/>
		</contour>
		<contour>
			<point x="571" y="292" type="curve"/>
			<point x="563" y="289" type="line"/>
			<point x="620" y="130"/>
			<point x="722" y="23"/>
			<point x="871" y="-35" type="curve"/>
			<point x="886" y="38"/>
			<point x="928" y="86"/>
			<point x="982" y="102" type="curve"/>
			<point x="984" y="113" type="line"/>
			<point x="795" y="139"/>
			<point x="646" y="204"/>
		</contour>
		<contour>
			<point x="837" y="386" type="curve"/>
			<point x="763" y="292" type="line"/>
			<point x="31" y="292" type="line"/>
			<point x="39" y="264" type="line"/>
			<point x="942" y="264" type="line" smooth="yes"/>
			<point x="957" y="264"/>
			<point x="968" y="269"/>
			<point x="971" y="280" type="curve"/>
			<point x="921" y="323"/>
			<point x="837" y="386"/>
		</contour>
		<contour>
			<point x="612" y="401" type="curve"/>
			<point x="421" y="417" type="line"/>
			<point x="421" y="-95" type="line"/>
			<point x="448" y="-95" type="line" smooth="yes"/>
			<point x="508" y="-95"/>
			<point x="575" y="-69"/>
			<point x="575" y="-59" type="curve" smooth="yes"/>
			<point x="575" y="372" type="line"/>
			<point x="603" y="377"/>
			<point x="610" y="387"/>
		</contour>
	</outline>
</glyph>
<glyph name="uni6AEC.HK" format="2">
	<advance width="1000" height="1000"/>
	<note>
		cid22332
	</note>
	<outline>
		<contour>
			<point x="526" y="236" type="curve"/>
			<point x="517" y="231" type="line"/>
			<point x="539" y="196"/>
			<point x="560" y="142"/>
			<point x="561" y="95" type="curve"/>
			<point x="648" y="20"/>
			<point x="754" y="189"/>
		</contour>
		<contour>
			<point x="571" y="758" type="curve"/>
			<point x="522" y="690" type="line"/>
			<point x="300" y="690" type="line"/>
			<point x="308" y="662" type="line"/>
			<point x="633" y="662" type="line" smooth="yes"/>
			<point x="646" y="662"/>
			<point x="656" y="667"/>
			<point x="659" y="678" type="curve"/>
			<point x="626" y="711"/>
			<point x="571" y="758"/>
		</contour>
		<contour>
			<point x="597" y="544" type="curve"/>
			<point x="551" y="476" type="line"/>
			<point x="296" y="476" type="line"/>
			<point x="304" y="448" type="line"/>
			<point x="654" y="448" type="line" smooth="yes"/>
			<point x="667" y="448"/>
			<point x="677" y="453"/>
			<point x="679" y="464" type="curve"/>
			<point x="650" y="496"/>
			<point x="597" y="544"/>
		</contour>
		<contour>
			<point x="575" y="373" type="curve"/>
			<point x="527" y="299" type="line"/>
			<point x="314" y="299" type="line"/>
			<point x="322" y="271" type="line"/>
			<point x="635" y="271" type="line" smooth="yes"/>
			<point x="649" y="271"/>
			<point x="659" y="276"/>
			<point x="661" y="287" type="curve"/>
			<point x="630" y="321"/>
			<point x="575" y="373"/>
		</contour>
		<contour>
			<point x="351" y="656" type="curve"/>
			<point x="340" y="652" type="line"/>
			<point x="357" y="602"/>
			<point x="365" y="545"/>
			<point x="361" y="504" type="curve"/>
			<point x="434" y="430"/>
			<point x="547" y="566"/>
		</contour>
		<contour>
			<point x="636" y="625" type="curve"/>
			<point x="507" y="659" type="line"/>
			<point x="500" y="591"/>
			<point x="487" y="517"/>
			<point x="474" y="467" type="curve"/>
			<point x="487" y="461" type="line"/>
			<point x="525" y="498"/>
			<point x="568" y="552"/>
			<point x="599" y="603" type="curve"/>
			<point x="621" y="604"/>
			<point x="632" y="613"/>
		</contour>
		<contour>
			<point x="528" y="283" type="curve"/>
			<point x="528" y="299" type="line"/>
			<point x="389" y="299" type="line"/>
			<point x="365" y="198"/>
			<point x="321" y="89"/>
			<point x="256" y="13" type="curve"/>
			<point x="266" y="1" type="line"/>
			<point x="386" y="70"/>
			<point x="482" y="164"/>
		</contour>
		<contour>
			<point x="649" y="827" type="line"/>
			<point x="649" y="781" type="line"/>
			<point x="649" y="230" type="line"/>
			<point x="666" y="230" type="line" smooth="yes"/>
			<point x="713" y="230"/>
			<point x="757" y="255"/>
			<point x="757" y="266" type="curve" smooth="yes"/>
			<point x="757" y="753" type="line"/>
			<point x="871" y="753" type="line"/>
			<point x="871" y="781" type="line"/>
			<point x="760" y="781" type="line"/>
		</contour>
		<contour>
			<point x="811" y="781" type="line"/>
			<point x="821" y="781" type="line"/>
			<point x="821" y="234" type="line"/>
			<point x="840" y="234" type="line" smooth="yes"/>
			<point x="880" y="234"/>
			<point x="935" y="258"/>
			<point x="936" y="266" type="curve"/>
			<point x="936" y="737" type="line"/>
			<point x="955" y="740"/>
			<point x="967" y="748"/>
			<point x="973" y="755" type="curve"/>
			<point x="865" y="839" type="line"/>
		</contour>
		<contour>
			<point x="889" y="617" type="line"/>
			<point x="691" y="617" type="line"/>
			<point x="691" y="589" type="line"/>
			<point x="889" y="589" type="line"/>
		</contour>
		<contour>
			<point x="889" y="458" type="line"/>
			<point x="691" y="458" type="line"/>
			<point x="691" y="430" type="line"/>
			<point x="889" y="430" type="line"/>
		</contour>
		<contour>
			<point x="899" y="290" type="line"/>
			<point x="691" y="290" type="line"/>
			<point x="691" y="262" type="line"/>
			<point x="899" y="262" type="line"/>
		</contour>
		<contour>
			<point x="565" y="427" type="curve"/>
			<point x="415" y="441" type="line"/>
			<point x="415" y="-93" type="line"/>
			<point x="435" y="-93" type="line" smooth="yes"/>
			<point x="479" y="-93"/>
			<point x="528" y="-72"/>
			<point x="528" y="-63" type="curve" smooth="yes"/>
			<point x="528" y="399" type="line"/>
			<point x="555" y="403"/>
			<point x="563" y="413"/>
		</contour>
		<contour>
			<point x="882" y="290" type="curve"/>
			<point x="779" y="290" type="line"/>
			<point x="779" y="5" type="line" smooth="yes"/>
			<point x="779" y="-58"/>
			<point x="786" y="-81"/>
			<point x="853" y="-81" type="curve" smooth="yes"/>
			<point x="885" y="-81" type="line" smooth="yes"/>
			<point x="961" y="-81"/>
			<point x="993" y="-58"/>
			<point x="993" y="-17" type="curve" smooth="yes"/>
			<point x="993" y="3"/>
			<point x="988" y="17"/>
			<point x="965" y="28" type="curve"/>
			<point x="961" y="108" type="line"/>
			<point x="950" y="108" type="line"/>
			<point x="939" y="73"/>
			<point x="927" y="40"/>
			<point x="921" y="30" type="curve"/>
			<point x="916" y="25"/>
			<point x="911" y="23"/>
			<point x="906" y="23" type="curve" smooth="yes"/>
			<point x="903" y="23"/>
			<point x="900" y="23"/>
			<point x="897" y="23" type="curve" smooth="yes"/>
			<point x="891" y="23" type="line" smooth="yes"/>
			<point x="883" y="23"/>
			<point x="882" y="27"/>
			<point x="882" y="37" type="curve" smooth="yes"/>
			<point x="882" y="258" type="line" smooth="yes"/>
			<point x="882" y="266"/>
			<point x="882" y="279"/>
		</contour>
		<contour>
			<point x="264" y="683" type="curve"/>
			<point x="219" y="600" type="line"/>
			<point x="16" y="600" type="line"/>
			<point x="23" y="572" type="line"/>
			<point x="315" y="572" type="line" smooth="yes"/>
			<point x="329" y="572"/>
			<point x="338" y="577"/>
			<point x="341" y="588" type="curve"/>
			<point x="316" y="624"/>
			<point x="264" y="683"/>
		</contour>
		<contour>
			<point x="225" y="584" type="curve"/>
			<point x="225" y="600" type="line"/>
			<point x="102" y="600" type="line"/>
			<point x="90" y="443"/>
			<point x="66" y="270"/>
			<point x="15" y="144" type="curve"/>
			<point x="27" y="133" type="line"/>
			<point x="133" y="256"/>
			<point x="199" y="407"/>
		</contour>
		<contour>
			<point x="258" y="843" type="curve"/>
			<point x="110" y="857" type="line"/>
			<point x="110" y="-95" type="line"/>
			<point x="134" y="-95" type="line" smooth="yes"/>
			<point x="177" y="-95"/>
			<point x="230" y="-65"/>
			<point x="230" y="-52" type="curve" smooth="yes"/>
			<point x="230" y="820" type="line"/>
			<point x="251" y="823"/>
			<point x="257" y="831"/>
		</contour>
		<contour>
			<point x="229" y="457" type="curve"/>
			<point x="218" y="452" type="line"/>
			<point x="238" y="415"/>
			<point x="257" y="358"/>
			<point x="256" y="310" type="curve"/>
			<point x="332" y="239"/>
			<point x="432" y="388"/>
		</contour>
		<contour>
			<point x="799" y="284" type="curve"/>
			<point x="685" y="284" type="line"/>
			<point x="681" y="139"/>
			<point x="650" y="13"/>
			<point x="541" y="-83" type="curve"/>
			<point x="547" y="-96" type="line"/>
			<point x="708" y="-17"/>
			<point x="780" y="111"/>
		</contour>
		<contour>
			<point x="534" y="860" type="curve"/>
			<point x="487" y="794" type="line"/>
			<point x="339" y="794" type="line"/>
			<point x="347" y="766" type="line"/>
			<point x="593" y="766" type="line" smooth="yes"/>
			<point x="607" y="766"/>
			<point x="617" y="771"/>
			<point x="619" y="782" type="curve"/>
			<point x="588" y="814"/>
			<point x="534" y="860"/>
		</contour>
	</outline>
</glyph>
<glyph name="uni6C26.HK" format="2">
	<advance width="1000" height="1000"/>
	<note>
		cid22896
	</note>
	<outline>
		<contour>
			<point x="652" y="530" type="line"/>
			<point x="664" y="530" type="line"/>
			<point x="666" y="303"/>
			<point x="692" y="73"/>
			<point x="803" y="-40" type="curve"/>
			<point x="840" y="-85"/>
			<point x="911" y="-120"/>
			<point x="960" y="-76" type="curve" smooth="yes"/>
			<point x="984" y="-54"/>
			<point x="980" y="-10"/>
			<point x="951" y="50" type="curve"/>
			<point x="960" y="202" type="line"/>
			<point x="951" y="204" type="line"/>
			<point x="940" y="168"/>
			<point x="927" y="131"/>
			<point x="915" y="106" type="curve" smooth="yes"/>
			<point x="909" y="95"/>
			<point x="902" y="94"/>
			<point x="893" y="103" type="curve" smooth="yes"/>
			<point x="830" y="164"/>
			<point x="809" y="355"/>
			<point x="815" y="486" type="curve"/>
			<point x="834" y="490"/>
			<point x="849" y="496"/>
			<point x="855" y="504" type="curve"/>
			<point x="721" y="607" type="line"/>
		</contour>
		<contour>
			<point x="753" y="530" type="line"/>
			<point x="139" y="530" type="line"/>
			<point x="148" y="502" type="line"/>
			<point x="753" y="502" type="line"/>
		</contour>
		<contour>
			<point x="746" y="717" type="curve"/>
			<point x="678" y="633" type="line"/>
			<point x="264" y="633" type="line"/>
			<point x="272" y="605" type="line"/>
			<point x="842" y="605" type="line" smooth="yes"/>
			<point x="856" y="605"/>
			<point x="867" y="610"/>
			<point x="870" y="621" type="curve"/>
			<point x="823" y="661"/>
			<point x="746" y="717"/>
		</contour>
		<contour>
			<point x="805" y="824" type="curve"/>
			<point x="733" y="734" type="line"/>
			<point x="244" y="734" type="line"/>
			<point x="230" y="706" type="line"/>
			<point x="908" y="706" type="line" smooth="yes"/>
			<point x="923" y="706"/>
			<point x="934" y="711"/>
			<point x="937" y="722" type="curve"/>
			<point x="885" y="766"/>
			<point x="805" y="824"/>
		</contour>
		<contour>
			<point x="422" y="798" type="curve"/>
			<point x="230" y="855" type="line"/>
			<point x="202" y="726"/>
			<point x="129" y="585"/>
			<point x="40" y="508" type="curve"/>
			<point x="47" y="501" type="line"/>
			<point x="194" y="557"/>
			<point x="313" y="666"/>
			<point x="383" y="785" type="curve"/>
			<point x="410" y="782"/>
			<point x="418" y="787"/>
		</contour>
		<contour>
			<point x="579" y="435" type="curve"/>
			<point x="520" y="359" type="line"/>
			<point x="50" y="359" type="line"/>
			<point x="58" y="331" type="line"/>
			<point x="658" y="331" type="line" smooth="yes"/>
			<point x="673" y="331"/>
			<point x="683" y="336"/>
			<point x="686" y="347" type="curve"/>
			<point x="645" y="383"/>
			<point x="579" y="435"/>
		</contour>
		<contour>
			<point x="466" y="516" type="curve"/>
			<point x="410" y="444" type="line"/>
			<point x="155" y="444" type="line"/>
			<point x="163" y="416" type="line"/>
			<point x="542" y="416" type="line" smooth="yes"/>
			<point x="556" y="416"/>
			<point x="566" y="421"/>
			<point x="569" y="432" type="curve"/>
			<point x="530" y="467"/>
			<point x="466" y="516"/>
		</contour>
		<contour>
			<point x="136" y="299" type="curve"/>
			<point x="128" y="293" type="line"/>
			<point x="162" y="263"/>
			<point x="198" y="211"/>
			<point x="209" y="164" type="curve"/>
			<point x="315" y="103"/>
			<point x="392" y="303"/>
		</contour>
		<contour>
			<point x="580" y="264" type="curve"/>
			<point x="451" y="337" type="line"/>
			<point x="387" y="224"/>
			<point x="247" y="102"/>
			<point x="84" y="35" type="curve"/>
			<point x="91" y="22" type="line"/>
			<point x="286" y="58"/>
			<point x="451" y="152"/>
			<point x="541" y="253" type="curve"/>
			<point x="564" y="249"/>
			<point x="574" y="254"/>
		</contour>
		<contour>
			<point x="665" y="155" type="curve"/>
			<point x="543" y="233" type="line"/>
			<point x="454" y="104"/>
			<point x="264" y="-18"/>
			<point x="49" y="-81" type="curve"/>
			<point x="54" y="-94" type="line"/>
			<point x="300" y="-66"/>
			<point x="511" y="32"/>
			<point x="625" y="147" type="curve"/>
			<point x="648" y="141"/>
			<point x="658" y="145"/>
		</contour>
		<contour>
			<point x="405" y="338" type="curve"/>
			<point x="405" y="354" type="line"/>
			<point x="263" y="354" type="line"/>
			<point x="256" y="314"/>
			<point x="244" y="264"/>
			<point x="228" y="230" type="curve"/>
			<point x="237" y="218" type="line"/>
			<point x="297" y="247"/>
			<point x="370" y="289"/>
		</contour>
		<contour>
			<point x="474" y="59" type="curve"/>
			<point x="466" y="53" type="line"/>
			<point x="525" y="19"/>
			<point x="576" y="-35"/>
			<point x="598" y="-86" type="curve"/>
			<point x="719" y="-155"/>
			<point x="818" y="69"/>
		</contour>
	</outline>
</glyph>
<glyph name="uni7684.HK" format="2">
	<advance width="1000" height="1000"/>
	<note>
		cid27570
	</note>
	<outline>
		<contour>
			<point x="196" y="-8" type="curve" smooth="yes"/>
			<point x="196" y="627" type="line"/>
			<point x="352" y="627" type="line"/>
			<point x="352" y="655" type="line"/>
			<point x="200" y="655" type="line"/>
			<point x="66" y="710" type="line"/>
			<point x="66" y="-54" type="line"/>
			<point x="87" y="-54" type="line" smooth="yes"/>
			<point x="145" y="-54"/>
			<point x="196" y="-23"/>
		</contour>
		<contour>
			<point x="397" y="804" type="curve"/>
			<point x="204" y="850" type="line"/>
			<point x="202" y="785"/>
			<point x="195" y="690"/>
			<point x="190" y="636" type="curve"/>
			<point x="225" y="636" type="line"/>
			<point x="262" y="675"/>
			<point x="319" y="738"/>
			<point x="354" y="779" type="curve"/>
			<point x="378" y="779"/>
			<point x="392" y="786"/>
		</contour>
		<contour>
			<point x="981" y="627" type="curve"/>
			<point x="860" y="735" type="line"/>
			<point x="785" y="659" type="line"/>
			<point x="797" y="659" type="line"/>
			<point x="791" y="301"/>
			<point x="783" y="108"/>
			<point x="746" y="75" type="curve" smooth="yes"/>
			<point x="736" y="66"/>
			<point x="726" y="62"/>
			<point x="709" y="62" type="curve" smooth="yes"/>
			<point x="683" y="62"/>
			<point x="615" y="66"/>
			<point x="567" y="70" type="curve"/>
			<point x="566" y="58" type="line"/>
			<point x="618" y="47"/>
			<point x="655" y="29"/>
			<point x="674" y="7" type="curve" smooth="yes"/>
			<point x="692" y="-13"/>
			<point x="698" y="-46"/>
			<point x="698" y="-93" type="curve"/>
			<point x="773" y="-93"/>
			<point x="819" y="-76"/>
			<point x="858" y="-37" type="curve" smooth="yes"/>
			<point x="917" y="24"/>
			<point x="929" y="186"/>
			<point x="936" y="606" type="curve"/>
			<point x="960" y="610"/>
			<point x="973" y="617"/>
		</contour>
		<contour>
			<point x="494" y="627" type="curve"/>
			<point x="371" y="724" type="line"/>
			<point x="309" y="655" type="line"/>
			<point x="319" y="655" type="line"/>
			<point x="319" y="-18" type="line"/>
			<point x="341" y="-18" type="line" smooth="yes"/>
			<point x="388" y="-18"/>
			<point x="453" y="10"/>
			<point x="454" y="19" type="curve"/>
			<point x="454" y="605" type="line"/>
			<point x="474" y="610"/>
			<point x="487" y="618"/>
		</contour>
		<contour>
			<point x="870" y="631" type="line"/>
			<point x="870" y="659" type="line"/>
			<point x="581" y="659" type="line"/>
			<point x="569" y="631" type="line"/>
		</contour>
		<contour>
			<point x="757" y="798" type="curve"/>
			<point x="571" y="852" type="line"/>
			<point x="548" y="700"/>
			<point x="498" y="533"/>
			<point x="449" y="427" type="curve"/>
			<point x="460" y="420" type="line"/>
			<point x="566" y="503"/>
			<point x="653" y="623"/>
			<point x="717" y="777" type="curve"/>
			<point x="740" y="777"/>
			<point x="753" y="785"/>
		</contour>
		<contour>
			<point x="376" y="351" type="line"/>
			<point x="376" y="379" type="line"/>
			<point x="135" y="379" type="line"/>
			<point x="135" y="351" type="line"/>
		</contour>
		<contour>
			<point x="376" y="61" type="line"/>
			<point x="376" y="89" type="line"/>
			<point x="135" y="89" type="line"/>
			<point x="135" y="61" type="line"/>
		</contour>
		<contour>
			<point x="661" y="452" type="curve"/>
			<point x="599" y="364" type="line"/>
			<point x="478" y="364" type="line"/>
			<point x="486" y="336" type="line"/>
			<point x="745" y="336" type="line" smooth="yes"/>
			<point x="759" y="336"/>
			<point x="770" y="341"/>
			<point x="772" y="352" type="curve"/>
			<point x="732" y="392"/>
			<point x="661" y="452"/>
		</contour>
	</outline>
</glyph>
<glyph name="uni7D00.HK" format="2">
	<advance width="1000" height="1000"/>
	<note>
		cid30664
	</note>
	<outline>
		<contour>
			<point x="813" y="768" type="line"/>
			<point x="448" y="768" type="line"/>
			<point x="457" y="740" type="line"/>
			<point x="813" y="740" type="line"/>
		</contour>
		<contour>
			<point x="753" y="768" type="line"/>
			<point x="763" y="768" type="line"/>
			<point x="763" y="347" type="line"/>
			<point x="788" y="347" type="line" smooth="yes"/>
			<point x="835" y="347"/>
			<point x="906" y="372"/>
			<point x="908" y="379" type="curve"/>
			<point x="908" y="717" type="line"/>
			<point x="928" y="722"/>
			<point x="941" y="731"/>
			<point x="947" y="739" type="curve"/>
			<point x="816" y="838" type="line"/>
		</contour>
		<contour>
			<point x="804" y="449" type="line"/>
			<point x="544" y="449" type="line"/>
			<point x="544" y="421" type="line"/>
			<point x="804" y="421" type="line"/>
		</contour>
		<contour>
			<point x="362" y="791" type="curve"/>
			<point x="188" y="856" type="line"/>
			<point x="170" y="777"/>
			<point x="145" y="690"/>
			<point x="124" y="636" type="curve"/>
			<point x="135" y="629" type="line"/>
			<point x="197" y="662"/>
			<point x="265" y="713"/>
			<point x="320" y="772" type="curve"/>
			<point x="343" y="770"/>
			<point x="357" y="778"/>
		</contour>
		<contour>
			<point x="467" y="659" type="curve"/>
			<point x="304" y="733" type="line"/>
			<point x="262" y="623"/>
			<point x="183" y="470"/>
			<point x="105" y="368" type="curve"/>
			<point x="118" y="368" type="line"/>
			<point x="238" y="447"/>
			<point x="358" y="561"/>
			<point x="426" y="645" type="curve"/>
			<point x="449" y="641"/>
			<point x="462" y="648"/>
		</contour>
		<contour>
			<point x="20" y="429" type="curve"/>
			<point x="57" y="295" type="line"/>
			<point x="69" y="297"/>
			<point x="81" y="305"/>
			<point x="88" y="318" type="curve"/>
			<point x="227" y="365"/>
			<point x="325" y="403"/>
			<point x="391" y="431" type="curve"/>
			<point x="390" y="444" type="line"/>
			<point x="237" y="435"/>
			<point x="83" y="429"/>
		</contour>
		<contour>
			<point x="32" y="710" type="curve"/>
			<point x="23" y="705" type="line"/>
			<point x="55" y="660"/>
			<point x="89" y="593"/>
			<point x="96" y="533" type="curve"/>
			<point x="204" y="452"/>
			<point x="309" y="660"/>
		</contour>
		<contour>
			<point x="305" y="527" type="curve"/>
			<point x="296" y="523" type="line"/>
			<point x="320" y="471"/>
			<point x="344" y="400"/>
			<point x="346" y="336" type="curve"/>
			<point x="449" y="242"/>
			<point x="572" y="443"/>
		</contour>
		<contour>
			<point x="306" y="294" type="curve"/>
			<point x="296" y="290" type="line"/>
			<point x="317" y="232"/>
			<point x="337" y="156"/>
			<point x="335" y="87" type="curve"/>
			<point x="435" y="-14"/>
			<point x="566" y="187"/>
		</contour>
		<contour>
			<point x="306" y="-59" type="curve" smooth="yes"/>
			<point x="306" y="409" type="line"/>
			<point x="176" y="399" type="line"/>
			<point x="176" y="-94" type="line"/>
			<point x="200" y="-94" type="line" smooth="yes"/>
			<point x="266" y="-94"/>
			<point x="306" y="-67"/>
		</contour>
		<contour>
			<point x="236" y="253" type="curve"/>
			<point x="83" y="290" type="line"/>
			<point x="75" y="184"/>
			<point x="51" y="71"/>
			<point x="20" y="-6" type="curve"/>
			<point x="34" y="-14" type="line"/>
			<point x="103" y="42"/>
			<point x="159" y="127"/>
			<point x="198" y="230" type="curve"/>
			<point x="221" y="231"/>
			<point x="232" y="240"/>
		</contour>
		<contour>
			<point x="629" y="89" type="curve" smooth="yes"/>
			<point x="629" y="160" type="line"/>
			<point x="484" y="160" type="line"/>
			<point x="484" y="54" type="line" smooth="yes"/>
			<point x="484" y="-45"/>
			<point x="516" y="-68"/>
			<point x="635" y="-68" type="curve" smooth="yes"/>
			<point x="740" y="-68" type="line" smooth="yes"/>
			<point x="919" y="-68"/>
			<point x="975" y="-42"/>
			<point x="975" y="19" type="curve" smooth="yes"/>
			<point x="975" y="44"/>
			<point x="967" y="60"/>
			<point x="928" y="76" type="curve"/>
			<point x="925" y="238" type="line"/>
			<point x="915" y="238" type="line"/>
			<point x="889" y="163"/>
			<point x="869" y="106"/>
			<point x="855" y="84" type="curve" smooth="yes"/>
			<point x="847" y="71"/>
			<point x="841" y="68"/>
			<point x="825" y="67" type="curve" smooth="yes"/>
			<point x="811" y="66"/>
			<point x="785" y="66"/>
			<point x="757" y="66" type="curve" smooth="yes"/>
			<point x="665" y="66" type="line" smooth="yes"/>
			<point x="636" y="66"/>
			<point x="629" y="71"/>
		</contour>
		<contour>
			<point x="660" y="600" type="curve"/>
			<point x="484" y="615" type="line"/>
			<point x="484" y="150" type="line"/>
			<point x="629" y="150" type="line"/>
			<point x="629" y="574" type="line"/>
			<point x="652" y="578"/>
			<point x="658" y="587"/>
		</contour>
	</outline>
</glyph>
<glyph name="uni8921.inherited" format="2">
	<advance width="1000" height="1000"/>
	<note>
		cid37038
	</note>
	<outline>
		<contour>
			<point x="695" y="539" type="curve"/>
			<point x="740" y="427"/>
			<point x="818" y="330"/>
			<point x="911" y="275" type="curve"/>
			<point x="917" y="329"/>
			<point x="935" y="386"/>
			<point x="981" y="408" type="curve"/>
			<point x="981" y="421" type="line"/>
			<point x="873" y="434"/>
			<point x="766" y="483"/>
			<point x="705" y="548" type="curve"/>
			<point x="736" y="552"/>
			<point x="745" y="558"/>
			<point x="749" y="571" type="curve"/>
			<point x="578" y="617" type="line"/>
			<point x="552" y="488"/>
			<point x="485" y="356"/>
			<point x="404" y="275" type="curve"/>
			<point x="410" y="266" type="line"/>
			<point x="533" y="319"/>
			<point x="643" y="424"/>
		</contour>
		<contour>
			<point x="712" y="404" type="curve"/>
			<point x="648" y="321" type="line"/>
			<point x="529" y="321" type="line"/>
			<point x="536" y="294" type="line"/>
			<point x="799" y="294" type="line" smooth="yes"/>
			<point x="813" y="294"/>
			<point x="824" y="299"/>
			<point x="827" y="309" type="curve"/>
			<point x="784" y="348"/>
			<point x="712" y="404"/>
		</contour>
		<contour>
			<point x="608" y="220" type="line"/>
			<point x="473" y="271" type="line"/>
			<point x="473" y="-94" type="line"/>
			<point x="496" y="-94" type="line" smooth="yes"/>
			<point x="560" y="-94"/>
			<point x="598" y="-74"/>
			<point x="598" y="-66" type="curve" smooth="yes"/>
			<point x="598" y="192" type="line"/>
			<point x="743" y="192" type="line"/>
			<point x="743" y="-75" type="line"/>
			<point x="767" y="-75" type="line" smooth="yes"/>
			<point x="834" y="-75"/>
			<point x="875" y="-54"/>
			<point x="875" y="-49" type="curve" smooth="yes"/>
			<point x="875" y="184" type="line"/>
			<point x="897" y="187"/>
			<point x="907" y="194"/>
			<point x="913" y="203" type="curve"/>
			<point x="800" y="288" type="line"/>
			<point x="740" y="220" type="line"/>
		</contour>
		<contour>
			<point x="750" y="-31" type="line"/>
			<point x="750" y="-3" type="line"/>
			<point x="591" y="-3" type="line"/>
			<point x="591" y="-31" type="line"/>
		</contour>
		<contour>
			<point x="483" y="427" type="curve"/>
			<point x="371" y="497" type="line"/>
			<point x="355" y="446"/>
			<point x="335" y="394"/>
			<point x="317" y="361" type="curve"/>
			<point x="330" y="352" type="line"/>
			<point x="370" y="368"/>
			<point x="409" y="392"/>
			<point x="442" y="417" type="curve"/>
			<point x="461" y="411"/>
			<point x="476" y="417"/>
		</contour>
		<contour>
			<point x="285" y="-54" type="curve" smooth="yes"/>
			<point x="285" y="422" type="line"/>
			<point x="146" y="310" type="line"/>
			<point x="146" y="-95" type="line"/>
			<point x="171" y="-95" type="line" smooth="yes"/>
			<point x="241" y="-95"/>
			<point x="285" y="-63"/>
		</contour>
		<contour>
			<point x="274" y="396" type="curve"/>
			<point x="264" y="391" type="line"/>
			<point x="293" y="345"/>
			<point x="327" y="277"/>
			<point x="336" y="218" type="curve"/>
			<point x="434" y="143"/>
			<point x="530" y="331"/>
		</contour>
		<contour>
			<point x="445" y="613" type="curve"/>
			<point x="331" y="716" type="line"/>
			<point x="258" y="644" type="line"/>
			<point x="261" y="644" type="line"/>
			<point x="223" y="498"/>
			<point x="126" y="325"/>
			<point x="15" y="213" type="curve"/>
			<point x="23" y="202" type="line"/>
			<point x="205" y="294"/>
			<point x="339" y="444"/>
			<point x="406" y="597" type="curve"/>
			<point x="430" y="599"/>
			<point x="439" y="602"/>
		</contour>
		<contour>
			<point x="313" y="616" type="line"/>
			<point x="313" y="644" type="line"/>
			<point x="34" y="644" type="line"/>
			<point x="43" y="616" type="line"/>
		</contour>
		<contour>
			<point x="313" y="841" type="curve"/>
			<point x="137" y="854" type="line"/>
			<point x="137" y="630" type="line"/>
			<point x="277" y="630" type="line"/>
			<point x="277" y="812" type="line"/>
			<point x="305" y="817"/>
			<point x="312" y="827"/>
		</contour>
		<contour>
			<point x="611" y="840" type="curve"/>
			<point x="463" y="853" type="line"/>
			<point x="463" y="578" type="line"/>
			<point x="486" y="578" type="line" smooth="yes"/>
			<point x="559" y="578"/>
			<point x="583" y="596"/>
			<point x="583" y="602" type="curve" smooth="yes"/>
			<point x="583" y="814" type="line"/>
			<point x="603" y="819"/>
			<point x="610" y="828"/>
		</contour>
		<contour>
			<point x="889" y="840" type="curve"/>
			<point x="740" y="853" type="line"/>
			<point x="740" y="582" type="line"/>
			<point x="761" y="582" type="line" smooth="yes"/>
			<point x="836" y="582"/>
			<point x="860" y="599"/>
			<point x="860" y="606" type="curve" smooth="yes"/>
			<point x="860" y="814" type="line"/>
			<point x="881" y="818"/>
			<point x="888" y="829"/>
		</contour>
		<contour>
			<point x="617" y="792" type="curve"/>
			<point x="577" y="721" type="line"/>
			<point x="386" y="721" type="line"/>
			<point x="393" y="693" type="line"/>
			<point x="668" y="693" type="line" smooth="yes"/>
			<point x="679" y="693"/>
			<point x="688" y="698"/>
			<point x="691" y="709" type="curve"/>
			<point x="662" y="745"/>
			<point x="617" y="792"/>
		</contour>
		<contour>
			<point x="902" y="792" type="curve"/>
			<point x="862" y="721" type="line"/>
			<point x="689" y="721" type="line"/>
			<point x="696" y="693" type="line"/>
			<point x="953" y="693" type="line" smooth="yes"/>
			<point x="964" y="693"/>
			<point x="973" y="698"/>
			<point x="976" y="709" type="curve"/>
			<point x="947" y="745"/>
			<point x="902" y="792"/>
		</contour>
	</outline>
</glyph>
